{"glyphs":{"0":{"ha":944,"x_min":103,"x_max":842,"o":"m 472 -12 q 199 112 296 -12 q 103 514 103 236 q 198 917 103 793 q 472 1040 294 1040 q 746 917 651 1040 q 842 514 842 793 q 745 112 842 236 q 472 -12 649 -12 m 472 33 q 644 78 574 33 q 753 228 714 122 q 792 511 792 333 q 753 798 792 692 q 644 950 714 905 q 472 994 574 994 q 301 950 371 994 q 192 800 231 906 q 153 517 153 694 q 192 230 153 336 q 301 78 231 123 q 472 33 371 33 z "},"1":{"ha":551,"x_min":18,"x_max":394,"o":"m 363 1031 l 394 1031 l 394 0 l 347 0 l 347 961 l 18 729 l 18 785 l 363 1031 z "},"2":{"ha":742,"x_min":44,"x_max":686,"o":"m 686 44 l 686 0 l 57 0 l 57 28 l 392 421 q 494 555 456 497 q 549 665 532 614 q 565 767 565 715 q 500 939 565 883 q 301 994 434 994 q 44 951 161 994 l 44 999 q 301 1040 154 1040 q 534 973 454 1040 q 614 769 614 906 q 596 652 614 708 q 538 535 578 597 q 424 388 497 472 l 130 44 l 686 44 z "},"3":{"ha":750,"x_min":44,"x_max":694,"o":"m 458 537 q 634 449 574 515 q 694 281 694 383 q 599 64 694 140 q 310 -12 503 -12 q 174 -1 244 -12 q 44 32 105 10 l 44 79 q 313 33 182 33 q 564 97 482 33 q 646 282 646 160 q 573 448 646 390 q 354 506 499 506 l 213 506 l 213 551 l 265 551 q 522 609 434 551 q 610 785 610 667 q 538 939 610 884 q 336 994 467 994 q 82 956 204 994 l 82 1003 q 338 1040 203 1040 q 510 1010 438 1040 q 620 922 583 979 q 658 786 658 865 q 605 631 658 694 q 458 537 552 567 z "},"4":{"ha":876,"x_min":40,"x_max":842,"o":"m 842 311 l 842 267 l 675 267 l 675 0 l 628 0 l 628 267 l 40 267 l 40 294 l 521 1028 l 575 1028 l 105 311 l 628 311 l 638 681 l 675 681 l 675 311 l 842 311 z "},"5":{"ha":763,"x_min":64,"x_max":714,"o":"m 267 576 q 528 533 430 567 q 670 438 626 499 q 714 286 714 378 q 616 64 714 140 q 329 -12 518 -12 q 194 -1 264 -12 q 64 32 125 11 l 64 79 q 332 33 197 33 q 582 96 499 33 q 665 286 665 159 q 626 415 665 365 q 497 493 587 465 q 254 531 408 522 l 113 539 l 149 1028 l 671 1028 l 671 983 l 192 983 l 163 583 l 267 576 z "},"6":{"ha":857,"x_min":107,"x_max":803,"o":"m 451 575 q 711 500 620 575 q 803 279 803 424 q 763 119 803 184 q 650 20 722 53 q 483 -12 578 -12 q 204 107 301 -12 q 107 482 107 226 q 220 901 107 761 q 553 1040 333 1040 q 756 1008 675 1040 l 756 961 q 659 986 713 978 q 554 994 605 994 q 256 870 356 994 q 156 491 156 746 q 292 552 213 530 q 451 575 372 575 m 483 33 q 681 95 608 33 q 754 278 754 156 q 676 466 754 403 q 449 529 598 529 q 294 507 375 529 q 156 442 213 485 q 246 130 163 226 q 483 33 328 33 z "},"7":{"ha":694,"x_min":11,"x_max":651,"o":"m 11 1028 l 651 1028 l 651 1000 l 193 0 l 140 0 l 592 983 l 11 983 l 11 1028 z "},"8":{"ha":944,"x_min":90,"x_max":854,"o":"m 614 510 q 797 414 740 475 q 854 261 854 353 q 811 115 854 176 q 683 20 767 53 q 479 -12 599 -12 q 191 58 291 -12 q 90 263 90 128 q 145 433 90 363 q 301 541 200 503 q 172 638 213 579 q 131 779 131 696 q 171 919 131 860 q 287 1009 211 978 q 468 1040 363 1040 q 653 1009 576 1040 q 772 920 731 978 q 813 781 813 861 q 762 617 813 685 q 614 510 711 549 m 181 781 q 211 665 181 712 q 312 586 242 617 q 500 535 382 554 q 548 526 531 530 q 714 627 663 567 q 765 779 765 688 q 687 939 765 884 q 467 994 609 994 q 254 938 327 994 q 181 781 181 882 m 481 33 q 721 91 638 33 q 804 258 804 149 q 773 367 804 323 q 674 440 742 410 q 492 489 606 469 q 358 520 417 501 q 195 421 251 488 q 139 265 139 354 q 226 92 139 151 q 481 33 314 33 z "},"9":{"ha":857,"x_min":54,"x_max":750,"o":"m 374 1040 q 653 921 556 1040 q 750 546 750 802 q 637 127 750 267 q 304 -12 524 -12 q 101 19 182 -12 l 101 67 q 198 41 144 49 q 303 33 252 33 q 601 158 501 33 q 701 537 701 282 q 565 475 644 498 q 406 453 485 453 q 145 528 237 453 q 54 749 54 603 q 94 909 54 844 q 207 1007 135 974 q 374 1040 279 1040 m 103 750 q 181 561 103 624 q 408 499 259 499 q 563 521 482 499 q 701 586 644 543 q 611 898 694 801 q 374 994 528 994 q 176 933 249 994 q 103 750 103 872 z "},"\u0000":{"ha":0,"x_min":0,"x_max":0,"o":""},"\r":{"ha":381,"x_min":0,"x_max":0,"o":""}," ":{"ha":381,"x_min":0,"x_max":0,"o":""},"A":{"ha":1001,"x_min":33,"x_max":968,"o":"m 915 0 l 760 367 l 240 367 l 85 0 l 33 0 l 471 1028 l 531 1028 l 968 0 l 915 0 m 260 413 l 740 413 l 500 981 l 260 413 z "},"Á":{"ha":1001,"x_min":33,"x_max":968,"o":"m 915 0 l 760 367 l 240 367 l 85 0 l 33 0 l 471 1028 l 531 1028 l 968 0 l 915 0 m 260 413 l 740 413 l 500 981 l 260 413 m 476 1122 l 631 1311 l 690 1311 l 526 1122 l 476 1122 z "},"Ă":{"ha":1001,"x_min":33,"x_max":968,"o":"m 915 0 l 760 367 l 240 367 l 85 0 l 33 0 l 471 1028 l 531 1028 l 968 0 l 915 0 m 260 413 l 740 413 l 500 981 l 260 413 m 503 1131 q 342 1175 398 1131 q 278 1292 285 1220 l 319 1292 q 371 1203 328 1234 q 503 1172 413 1172 q 633 1203 592 1172 q 683 1292 674 1234 l 725 1292 q 663 1175 717 1219 q 503 1131 608 1131 z "},"Ắ":{"ha":1001,"x_min":33,"x_max":968,"o":"m 915 0 l 760 367 l 240 367 l 85 0 l 33 0 l 471 1028 l 531 1028 l 968 0 l 915 0 m 260 413 l 740 413 l 500 981 l 260 413 m 476 1281 l 631 1456 l 690 1456 l 526 1281 l 476 1281 m 503 1131 q 342 1175 398 1131 q 278 1292 285 1220 l 319 1292 q 371 1203 328 1234 q 503 1172 413 1172 q 633 1203 592 1172 q 683 1292 674 1234 l 725 1292 q 663 1175 717 1219 q 503 1131 608 1131 z "},"Ặ":{"ha":1001,"x_min":33,"x_max":968,"o":"m 915 0 l 760 367 l 240 367 l 85 0 l 33 0 l 471 1028 l 531 1028 l 968 0 l 915 0 m 260 413 l 740 413 l 500 981 l 260 413 m 501 -215 q 470 -203 483 -215 q 458 -172 458 -192 q 470 -140 458 -153 q 501 -128 483 -128 q 532 -140 520 -128 q 544 -172 544 -153 q 532 -203 544 -192 q 501 -215 520 -215 m 503 1131 q 342 1175 398 1131 q 278 1292 285 1220 l 319 1292 q 371 1203 328 1234 q 503 1172 413 1172 q 633 1203 592 1172 q 683 1292 674 1234 l 725 1292 q 663 1175 717 1219 q 503 1131 608 1131 z "},"Ằ":{"ha":1001,"x_min":33,"x_max":968,"o":"m 915 0 l 760 367 l 240 367 l 85 0 l 33 0 l 471 1028 l 531 1028 l 968 0 l 915 0 m 260 413 l 740 413 l 500 981 l 260 413 m 476 1281 l 313 1456 l 372 1456 l 526 1281 l 476 1281 m 500 1131 q 340 1175 395 1131 q 278 1292 285 1219 l 319 1292 q 369 1203 328 1234 q 500 1172 410 1172 q 632 1203 590 1172 q 683 1292 674 1234 l 725 1292 q 661 1175 717 1220 q 500 1131 605 1131 z "},"Ẳ":{"ha":1001,"x_min":33,"x_max":968,"o":"m 915 0 l 760 367 l 240 367 l 85 0 l 33 0 l 471 1028 l 531 1028 l 968 0 l 915 0 m 260 413 l 740 413 l 500 981 l 260 413 m 478 1281 q 489 1314 478 1301 q 514 1335 500 1327 q 553 1352 528 1342 q 593 1371 580 1362 q 606 1394 606 1380 q 585 1422 606 1413 q 515 1432 565 1432 q 440 1426 472 1432 q 365 1407 407 1421 l 365 1444 q 515 1469 429 1469 q 614 1449 582 1469 q 646 1394 646 1428 q 629 1354 646 1367 q 580 1328 612 1340 q 540 1308 553 1318 q 524 1281 526 1299 l 478 1281 m 500 1131 q 340 1175 395 1131 q 278 1292 285 1219 l 319 1292 q 369 1203 328 1234 q 500 1172 410 1172 q 632 1203 590 1172 q 683 1292 674 1234 l 725 1292 q 661 1175 717 1220 q 500 1131 605 1131 z "},"Ẵ":{"ha":1001,"x_min":33,"x_max":968,"o":"m 915 0 l 760 367 l 240 367 l 85 0 l 33 0 l 471 1028 l 531 1028 l 968 0 l 915 0 m 260 413 l 740 413 l 500 981 l 260 413 m 607 1343 q 553 1350 579 1343 q 489 1371 528 1357 q 438 1388 460 1382 q 396 1394 416 1394 q 332 1383 360 1394 q 278 1346 303 1371 l 278 1393 q 396 1435 319 1435 q 449 1428 424 1435 q 514 1407 475 1421 q 565 1390 543 1396 q 607 1383 587 1383 q 671 1395 642 1383 q 725 1432 700 1407 l 725 1385 q 607 1343 683 1343 m 500 1131 q 340 1175 395 1131 q 278 1292 285 1219 l 319 1292 q 369 1203 328 1234 q 500 1172 410 1172 q 632 1203 590 1172 q 683 1292 674 1234 l 725 1292 q 661 1175 717 1220 q 500 1131 605 1131 z "},"Â":{"ha":1001,"x_min":33,"x_max":968,"o":"m 915 0 l 760 367 l 240 367 l 85 0 l 33 0 l 471 1028 l 531 1028 l 968 0 l 915 0 m 260 413 l 740 413 l 500 981 l 260 413 m 725 1122 l 661 1122 l 501 1279 l 342 1122 l 278 1122 l 475 1311 l 528 1311 l 725 1122 z "},"Ấ":{"ha":1001,"x_min":33,"x_max":968,"o":"m 915 0 l 760 367 l 240 367 l 85 0 l 33 0 l 471 1028 l 531 1028 l 968 0 l 915 0 m 260 413 l 740 413 l 500 981 l 260 413 m 829 1433 l 889 1433 l 725 1244 l 675 1244 l 829 1433 m 475 1311 l 528 1311 l 725 1122 l 661 1122 l 501 1279 l 342 1122 l 278 1122 l 475 1311 z "},"Ậ":{"ha":1001,"x_min":33,"x_max":968,"o":"m 915 0 l 760 367 l 240 367 l 85 0 l 33 0 l 471 1028 l 531 1028 l 968 0 l 915 0 m 260 413 l 740 413 l 500 981 l 260 413 m 501 -215 q 470 -203 483 -215 q 458 -172 458 -192 q 470 -140 458 -153 q 501 -128 483 -128 q 532 -140 520 -128 q 544 -172 544 -153 q 532 -203 544 -192 q 501 -215 520 -215 m 725 1122 l 661 1122 l 501 1279 l 342 1122 l 278 1122 l 475 1311 l 528 1311 l 725 1122 z "},"Ầ":{"ha":1001,"x_min":33,"x_max":968,"o":"m 915 0 l 760 367 l 240 367 l 85 0 l 33 0 l 471 1028 l 531 1028 l 968 0 l 915 0 m 260 413 l 740 413 l 500 981 l 260 413 m 739 1244 l 689 1244 l 525 1433 l 585 1433 l 739 1244 m 475 1311 l 528 1311 l 725 1122 l 661 1122 l 501 1279 l 342 1122 l 278 1122 l 475 1311 z "},"Ẩ":{"ha":1001,"x_min":33,"x_max":968,"o":"m 915 0 l 760 367 l 240 367 l 85 0 l 33 0 l 471 1028 l 531 1028 l 968 0 l 915 0 m 260 413 l 740 413 l 500 981 l 260 413 m 714 1433 q 813 1413 781 1433 q 844 1358 844 1392 q 827 1318 844 1331 q 778 1292 810 1304 q 738 1272 752 1282 q 722 1244 724 1263 l 676 1244 q 688 1278 677 1265 q 713 1299 699 1291 q 751 1316 727 1306 q 791 1335 778 1326 q 804 1358 804 1344 q 784 1386 804 1376 q 714 1396 764 1396 q 638 1390 671 1396 q 564 1371 606 1385 l 564 1408 q 714 1433 628 1433 m 475 1311 l 528 1311 l 725 1122 l 661 1122 l 501 1279 l 342 1122 l 278 1122 l 475 1311 z "},"Ẫ":{"ha":1001,"x_min":33,"x_max":968,"o":"m 915 0 l 760 367 l 240 367 l 85 0 l 33 0 l 471 1028 l 531 1028 l 968 0 l 915 0 m 260 413 l 740 413 l 500 981 l 260 413 m 607 1383 q 671 1395 642 1383 q 725 1432 700 1407 l 725 1385 q 607 1343 683 1343 q 553 1350 579 1343 q 489 1371 528 1357 q 438 1388 460 1382 q 396 1394 416 1394 q 332 1383 360 1394 q 278 1346 303 1371 l 278 1393 q 396 1435 319 1435 q 449 1428 424 1435 q 514 1407 475 1421 q 565 1390 543 1396 q 607 1383 587 1383 m 475 1311 l 528 1311 l 725 1122 l 661 1122 l 501 1279 l 342 1122 l 278 1122 l 475 1311 z "},"Ȁ":{"ha":1001,"x_min":33,"x_max":968,"o":"m 915 0 l 760 367 l 240 367 l 85 0 l 33 0 l 471 1028 l 531 1028 l 968 0 l 915 0 m 260 413 l 740 413 l 500 981 l 260 413 m 361 1122 l 247 1311 l 297 1311 l 408 1122 l 361 1122 m 594 1122 l 481 1311 l 531 1311 l 642 1122 l 594 1122 z "},"Ä":{"ha":1001,"x_min":33,"x_max":968,"o":"m 915 0 l 760 367 l 240 367 l 85 0 l 33 0 l 471 1028 l 531 1028 l 968 0 l 915 0 m 260 413 l 740 413 l 500 981 l 260 413 m 321 1174 q 290 1185 302 1174 q 278 1217 278 1197 q 290 1249 278 1236 q 321 1261 302 1261 q 352 1249 340 1261 q 364 1217 364 1236 q 352 1185 364 1197 q 321 1174 340 1174 m 682 1174 q 651 1185 663 1174 q 639 1217 639 1197 q 651 1249 639 1236 q 682 1261 663 1261 q 713 1249 701 1261 q 725 1217 725 1236 q 713 1185 725 1197 q 682 1174 701 1174 z "},"Ạ":{"ha":1001,"x_min":33,"x_max":968,"o":"m 915 0 l 760 367 l 240 367 l 85 0 l 33 0 l 471 1028 l 531 1028 l 968 0 l 915 0 m 260 413 l 740 413 l 500 981 l 260 413 m 501 -215 q 470 -203 483 -215 q 458 -172 458 -192 q 470 -140 458 -153 q 501 -128 483 -128 q 532 -140 520 -128 q 544 -172 544 -153 q 532 -203 544 -192 q 501 -215 520 -215 z "},"À":{"ha":1001,"x_min":33,"x_max":968,"o":"m 915 0 l 760 367 l 240 367 l 85 0 l 33 0 l 471 1028 l 531 1028 l 968 0 l 915 0 m 260 413 l 740 413 l 500 981 l 260 413 m 476 1122 l 313 1311 l 372 1311 l 526 1122 l 476 1122 z "},"Ả":{"ha":1001,"x_min":33,"x_max":968,"o":"m 915 0 l 760 367 l 240 367 l 85 0 l 33 0 l 471 1028 l 531 1028 l 968 0 l 915 0 m 260 413 l 740 413 l 500 981 l 260 413 m 478 1122 q 489 1156 478 1142 q 514 1176 500 1169 q 553 1194 528 1184 q 593 1213 580 1203 q 606 1236 606 1222 q 585 1264 606 1254 q 515 1274 565 1274 q 440 1268 472 1274 q 365 1249 407 1263 l 365 1286 q 515 1311 429 1311 q 614 1291 582 1311 q 646 1236 646 1270 q 629 1195 646 1209 q 580 1169 612 1182 q 540 1150 553 1160 q 524 1122 526 1140 l 478 1122 z "},"Ȃ":{"ha":1001,"x_min":33,"x_max":968,"o":"m 915 0 l 760 367 l 240 367 l 85 0 l 33 0 l 471 1028 l 531 1028 l 968 0 l 915 0 m 260 413 l 740 413 l 500 981 l 260 413 m 278 1142 q 340 1259 285 1215 q 500 1303 395 1303 q 661 1258 605 1303 q 725 1142 717 1213 l 683 1142 q 632 1230 674 1199 q 500 1261 590 1261 q 369 1230 410 1261 q 319 1142 328 1199 l 278 1142 z "},"Ā":{"ha":1001,"x_min":33,"x_max":968,"o":"m 915 0 l 760 367 l 240 367 l 85 0 l 33 0 l 471 1028 l 531 1028 l 968 0 l 915 0 m 260 413 l 740 413 l 500 981 l 260 413 m 293 1196 l 293 1238 l 710 1238 l 710 1196 l 293 1196 z "},"Ą":{"ha":1001,"x_min":33,"x_max":1064,"o":"m 931 -242 q 991 -235 961 -242 q 1064 -212 1021 -228 l 1064 -250 q 933 -278 998 -278 q 820 -247 860 -278 q 781 -160 781 -215 q 810 -68 781 -110 q 910 13 840 -26 l 760 367 l 240 367 l 85 0 l 33 0 l 471 1028 l 531 1028 l 968 0 q 852 -77 884 -40 q 819 -158 819 -114 q 848 -220 819 -198 q 931 -242 876 -242 m 260 413 l 740 413 l 500 981 l 260 413 z "},"Å":{"ha":1001,"x_min":33,"x_max":968,"o":"m 760 367 l 240 367 l 85 0 l 33 0 l 460 1001 q 398 1047 422 1014 q 375 1122 375 1079 q 392 1188 375 1158 q 438 1233 408 1217 q 503 1250 467 1250 q 568 1233 539 1250 q 614 1188 597 1217 q 631 1122 631 1158 q 607 1045 631 1078 q 542 1000 583 1012 l 968 0 l 915 0 l 760 367 m 413 1122 q 438 1055 413 1080 q 503 1031 463 1031 q 568 1055 543 1031 q 593 1122 593 1080 q 568 1189 593 1165 q 503 1214 543 1214 q 438 1189 463 1214 q 413 1122 413 1165 m 260 413 l 740 413 l 500 981 l 260 413 z "},"Ǻ":{"ha":1001,"x_min":33,"x_max":968,"o":"m 760 367 l 240 367 l 85 0 l 33 0 l 460 1001 q 398 1047 422 1014 q 375 1122 375 1079 q 392 1188 375 1158 q 438 1233 408 1217 q 503 1250 467 1250 q 574 1230 542 1250 l 671 1325 l 726 1325 l 602 1205 q 623 1167 616 1189 q 631 1122 631 1146 q 607 1045 631 1078 q 542 1000 583 1012 l 968 0 l 915 0 l 760 367 m 413 1122 q 438 1055 413 1080 q 503 1031 463 1031 q 568 1055 543 1031 q 593 1122 593 1080 q 568 1189 593 1165 q 503 1214 543 1214 q 438 1189 463 1214 q 413 1122 413 1165 m 260 413 l 740 413 l 500 981 l 260 413 z "},"Ã":{"ha":1001,"x_min":33,"x_max":968,"o":"m 915 0 l 760 367 l 240 367 l 85 0 l 33 0 l 471 1028 l 531 1028 l 968 0 l 915 0 m 260 413 l 740 413 l 500 981 l 260 413 m 613 1179 q 554 1186 582 1179 q 490 1207 526 1194 q 433 1225 454 1219 q 390 1231 413 1231 q 322 1219 351 1231 q 268 1182 293 1207 l 268 1229 q 390 1271 310 1271 q 449 1264 421 1271 q 513 1243 476 1256 q 569 1225 549 1231 q 613 1219 590 1219 q 681 1231 651 1219 q 735 1268 710 1243 l 735 1221 q 613 1179 693 1179 z "},"Æ":{"ha":1364,"x_min":33,"x_max":1289,"o":"m 751 46 l 1289 46 l 1289 0 l 707 0 l 676 367 l 242 367 l 85 0 l 33 0 l 478 1028 l 1282 1028 l 1282 982 l 671 982 l 708 551 l 1213 551 l 1213 506 l 712 506 l 751 46 m 262 413 l 672 413 l 625 982 l 507 982 l 262 413 z "},"Ǽ":{"ha":1364,"x_min":33,"x_max":1289,"o":"m 751 46 l 1289 46 l 1289 0 l 707 0 l 676 367 l 242 367 l 85 0 l 33 0 l 478 1028 l 1282 1028 l 1282 982 l 671 982 l 708 551 l 1213 551 l 1213 506 l 712 506 l 751 46 m 262 413 l 672 413 l 625 982 l 507 982 l 262 413 m 621 1122 l 775 1311 l 835 1311 l 671 1122 l 621 1122 z "},"B":{"ha":932,"x_min":150,"x_max":868,"o":"m 640 531 q 813 445 757 511 q 868 278 868 378 q 823 120 868 183 q 678 25 778 57 q 418 -7 579 -7 q 288 -3 347 -7 q 150 11 229 1 l 150 1010 q 291 1031 225 1025 q 443 1038 356 1038 q 743 971 649 1038 q 838 768 838 904 q 790 614 838 675 q 640 531 742 553 m 444 992 q 308 987 365 992 q 197 972 250 982 l 197 551 l 486 551 q 715 603 640 551 q 790 768 790 655 q 755 898 790 849 q 644 969 719 947 q 444 992 569 992 m 419 39 q 658 66 571 39 q 783 145 746 92 q 819 281 819 197 q 740 451 819 397 q 496 506 661 506 l 197 506 l 197 54 q 300 42 248 46 q 419 39 351 39 z "},"C":{"ha":883,"x_min":96,"x_max":846,"o":"m 572 -12 q 223 111 351 -12 q 96 513 96 235 q 225 911 96 781 q 585 1040 353 1040 q 719 1031 657 1040 q 846 1003 781 1022 l 846 956 q 583 994 716 994 q 258 880 371 994 q 146 515 146 765 q 258 145 146 256 q 574 33 369 33 q 708 44 645 33 q 846 81 772 54 l 846 33 q 715 -1 782 10 q 572 -12 649 -12 z "},"Ć":{"ha":883,"x_min":96,"x_max":846,"o":"m 572 -12 q 223 111 351 -12 q 96 513 96 235 q 225 911 96 781 q 585 1040 353 1040 q 719 1031 657 1040 q 846 1003 781 1022 l 846 956 q 583 994 716 994 q 258 880 371 994 q 146 515 146 765 q 258 145 146 256 q 574 33 369 33 q 708 44 645 33 q 846 81 772 54 l 846 33 q 715 -1 782 10 q 572 -12 649 -12 m 503 1122 l 657 1311 l 717 1311 l 553 1122 l 503 1122 z "},"Č":{"ha":883,"x_min":96,"x_max":846,"o":"m 572 -12 q 223 111 351 -12 q 96 513 96 235 q 225 911 96 781 q 585 1040 353 1040 q 719 1031 657 1040 q 846 1003 781 1022 l 846 956 q 583 994 716 994 q 258 880 371 994 q 146 515 146 765 q 258 145 146 256 q 574 33 369 33 q 708 44 645 33 q 846 81 772 54 l 846 33 q 715 -1 782 10 q 572 -12 649 -12 m 688 1311 l 751 1311 l 554 1122 l 501 1122 l 304 1311 l 368 1311 l 528 1154 l 688 1311 z "},"Ç":{"ha":883,"x_min":96,"x_max":846,"o":"m 583 994 q 258 880 371 994 q 146 515 146 765 q 258 145 146 256 q 574 33 369 33 q 708 44 645 33 q 846 81 772 54 l 846 33 q 715 -1 782 10 q 572 -12 649 -12 l 561 -12 l 561 -78 q 658 -105 623 -79 q 693 -178 693 -130 q 655 -253 693 -228 q 550 -278 617 -278 q 477 -270 515 -278 q 410 -250 439 -263 l 410 -211 q 483 -235 449 -228 q 550 -242 516 -242 q 654 -178 654 -242 q 549 -114 654 -114 l 522 -114 l 522 -11 q 209 126 323 1 q 96 513 96 251 q 225 911 96 781 q 585 1040 353 1040 q 719 1031 657 1040 q 846 1003 781 1022 l 846 956 q 583 994 716 994 z "},"Ḉ":{"ha":883,"x_min":96,"x_max":846,"o":"m 717 1311 l 553 1122 l 503 1122 l 657 1311 l 717 1311 m 583 994 q 258 880 371 994 q 146 515 146 765 q 258 145 146 256 q 574 33 369 33 q 708 44 645 33 q 846 81 772 54 l 846 33 q 715 -1 782 10 q 572 -12 649 -12 l 561 -12 l 561 -78 q 658 -105 623 -79 q 693 -178 693 -130 q 655 -253 693 -228 q 550 -278 617 -278 q 477 -270 515 -278 q 410 -250 439 -263 l 410 -211 q 483 -235 449 -228 q 550 -242 516 -242 q 654 -178 654 -242 q 549 -114 654 -114 l 522 -114 l 522 -11 q 209 126 323 1 q 96 513 96 251 q 225 911 96 781 q 585 1040 353 1040 q 719 1031 657 1040 q 846 1003 781 1022 l 846 956 q 583 994 716 994 z "},"Ĉ":{"ha":883,"x_min":96,"x_max":846,"o":"m 572 -12 q 223 111 351 -12 q 96 513 96 235 q 225 911 96 781 q 585 1040 353 1040 q 719 1031 657 1040 q 846 1003 781 1022 l 846 956 q 583 994 716 994 q 258 880 371 994 q 146 515 146 765 q 258 145 146 256 q 574 33 369 33 q 708 44 645 33 q 846 81 772 54 l 846 33 q 715 -1 782 10 q 572 -12 649 -12 m 751 1122 l 688 1122 l 528 1279 l 368 1122 l 304 1122 l 501 1311 l 554 1311 l 751 1122 z "},"Ċ":{"ha":883,"x_min":96,"x_max":846,"o":"m 572 -12 q 223 111 351 -12 q 96 513 96 235 q 225 911 96 781 q 585 1040 353 1040 q 719 1031 657 1040 q 846 1003 781 1022 l 846 956 q 583 994 716 994 q 258 880 371 994 q 146 515 146 765 q 258 145 146 256 q 574 33 369 33 q 708 44 645 33 q 846 81 772 54 l 846 33 q 715 -1 782 10 q 572 -12 649 -12 m 528 1174 q 497 1185 509 1174 q 485 1217 485 1197 q 497 1249 485 1236 q 528 1261 509 1261 q 559 1249 547 1261 q 571 1217 571 1236 q 559 1185 571 1197 q 528 1174 547 1174 z "},"D":{"ha":1063,"x_min":150,"x_max":967,"o":"m 418 -7 q 288 -3 347 -7 q 150 11 229 1 l 150 1010 q 428 1038 283 1038 q 830 906 694 1038 q 967 514 967 774 q 829 123 967 253 q 418 -7 691 -7 m 419 39 q 793 155 669 39 q 917 514 917 272 q 793 874 917 756 q 424 992 670 992 q 197 972 325 992 l 197 54 q 419 39 291 39 z "},"Ǳ":{"ha":1894,"x_min":150,"x_max":1846,"o":"m 418 -7 q 288 -3 347 -7 q 150 11 229 1 l 150 1010 q 428 1038 283 1038 q 830 906 694 1038 q 967 514 967 774 q 829 123 967 253 q 418 -7 691 -7 m 419 39 q 793 155 669 39 q 917 514 917 272 q 793 874 917 756 q 424 992 670 992 q 197 972 325 992 l 197 54 q 419 39 291 39 m 1140 44 l 1846 44 l 1846 0 l 1071 0 l 1071 28 l 1767 983 l 1081 983 l 1081 1028 l 1836 1028 l 1836 1000 l 1140 44 z "},"Ǆ":{"ha":1894,"x_min":150,"x_max":1846,"o":"m 418 -7 q 288 -3 347 -7 q 150 11 229 1 l 150 1010 q 428 1038 283 1038 q 830 906 694 1038 q 967 514 967 774 q 829 123 967 253 q 418 -7 691 -7 m 419 39 q 793 155 669 39 q 917 514 917 272 q 793 874 917 756 q 424 992 670 992 q 197 972 325 992 l 197 54 q 419 39 291 39 m 1140 44 l 1846 44 l 1846 0 l 1071 0 l 1071 28 l 1767 983 l 1081 983 l 1081 1028 l 1836 1028 l 1836 1000 l 1140 44 m 1618 1311 l 1682 1311 l 1485 1122 l 1432 1122 l 1235 1311 l 1299 1311 l 1458 1154 l 1618 1311 z "},"Ð":{"ha":1063,"x_min":6,"x_max":967,"o":"m 428 1038 q 830 906 694 1038 q 967 514 967 774 q 829 123 967 253 q 418 -7 691 -7 q 288 -3 347 -7 q 150 11 229 1 l 150 508 l 6 508 l 6 550 l 150 550 l 150 1010 q 428 1038 283 1038 m 419 39 q 793 155 669 39 q 917 514 917 272 q 793 874 917 756 q 424 992 670 992 q 197 972 325 992 l 197 550 l 494 550 l 494 508 l 197 508 l 197 54 q 419 39 291 39 z "},"Ď":{"ha":1063,"x_min":150,"x_max":967,"o":"m 418 -7 q 288 -3 347 -7 q 150 11 229 1 l 150 1010 q 428 1038 283 1038 q 830 906 694 1038 q 967 514 967 774 q 829 123 967 253 q 418 -7 691 -7 m 419 39 q 793 155 669 39 q 917 514 917 272 q 793 874 917 756 q 424 992 670 992 q 197 972 325 992 l 197 54 q 419 39 291 39 m 650 1311 l 714 1311 l 517 1122 l 464 1122 l 267 1311 l 331 1311 l 490 1154 l 650 1311 z "},"Đ":{"ha":1063,"x_min":6,"x_max":967,"o":"m 428 1038 q 830 906 694 1038 q 967 514 967 774 q 829 123 967 253 q 418 -7 691 -7 q 288 -3 347 -7 q 150 11 229 1 l 150 508 l 6 508 l 6 550 l 150 550 l 150 1010 q 428 1038 283 1038 m 419 39 q 793 155 669 39 q 917 514 917 272 q 793 874 917 756 q 424 992 670 992 q 197 972 325 992 l 197 550 l 494 550 l 494 508 l 197 508 l 197 54 q 419 39 291 39 z "},"Ḍ":{"ha":1063,"x_min":150,"x_max":967,"o":"m 418 -7 q 288 -3 347 -7 q 150 11 229 1 l 150 1010 q 428 1038 283 1038 q 830 906 694 1038 q 967 514 967 774 q 829 123 967 253 q 418 -7 691 -7 m 419 39 q 793 155 669 39 q 917 514 917 272 q 793 874 917 756 q 424 992 670 992 q 197 972 325 992 l 197 54 q 419 39 291 39 m 490 -215 q 459 -203 472 -215 q 447 -172 447 -192 q 459 -140 447 -153 q 490 -128 472 -128 q 521 -140 509 -128 q 533 -172 533 -153 q 521 -203 533 -192 q 490 -215 509 -215 z "},"Ḏ":{"ha":1063,"x_min":150,"x_max":967,"o":"m 418 -7 q 288 -3 347 -7 q 150 11 229 1 l 150 1010 q 428 1038 283 1038 q 830 906 694 1038 q 967 514 967 774 q 829 123 967 253 q 418 -7 691 -7 m 419 39 q 793 155 669 39 q 917 514 917 272 q 793 874 917 756 q 424 992 670 992 q 197 972 325 992 l 197 54 q 419 39 291 39 m 282 -194 l 282 -153 l 699 -153 l 699 -194 l 282 -194 z "},"ǲ":{"ha":1749,"x_min":150,"x_max":1704,"o":"m 418 -7 q 288 -3 347 -7 q 150 11 229 1 l 150 1010 q 428 1038 283 1038 q 830 906 694 1038 q 967 514 967 774 q 829 123 967 253 q 418 -7 691 -7 m 419 39 q 793 155 669 39 q 917 514 917 272 q 793 874 917 756 q 424 992 670 992 q 197 972 325 992 l 197 54 q 419 39 291 39 m 1179 44 l 1704 44 l 1704 0 l 1110 0 l 1110 28 l 1625 706 l 1119 706 l 1119 750 l 1694 750 l 1694 722 l 1179 44 z "},"ǅ":{"ha":1749,"x_min":150,"x_max":1704,"o":"m 418 -7 q 288 -3 347 -7 q 150 11 229 1 l 150 1010 q 428 1038 283 1038 q 830 906 694 1038 q 967 514 967 774 q 829 123 967 253 q 418 -7 691 -7 m 419 39 q 793 155 669 39 q 917 514 917 272 q 793 874 917 756 q 424 992 670 992 q 197 972 325 992 l 197 54 q 419 39 291 39 m 1179 44 l 1704 44 l 1704 0 l 1110 0 l 1110 28 l 1625 706 l 1119 706 l 1119 750 l 1694 750 l 1694 722 l 1179 44 m 1567 1089 l 1631 1089 l 1433 900 l 1381 900 l 1183 1089 l 1247 1089 l 1407 932 l 1567 1089 z "},"E":{"ha":892,"x_min":150,"x_max":817,"o":"m 197 46 l 817 46 l 817 0 l 150 0 l 150 1028 l 810 1028 l 810 982 l 197 982 l 197 551 l 740 551 l 740 506 l 197 506 l 197 46 z "},"É":{"ha":892,"x_min":150,"x_max":817,"o":"m 197 46 l 817 46 l 817 0 l 150 0 l 150 1028 l 810 1028 l 810 982 l 197 982 l 197 551 l 740 551 l 740 506 l 197 506 l 197 46 m 469 1122 l 624 1311 l 683 1311 l 519 1122 l 469 1122 z "},"Ĕ":{"ha":892,"x_min":150,"x_max":817,"o":"m 197 46 l 817 46 l 817 0 l 150 0 l 150 1028 l 810 1028 l 810 982 l 197 982 l 197 551 l 740 551 l 740 506 l 197 506 l 197 46 m 496 1131 q 335 1175 391 1131 q 271 1292 278 1220 l 313 1292 q 364 1203 322 1234 q 496 1172 406 1172 q 626 1203 585 1172 q 676 1292 667 1234 l 718 1292 q 656 1175 710 1219 q 496 1131 601 1131 z "},"Ě":{"ha":892,"x_min":150,"x_max":817,"o":"m 197 46 l 817 46 l 817 0 l 150 0 l 150 1028 l 810 1028 l 810 982 l 197 982 l 197 551 l 740 551 l 740 506 l 197 506 l 197 46 m 654 1311 l 718 1311 l 521 1122 l 468 1122 l 271 1311 l 335 1311 l 494 1154 l 654 1311 z "},"Ḝ":{"ha":892,"x_min":150,"x_max":817,"o":"m 496 1131 q 335 1175 391 1131 q 271 1292 278 1220 l 313 1292 q 364 1203 322 1234 q 496 1172 406 1172 q 626 1203 585 1172 q 676 1292 667 1234 l 718 1292 q 656 1175 710 1219 q 496 1131 601 1131 m 517 0 l 517 -78 q 614 -105 578 -79 q 649 -178 649 -130 q 611 -253 649 -228 q 506 -278 573 -278 q 432 -270 470 -278 q 365 -250 394 -263 l 365 -211 q 438 -235 405 -228 q 506 -242 472 -242 q 610 -178 610 -242 q 504 -114 610 -114 l 478 -114 l 478 0 l 150 0 l 150 1028 l 810 1028 l 810 982 l 197 982 l 197 551 l 740 551 l 740 506 l 197 506 l 197 46 l 817 46 l 817 0 l 517 0 z "},"Ê":{"ha":892,"x_min":150,"x_max":817,"o":"m 197 46 l 817 46 l 817 0 l 150 0 l 150 1028 l 810 1028 l 810 982 l 197 982 l 197 551 l 740 551 l 740 506 l 197 506 l 197 46 m 718 1122 l 654 1122 l 494 1279 l 335 1122 l 271 1122 l 468 1311 l 521 1311 l 718 1122 z "},"Ế":{"ha":892,"x_min":150,"x_max":882,"o":"m 197 46 l 817 46 l 817 0 l 150 0 l 150 1028 l 810 1028 l 810 982 l 197 982 l 197 551 l 740 551 l 740 506 l 197 506 l 197 46 m 822 1433 l 882 1433 l 718 1244 l 668 1244 l 822 1433 m 468 1311 l 521 1311 l 718 1122 l 654 1122 l 494 1279 l 335 1122 l 271 1122 l 468 1311 z "},"Ệ":{"ha":892,"x_min":150,"x_max":817,"o":"m 197 46 l 817 46 l 817 0 l 150 0 l 150 1028 l 810 1028 l 810 982 l 197 982 l 197 551 l 740 551 l 740 506 l 197 506 l 197 46 m 497 -215 q 466 -203 478 -215 q 454 -172 454 -192 q 466 -140 454 -153 q 497 -128 478 -128 q 528 -140 516 -128 q 540 -172 540 -153 q 528 -203 540 -192 q 497 -215 516 -215 m 718 1122 l 654 1122 l 494 1279 l 335 1122 l 271 1122 l 468 1311 l 521 1311 l 718 1122 z "},"Ề":{"ha":892,"x_min":150,"x_max":817,"o":"m 197 46 l 817 46 l 817 0 l 150 0 l 150 1028 l 810 1028 l 810 982 l 197 982 l 197 551 l 740 551 l 740 506 l 197 506 l 197 46 m 732 1244 l 682 1244 l 518 1433 l 578 1433 l 732 1244 m 468 1311 l 521 1311 l 718 1122 l 654 1122 l 494 1279 l 335 1122 l 271 1122 l 468 1311 z "},"Ể":{"ha":892,"x_min":150,"x_max":838,"o":"m 197 46 l 817 46 l 817 0 l 150 0 l 150 1028 l 810 1028 l 810 982 l 197 982 l 197 551 l 740 551 l 740 506 l 197 506 l 197 46 m 707 1433 q 806 1413 774 1433 q 838 1358 838 1392 q 820 1318 838 1331 q 772 1292 803 1304 q 731 1272 745 1282 q 715 1244 717 1263 l 669 1244 q 681 1278 670 1265 q 706 1299 692 1291 q 744 1316 720 1306 q 784 1335 772 1326 q 797 1358 797 1344 q 777 1386 797 1376 q 707 1396 757 1396 q 631 1390 664 1396 q 557 1371 599 1385 l 557 1408 q 707 1433 621 1433 m 468 1311 l 521 1311 l 718 1122 l 654 1122 l 494 1279 l 335 1122 l 271 1122 l 468 1311 z "},"Ễ":{"ha":892,"x_min":150,"x_max":817,"o":"m 197 46 l 817 46 l 817 0 l 150 0 l 150 1028 l 810 1028 l 810 982 l 197 982 l 197 551 l 740 551 l 740 506 l 197 506 l 197 46 m 600 1383 q 664 1395 635 1383 q 718 1432 693 1407 l 718 1385 q 600 1343 676 1343 q 547 1350 572 1343 q 482 1371 521 1357 q 431 1388 453 1382 q 389 1394 409 1394 q 325 1383 353 1394 q 271 1346 296 1371 l 271 1393 q 389 1435 313 1435 q 442 1428 417 1435 q 507 1407 468 1421 q 558 1390 536 1396 q 600 1383 580 1383 m 468 1311 l 521 1311 l 718 1122 l 654 1122 l 494 1279 l 335 1122 l 271 1122 l 468 1311 z "},"Ȅ":{"ha":892,"x_min":150,"x_max":817,"o":"m 197 46 l 817 46 l 817 0 l 150 0 l 150 1028 l 810 1028 l 810 982 l 197 982 l 197 551 l 740 551 l 740 506 l 197 506 l 197 46 m 354 1122 l 240 1311 l 290 1311 l 401 1122 l 354 1122 m 588 1122 l 474 1311 l 524 1311 l 635 1122 l 588 1122 z "},"Ë":{"ha":892,"x_min":150,"x_max":817,"o":"m 197 46 l 817 46 l 817 0 l 150 0 l 150 1028 l 810 1028 l 810 982 l 197 982 l 197 551 l 740 551 l 740 506 l 197 506 l 197 46 m 314 1174 q 283 1185 295 1174 q 271 1217 271 1197 q 283 1249 271 1236 q 314 1261 295 1261 q 345 1249 333 1261 q 357 1217 357 1236 q 345 1185 357 1197 q 314 1174 333 1174 m 675 1174 q 644 1185 656 1174 q 632 1217 632 1197 q 644 1249 632 1236 q 675 1261 656 1261 q 706 1249 694 1261 q 718 1217 718 1236 q 706 1185 718 1197 q 675 1174 694 1174 z "},"Ė":{"ha":892,"x_min":150,"x_max":817,"o":"m 197 46 l 817 46 l 817 0 l 150 0 l 150 1028 l 810 1028 l 810 982 l 197 982 l 197 551 l 740 551 l 740 506 l 197 506 l 197 46 m 494 1174 q 464 1185 476 1174 q 451 1217 451 1197 q 464 1249 451 1236 q 494 1261 476 1261 q 525 1249 513 1261 q 538 1217 538 1236 q 525 1185 538 1197 q 494 1174 513 1174 z "},"Ẹ":{"ha":892,"x_min":150,"x_max":817,"o":"m 197 46 l 817 46 l 817 0 l 150 0 l 150 1028 l 810 1028 l 810 982 l 197 982 l 197 551 l 740 551 l 740 506 l 197 506 l 197 46 m 497 -215 q 466 -203 478 -215 q 454 -172 454 -192 q 466 -140 454 -153 q 497 -128 478 -128 q 528 -140 516 -128 q 540 -172 540 -153 q 528 -203 540 -192 q 497 -215 516 -215 z "},"È":{"ha":892,"x_min":150,"x_max":817,"o":"m 197 46 l 817 46 l 817 0 l 150 0 l 150 1028 l 810 1028 l 810 982 l 197 982 l 197 551 l 740 551 l 740 506 l 197 506 l 197 46 m 469 1122 l 306 1311 l 365 1311 l 519 1122 l 469 1122 z "},"Ẻ":{"ha":892,"x_min":150,"x_max":817,"o":"m 197 46 l 817 46 l 817 0 l 150 0 l 150 1028 l 810 1028 l 810 982 l 197 982 l 197 551 l 740 551 l 740 506 l 197 506 l 197 46 m 471 1122 q 482 1156 472 1142 q 507 1176 493 1169 q 546 1194 522 1184 q 586 1213 573 1203 q 599 1236 599 1222 q 578 1264 599 1254 q 508 1274 558 1274 q 433 1268 465 1274 q 358 1249 400 1263 l 358 1286 q 508 1311 422 1311 q 607 1291 575 1311 q 639 1236 639 1270 q 622 1195 639 1209 q 573 1169 605 1182 q 533 1150 547 1160 q 517 1122 519 1140 l 471 1122 z "},"Ȇ":{"ha":892,"x_min":150,"x_max":817,"o":"m 197 46 l 817 46 l 817 0 l 150 0 l 150 1028 l 810 1028 l 810 982 l 197 982 l 197 551 l 740 551 l 740 506 l 197 506 l 197 46 m 271 1142 q 333 1259 278 1215 q 493 1303 388 1303 q 654 1258 598 1303 q 718 1142 710 1213 l 676 1142 q 625 1230 667 1199 q 493 1261 583 1261 q 363 1230 403 1261 q 313 1142 322 1199 l 271 1142 z "},"Ē":{"ha":892,"x_min":150,"x_max":817,"o":"m 197 46 l 817 46 l 817 0 l 150 0 l 150 1028 l 810 1028 l 810 982 l 197 982 l 197 551 l 740 551 l 740 506 l 197 506 l 197 46 m 286 1196 l 286 1238 l 703 1238 l 703 1196 l 286 1196 z "},"Ḗ":{"ha":892,"x_min":150,"x_max":817,"o":"m 197 46 l 817 46 l 817 0 l 150 0 l 150 1028 l 810 1028 l 810 982 l 197 982 l 197 551 l 740 551 l 740 506 l 197 506 l 197 46 m 469 1308 l 622 1469 l 683 1469 l 521 1308 l 469 1308 m 286 1196 l 286 1238 l 703 1238 l 703 1196 l 286 1196 z "},"Ḕ":{"ha":892,"x_min":150,"x_max":817,"o":"m 197 46 l 817 46 l 817 0 l 150 0 l 150 1028 l 810 1028 l 810 982 l 197 982 l 197 551 l 740 551 l 740 506 l 197 506 l 197 46 m 469 1308 l 306 1469 l 365 1469 l 519 1308 l 469 1308 m 286 1196 l 286 1238 l 703 1238 l 703 1196 l 286 1196 z "},"Ę":{"ha":892,"x_min":150,"x_max":857,"o":"m 724 -242 q 784 -235 754 -242 q 857 -212 814 -228 l 857 -250 q 726 -278 791 -278 q 613 -247 653 -278 q 574 -160 574 -215 q 599 -75 574 -114 q 682 0 624 -36 l 150 0 l 150 1028 l 810 1028 l 810 982 l 197 982 l 197 551 l 740 551 l 740 506 l 197 506 l 197 46 l 817 46 l 817 0 l 761 0 q 645 -77 677 -40 q 613 -158 613 -114 q 641 -220 613 -198 q 724 -242 669 -242 z "},"Ẽ":{"ha":892,"x_min":150,"x_max":817,"o":"m 197 46 l 817 46 l 817 0 l 150 0 l 150 1028 l 810 1028 l 810 982 l 197 982 l 197 551 l 740 551 l 740 506 l 197 506 l 197 46 m 606 1179 q 547 1186 575 1179 q 483 1207 519 1194 q 426 1225 447 1219 q 383 1231 406 1231 q 315 1219 344 1231 q 261 1182 286 1207 l 261 1229 q 383 1271 303 1271 q 442 1264 414 1271 q 506 1243 469 1256 q 563 1225 542 1231 q 606 1219 583 1219 q 674 1231 644 1219 q 728 1268 703 1243 l 728 1221 q 606 1179 686 1179 z "},"F":{"ha":860,"x_min":150,"x_max":803,"o":"m 803 982 l 197 982 l 197 551 l 733 551 l 733 506 l 197 506 l 197 0 l 150 0 l 150 1028 l 803 1028 l 803 982 z "},"G":{"ha":1039,"x_min":96,"x_max":899,"o":"m 899 500 l 899 14 q 766 -2 824 2 q 640 -7 708 -7 q 234 125 372 -7 q 96 516 96 256 q 162 812 96 694 q 342 985 228 929 q 604 1040 456 1040 q 734 1031 671 1040 q 871 1003 797 1022 l 871 956 q 731 986 793 977 q 607 994 668 994 q 367 945 471 994 q 205 790 264 896 q 146 519 146 683 q 640 39 146 39 q 851 56 764 39 l 851 500 l 899 500 z "},"Ǵ":{"ha":1039,"x_min":96,"x_max":899,"o":"m 899 500 l 899 14 q 766 -2 824 2 q 640 -7 708 -7 q 234 125 372 -7 q 96 516 96 256 q 162 812 96 694 q 342 985 228 929 q 604 1040 456 1040 q 734 1031 671 1040 q 871 1003 797 1022 l 871 956 q 731 986 793 977 q 607 994 668 994 q 367 945 471 994 q 205 790 264 896 q 146 519 146 683 q 640 39 146 39 q 851 56 764 39 l 851 500 l 899 500 m 531 1122 l 685 1311 l 744 1311 l 581 1122 l 531 1122 z "},"Ğ":{"ha":1039,"x_min":96,"x_max":899,"o":"m 899 500 l 899 14 q 766 -2 824 2 q 640 -7 708 -7 q 234 125 372 -7 q 96 516 96 256 q 162 812 96 694 q 342 985 228 929 q 604 1040 456 1040 q 734 1031 671 1040 q 871 1003 797 1022 l 871 956 q 731 986 793 977 q 607 994 668 994 q 367 945 471 994 q 205 790 264 896 q 146 519 146 683 q 640 39 146 39 q 851 56 764 39 l 851 500 l 899 500 m 557 1131 q 396 1175 452 1131 q 332 1292 340 1220 l 374 1292 q 425 1203 383 1234 q 557 1172 467 1172 q 688 1203 647 1172 q 738 1292 728 1234 l 779 1292 q 717 1175 772 1219 q 557 1131 662 1131 z "},"Ǧ":{"ha":1039,"x_min":96,"x_max":899,"o":"m 899 500 l 899 14 q 766 -2 824 2 q 640 -7 708 -7 q 234 125 372 -7 q 96 516 96 256 q 162 812 96 694 q 342 985 228 929 q 604 1040 456 1040 q 734 1031 671 1040 q 871 1003 797 1022 l 871 956 q 731 986 793 977 q 607 994 668 994 q 367 945 471 994 q 205 790 264 896 q 146 519 146 683 q 640 39 146 39 q 851 56 764 39 l 851 500 l 899 500 m 715 1311 l 779 1311 l 582 1122 l 529 1122 l 332 1311 l 396 1311 l 556 1154 l 715 1311 z "},"Ĝ":{"ha":1039,"x_min":96,"x_max":899,"o":"m 899 500 l 899 14 q 766 -2 824 2 q 640 -7 708 -7 q 234 125 372 -7 q 96 516 96 256 q 162 812 96 694 q 342 985 228 929 q 604 1040 456 1040 q 734 1031 671 1040 q 871 1003 797 1022 l 871 956 q 731 986 793 977 q 607 994 668 994 q 367 945 471 994 q 205 790 264 896 q 146 519 146 683 q 640 39 146 39 q 851 56 764 39 l 851 500 l 899 500 m 779 1122 l 715 1122 l 556 1279 l 396 1122 l 332 1122 l 529 1311 l 582 1311 l 779 1122 z "},"Ģ":{"ha":1039,"x_min":96,"x_max":899,"o":"m 899 500 l 899 14 q 766 -2 824 2 q 640 -7 708 -7 q 234 125 372 -7 q 96 516 96 256 q 162 812 96 694 q 342 985 228 929 q 604 1040 456 1040 q 734 1031 671 1040 q 871 1003 797 1022 l 871 956 q 731 986 793 977 q 607 994 668 994 q 367 945 471 994 q 205 790 264 896 q 146 519 146 683 q 640 39 146 39 q 851 56 764 39 l 851 500 l 899 500 m 553 -128 q 586 -143 574 -128 q 599 -187 599 -158 q 591 -247 599 -214 q 568 -311 583 -281 l 538 -311 q 560 -215 557 -262 l 556 -215 q 525 -203 537 -215 q 513 -171 513 -190 q 524 -140 513 -152 q 553 -128 535 -128 z "},"Ġ":{"ha":1039,"x_min":96,"x_max":899,"o":"m 899 500 l 899 14 q 766 -2 824 2 q 640 -7 708 -7 q 234 125 372 -7 q 96 516 96 256 q 162 812 96 694 q 342 985 228 929 q 604 1040 456 1040 q 734 1031 671 1040 q 871 1003 797 1022 l 871 956 q 731 986 793 977 q 607 994 668 994 q 367 945 471 994 q 205 790 264 896 q 146 519 146 683 q 640 39 146 39 q 851 56 764 39 l 851 500 l 899 500 m 556 1174 q 525 1185 537 1174 q 513 1217 513 1197 q 525 1249 513 1236 q 556 1261 537 1261 q 586 1249 574 1261 q 599 1217 599 1236 q 586 1185 599 1197 q 556 1174 574 1174 z "},"Ḡ":{"ha":1039,"x_min":96,"x_max":899,"o":"m 899 500 l 899 14 q 766 -2 824 2 q 640 -7 708 -7 q 234 125 372 -7 q 96 516 96 256 q 162 812 96 694 q 342 985 228 929 q 604 1040 456 1040 q 734 1031 671 1040 q 871 1003 797 1022 l 871 956 q 731 986 793 977 q 607 994 668 994 q 367 945 471 994 q 205 790 264 896 q 146 519 146 683 q 640 39 146 39 q 851 56 764 39 l 851 500 l 899 500 m 347 1196 l 347 1238 l 764 1238 l 764 1196 l 347 1196 z "},"H":{"ha":1094,"x_min":150,"x_max":944,"o":"m 150 0 l 150 1028 l 197 1028 l 197 551 l 897 551 l 897 1028 l 944 1028 l 944 0 l 897 0 l 897 506 l 197 506 l 197 0 l 150 0 z "},"Ħ":{"ha":1094,"x_min":6,"x_max":1089,"o":"m 1089 813 l 1089 771 l 944 771 l 944 0 l 897 0 l 897 506 l 197 506 l 197 0 l 150 0 l 150 771 l 6 771 l 6 813 l 150 813 l 150 1028 l 197 1028 l 197 813 l 897 813 l 897 1028 l 944 1028 l 944 813 l 1089 813 m 897 551 l 897 771 l 197 771 l 197 551 l 897 551 z "},"Ḫ":{"ha":1094,"x_min":150,"x_max":944,"o":"m 150 0 l 150 1028 l 197 1028 l 197 551 l 897 551 l 897 1028 l 944 1028 l 944 0 l 897 0 l 897 506 l 197 506 l 197 0 l 150 0 m 549 -278 q 424 -256 474 -278 q 349 -196 374 -234 q 324 -111 324 -158 l 365 -111 q 412 -203 369 -170 q 549 -236 455 -236 q 684 -203 642 -236 q 729 -111 726 -171 l 771 -111 q 714 -232 769 -185 q 549 -278 659 -278 z "},"Ĥ":{"ha":1094,"x_min":150,"x_max":944,"o":"m 150 0 l 150 1028 l 197 1028 l 197 551 l 897 551 l 897 1028 l 944 1028 l 944 0 l 897 0 l 897 506 l 197 506 l 197 0 l 150 0 m 771 1122 l 707 1122 l 547 1279 l 388 1122 l 324 1122 l 521 1311 l 574 1311 l 771 1122 z "},"Ḥ":{"ha":1094,"x_min":150,"x_max":944,"o":"m 150 0 l 150 1028 l 197 1028 l 197 551 l 897 551 l 897 1028 l 944 1028 l 944 0 l 897 0 l 897 506 l 197 506 l 197 0 l 150 0 m 547 -215 q 516 -203 528 -215 q 504 -172 504 -192 q 516 -140 504 -153 q 547 -128 528 -128 q 578 -140 566 -128 q 590 -172 590 -153 q 578 -203 590 -192 q 547 -215 566 -215 z "},"I":{"ha":347,"x_min":150,"x_max":197,"o":"m 150 0 l 150 1028 l 197 1028 l 197 0 l 150 0 z "},"Í":{"ha":347,"x_min":149,"x_max":363,"o":"m 150 0 l 150 1028 l 197 1028 l 197 0 l 150 0 m 149 1122 l 303 1311 l 363 1311 l 199 1122 l 149 1122 z "},"Ĭ":{"ha":347,"x_min":-50,"x_max":397,"o":"m 150 0 l 150 1028 l 197 1028 l 197 0 l 150 0 m 175 1131 q 14 1175 70 1131 q -50 1292 -42 1220 l -8 1292 q 43 1203 1 1234 q 175 1172 85 1172 q 306 1203 265 1172 q 356 1292 347 1234 l 397 1292 q 335 1175 390 1219 q 175 1131 280 1131 z "},"Î":{"ha":347,"x_min":-50,"x_max":397,"o":"m 150 0 l 150 1028 l 197 1028 l 197 0 l 150 0 m 397 1122 l 333 1122 l 174 1279 l 14 1122 l -50 1122 l 147 1311 l 200 1311 l 397 1122 z "},"Ȉ":{"ha":347,"x_min":-81,"x_max":314,"o":"m 150 0 l 150 1028 l 197 1028 l 197 0 l 150 0 m 33 1122 l -81 1311 l -31 1311 l 81 1122 l 33 1122 m 267 1122 l 153 1311 l 203 1311 l 314 1122 l 267 1122 z "},"Ï":{"ha":347,"x_min":-50,"x_max":397,"o":"m 150 0 l 150 1028 l 197 1028 l 197 0 l 150 0 m -7 1174 q -38 1185 -26 1174 q -50 1217 -50 1197 q -38 1249 -50 1236 q -7 1261 -26 1261 q 24 1249 12 1261 q 36 1217 36 1236 q 24 1185 36 1197 q -7 1174 12 1174 m 354 1174 q 323 1185 335 1174 q 311 1217 311 1197 q 323 1249 311 1236 q 354 1261 335 1261 q 385 1249 373 1261 q 397 1217 397 1236 q 385 1185 397 1197 q 354 1174 373 1174 z "},"Ḯ":{"ha":347,"x_min":-50,"x_max":397,"o":"m 150 0 l 150 1028 l 197 1028 l 197 0 l 150 0 m 149 1308 l 301 1469 l 363 1469 l 200 1308 l 149 1308 m -7 1174 q -38 1185 -26 1174 q -50 1217 -50 1197 q -38 1249 -50 1236 q -7 1261 -26 1261 q 24 1249 12 1261 q 36 1217 36 1236 q 24 1185 36 1197 q -7 1174 12 1174 m 354 1174 q 323 1185 335 1174 q 311 1217 311 1197 q 323 1249 311 1236 q 354 1261 335 1261 q 385 1249 373 1261 q 397 1217 397 1236 q 385 1185 397 1197 q 354 1174 373 1174 z "},"İ":{"ha":347,"x_min":131,"x_max":217,"o":"m 150 0 l 150 1028 l 197 1028 l 197 0 l 150 0 m 174 1174 q 143 1185 155 1174 q 131 1217 131 1197 q 143 1249 131 1236 q 174 1261 155 1261 q 205 1249 192 1261 q 217 1217 217 1236 q 205 1185 217 1197 q 174 1174 192 1174 z "},"Ị":{"ha":347,"x_min":131,"x_max":217,"o":"m 150 0 l 150 1028 l 197 1028 l 197 0 l 150 0 m 174 -215 q 143 -203 155 -215 q 131 -172 131 -192 q 143 -140 131 -153 q 174 -128 155 -128 q 205 -140 192 -128 q 217 -172 217 -153 q 205 -203 217 -192 q 174 -215 192 -215 z "},"Ì":{"ha":347,"x_min":-15,"x_max":199,"o":"m 150 0 l 150 1028 l 197 1028 l 197 0 l 150 0 m 149 1122 l -15 1311 l 44 1311 l 199 1122 l 149 1122 z "},"Ỉ":{"ha":347,"x_min":38,"x_max":318,"o":"m 150 0 l 150 1028 l 197 1028 l 197 0 l 150 0 m 150 1122 q 161 1156 151 1142 q 186 1176 172 1169 q 225 1194 201 1184 q 265 1213 252 1203 q 278 1236 278 1222 q 258 1264 278 1254 q 188 1274 238 1274 q 112 1268 144 1274 q 38 1249 79 1263 l 38 1286 q 188 1311 101 1311 q 286 1291 254 1311 q 318 1236 318 1270 q 301 1195 318 1209 q 252 1169 284 1182 q 212 1150 226 1160 q 196 1122 198 1140 l 150 1122 z "},"Ȋ":{"ha":347,"x_min":-50,"x_max":397,"o":"m 150 0 l 150 1028 l 197 1028 l 197 0 l 150 0 m -50 1142 q 13 1259 -42 1215 q 172 1303 67 1303 q 333 1258 277 1303 q 397 1142 390 1213 l 356 1142 q 304 1230 347 1199 q 172 1261 262 1261 q 42 1230 83 1261 q -8 1142 1 1199 l -50 1142 z "},"Ī":{"ha":347,"x_min":-35,"x_max":382,"o":"m 150 0 l 150 1028 l 197 1028 l 197 0 l 150 0 m -35 1196 l -35 1238 l 382 1238 l 382 1196 l -35 1196 z "},"Į":{"ha":347,"x_min":10,"x_max":293,"o":"m 160 -242 q 220 -235 190 -242 q 293 -212 250 -228 l 293 -250 q 163 -278 227 -278 q 49 -247 89 -278 q 10 -160 10 -215 q 42 -65 10 -108 q 150 18 74 -22 l 150 1028 l 197 1028 l 197 0 q 81 -77 113 -40 q 49 -158 49 -114 q 77 -220 49 -198 q 160 -242 106 -242 z "},"Ĩ":{"ha":347,"x_min":-60,"x_max":407,"o":"m 150 0 l 150 1028 l 197 1028 l 197 0 l 150 0 m 285 1179 q 226 1186 254 1179 q 163 1207 199 1194 q 106 1225 126 1219 q 63 1231 85 1231 q -6 1219 24 1231 q -60 1182 -35 1207 l -60 1229 q 63 1271 -18 1271 q 121 1264 93 1271 q 185 1243 149 1256 q 242 1225 221 1231 q 285 1219 263 1219 q 353 1231 324 1219 q 407 1268 382 1243 l 407 1221 q 285 1179 365 1179 z "},"J":{"ha":347,"x_min":3,"x_max":197,"o":"m 3 -211 q 114 -20 78 -119 q 150 199 150 78 l 150 1028 l 197 1028 l 197 174 q 153 -44 190 51 q 36 -236 117 -139 l 3 -211 z "},"Ĵ":{"ha":347,"x_min":-50,"x_max":397,"o":"m 3 -211 q 114 -20 78 -119 q 150 199 150 78 l 150 1028 l 197 1028 l 197 174 q 153 -44 190 51 q 36 -236 117 -139 l 3 -211 m 397 1122 l 333 1122 l 174 1279 l 14 1122 l -50 1122 l 147 1311 l 200 1311 l 397 1122 z "},"K":{"ha":921,"x_min":150,"x_max":908,"o":"m 847 0 l 417 506 l 197 506 l 197 0 l 150 0 l 150 1028 l 197 1028 l 197 551 l 419 551 l 819 1028 l 879 1028 l 458 529 l 908 0 l 847 0 z "},"Ķ":{"ha":921,"x_min":150,"x_max":908,"o":"m 847 0 l 417 506 l 197 506 l 197 0 l 150 0 l 150 1028 l 197 1028 l 197 551 l 419 551 l 819 1028 l 879 1028 l 458 529 l 908 0 l 847 0 m 467 -128 q 500 -143 488 -128 q 513 -187 513 -158 q 505 -247 513 -214 q 482 -311 497 -281 l 451 -311 q 474 -215 471 -262 l 469 -215 q 439 -203 451 -215 q 426 -171 426 -190 q 438 -140 426 -152 q 467 -128 449 -128 z "},"L":{"ha":808,"x_min":150,"x_max":793,"o":"m 150 0 l 150 1028 l 197 1028 l 197 46 l 793 46 l 793 0 l 150 0 z "},"Ǉ":{"ha":1156,"x_min":150,"x_max":1006,"o":"m 150 0 l 150 1028 l 197 1028 l 197 46 l 793 46 l 793 0 l 150 0 m 811 -211 q 923 -20 887 -119 q 958 199 958 78 l 958 1028 l 1006 1028 l 1006 174 q 962 -44 998 51 q 844 -236 926 -139 l 811 -211 z "},"Ĺ":{"ha":808,"x_min":149,"x_max":793,"o":"m 150 0 l 150 1028 l 197 1028 l 197 46 l 793 46 l 793 0 l 150 0 m 149 1122 l 303 1311 l 363 1311 l 199 1122 l 149 1122 z "},"Ľ":{"ha":808,"x_min":150,"x_max":793,"o":"m 150 0 l 150 1028 l 197 1028 l 197 46 l 793 46 l 793 0 l 150 0 m 511 792 q 521 938 519 858 q 524 1122 524 1018 l 568 1122 q 543 792 568 919 l 511 792 z "},"Ļ":{"ha":808,"x_min":150,"x_max":793,"o":"m 150 0 l 150 1028 l 197 1028 l 197 46 l 793 46 l 793 0 l 150 0 m 469 -128 q 503 -143 491 -128 q 515 -187 515 -158 q 508 -247 515 -214 q 485 -311 500 -281 l 454 -311 q 477 -215 474 -262 l 472 -215 q 441 -203 453 -215 q 429 -171 429 -190 q 441 -140 429 -152 q 469 -128 452 -128 z "},"Ŀ":{"ha":808,"x_min":150,"x_max":793,"o":"m 150 0 l 150 1028 l 197 1028 l 197 46 l 793 46 l 793 0 l 150 0 m 565 493 q 534 505 547 493 q 522 536 522 517 q 534 568 522 556 q 565 581 547 581 q 596 568 584 581 q 608 536 608 556 q 596 505 608 517 q 565 493 584 493 z "},"Ḷ":{"ha":808,"x_min":150,"x_max":793,"o":"m 150 0 l 150 1028 l 197 1028 l 197 46 l 793 46 l 793 0 l 150 0 m 472 -215 q 441 -203 453 -215 q 429 -172 429 -192 q 441 -140 429 -153 q 472 -128 453 -128 q 503 -140 491 -128 q 515 -172 515 -153 q 503 -203 515 -192 q 472 -215 491 -215 z "},"ǈ":{"ha":1128,"x_min":150,"x_max":1011,"o":"m 150 0 l 150 1028 l 197 1028 l 197 46 l 793 46 l 793 0 l 150 0 m 797 -294 q 909 -104 873 -203 q 944 115 944 -5 l 944 750 l 992 750 l 992 118 q 953 -115 992 -10 q 831 -319 915 -219 l 797 -294 m 968 953 q 937 965 949 953 q 925 996 925 976 q 937 1028 925 1015 q 968 1040 949 1040 q 999 1028 987 1040 q 1011 996 1011 1015 q 999 965 1011 976 q 968 953 987 953 z "},"Ḻ":{"ha":808,"x_min":150,"x_max":793,"o":"m 150 0 l 150 1028 l 197 1028 l 197 46 l 793 46 l 793 0 l 150 0 m 264 -194 l 264 -153 l 681 -153 l 681 -194 l 264 -194 z "},"Ł":{"ha":808,"x_min":4,"x_max":793,"o":"m 197 46 l 793 46 l 793 0 l 150 0 l 150 488 l 31 394 l 4 428 l 150 542 l 150 1028 l 197 1028 l 197 578 l 417 750 l 443 717 l 197 524 l 197 46 z "},"M":{"ha":1297,"x_min":153,"x_max":1144,"o":"m 1093 1028 l 1144 1028 l 1144 0 l 1099 0 l 1099 939 l 675 139 l 622 139 l 199 937 l 199 0 l 153 0 l 153 1028 l 204 1028 l 650 182 l 1093 1028 z "},"Ṃ":{"ha":1297,"x_min":153,"x_max":1144,"o":"m 1093 1028 l 1144 1028 l 1144 0 l 1099 0 l 1099 939 l 675 139 l 622 139 l 199 937 l 199 0 l 153 0 l 153 1028 l 204 1028 l 650 182 l 1093 1028 m 649 -215 q 618 -203 630 -215 q 606 -172 606 -192 q 618 -140 606 -153 q 649 -128 630 -128 q 680 -140 667 -128 q 692 -172 692 -153 q 680 -203 692 -192 q 649 -215 667 -215 z "},"N":{"ha":1115,"x_min":150,"x_max":965,"o":"m 919 1028 l 965 1028 l 965 0 l 914 0 l 196 958 l 196 0 l 150 0 l 150 1028 l 201 1028 l 919 69 l 919 1028 z "},"Ǌ":{"ha":1463,"x_min":150,"x_max":1313,"o":"m 919 1028 l 965 1028 l 965 0 l 914 0 l 196 958 l 196 0 l 150 0 l 150 1028 l 201 1028 l 919 69 l 919 1028 m 1118 -211 q 1230 -20 1194 -119 q 1265 199 1265 78 l 1265 1028 l 1313 1028 l 1313 174 q 1269 -44 1305 51 q 1151 -236 1233 -139 l 1118 -211 z "},"Ń":{"ha":1115,"x_min":150,"x_max":965,"o":"m 919 1028 l 965 1028 l 965 0 l 914 0 l 196 958 l 196 0 l 150 0 l 150 1028 l 201 1028 l 919 69 l 919 1028 m 533 1122 l 688 1311 l 747 1311 l 583 1122 l 533 1122 z "},"Ň":{"ha":1115,"x_min":150,"x_max":965,"o":"m 919 1028 l 965 1028 l 965 0 l 914 0 l 196 958 l 196 0 l 150 0 l 150 1028 l 201 1028 l 919 69 l 919 1028 m 718 1311 l 782 1311 l 585 1122 l 532 1122 l 335 1311 l 399 1311 l 558 1154 l 718 1311 z "},"Ņ":{"ha":1115,"x_min":150,"x_max":965,"o":"m 919 1028 l 965 1028 l 965 0 l 914 0 l 196 958 l 196 0 l 150 0 l 150 1028 l 201 1028 l 919 69 l 919 1028 m 556 -128 q 589 -143 577 -128 q 601 -187 601 -158 q 594 -247 601 -214 q 571 -311 586 -281 l 540 -311 q 563 -215 560 -262 l 558 -215 q 527 -203 540 -215 q 515 -171 515 -190 q 527 -140 515 -152 q 556 -128 538 -128 z "},"Ṅ":{"ha":1115,"x_min":150,"x_max":965,"o":"m 919 1028 l 965 1028 l 965 0 l 914 0 l 196 958 l 196 0 l 150 0 l 150 1028 l 201 1028 l 919 69 l 919 1028 m 558 1174 q 527 1185 540 1174 q 515 1217 515 1197 q 527 1249 515 1236 q 558 1261 540 1261 q 589 1249 577 1261 q 601 1217 601 1236 q 589 1185 601 1197 q 558 1174 577 1174 z "},"Ṇ":{"ha":1115,"x_min":150,"x_max":965,"o":"m 919 1028 l 965 1028 l 965 0 l 914 0 l 196 958 l 196 0 l 150 0 l 150 1028 l 201 1028 l 919 69 l 919 1028 m 558 -215 q 527 -203 540 -215 q 515 -172 515 -192 q 527 -140 515 -153 q 558 -128 540 -128 q 589 -140 577 -128 q 601 -172 601 -153 q 589 -203 601 -192 q 558 -215 577 -215 z "},"Ŋ":{"ha":1115,"x_min":150,"x_max":965,"o":"m 965 1028 l 965 118 q 927 -115 965 -10 q 804 -319 888 -219 l 771 -294 q 863 -152 828 -225 q 911 4 898 -78 l 196 956 l 196 0 l 150 0 l 150 1028 l 201 1028 l 918 73 q 919 115 919 101 l 919 1028 l 965 1028 z "},"ǋ":{"ha":1435,"x_min":150,"x_max":1318,"o":"m 919 1028 l 965 1028 l 965 0 l 914 0 l 196 958 l 196 0 l 150 0 l 150 1028 l 201 1028 l 919 69 l 919 1028 m 1104 -294 q 1216 -104 1180 -203 q 1251 115 1251 -5 l 1251 750 l 1299 750 l 1299 118 q 1260 -115 1299 -10 q 1138 -319 1222 -219 l 1104 -294 m 1275 953 q 1244 965 1256 953 q 1232 996 1232 976 q 1244 1028 1232 1015 q 1275 1040 1256 1040 q 1306 1028 1294 1040 q 1318 996 1318 1015 q 1306 965 1318 976 q 1275 953 1294 953 z "},"Ṉ":{"ha":1115,"x_min":150,"x_max":965,"o":"m 919 1028 l 965 1028 l 965 0 l 914 0 l 196 958 l 196 0 l 150 0 l 150 1028 l 201 1028 l 919 69 l 919 1028 m 350 -194 l 350 -153 l 767 -153 l 767 -194 l 350 -194 z "},"Ñ":{"ha":1115,"x_min":150,"x_max":965,"o":"m 919 1028 l 965 1028 l 965 0 l 914 0 l 196 958 l 196 0 l 150 0 l 150 1028 l 201 1028 l 919 69 l 919 1028 m 669 1179 q 611 1186 639 1179 q 547 1207 583 1194 q 490 1225 511 1219 q 447 1231 469 1231 q 379 1219 408 1231 q 325 1182 350 1207 l 325 1229 q 447 1271 367 1271 q 506 1264 478 1271 q 569 1243 533 1256 q 626 1225 606 1231 q 669 1219 647 1219 q 738 1231 708 1219 q 792 1268 767 1243 l 792 1221 q 669 1179 750 1179 z "},"O":{"ha":1092,"x_min":96,"x_max":996,"o":"m 546 -12 q 309 43 410 -12 q 152 217 208 99 q 96 514 96 334 q 153 811 96 693 q 310 984 210 928 q 546 1040 411 1040 q 783 984 682 1040 q 940 811 884 928 q 996 514 996 694 q 939 217 996 335 q 781 43 882 99 q 546 -12 681 -12 m 546 35 q 840 150 733 35 q 946 511 946 265 q 840 877 946 761 q 546 993 733 993 q 252 878 358 993 q 146 517 146 763 q 252 151 146 267 q 546 35 358 35 z "},"Ó":{"ha":1092,"x_min":96,"x_max":996,"o":"m 546 -12 q 309 43 410 -12 q 152 217 208 99 q 96 514 96 334 q 153 811 96 693 q 310 984 210 928 q 546 1040 411 1040 q 783 984 682 1040 q 940 811 884 928 q 996 514 996 694 q 939 217 996 335 q 781 43 882 99 q 546 -12 681 -12 m 546 35 q 840 150 733 35 q 946 511 946 265 q 840 877 946 761 q 546 993 733 993 q 252 878 358 993 q 146 517 146 763 q 252 151 146 267 q 546 35 358 35 m 521 1122 l 675 1311 l 735 1311 l 571 1122 l 521 1122 z "},"Ŏ":{"ha":1092,"x_min":96,"x_max":996,"o":"m 546 -12 q 309 43 410 -12 q 152 217 208 99 q 96 514 96 334 q 153 811 96 693 q 310 984 210 928 q 546 1040 411 1040 q 783 984 682 1040 q 940 811 884 928 q 996 514 996 694 q 939 217 996 335 q 781 43 882 99 q 546 -12 681 -12 m 546 35 q 840 150 733 35 q 946 511 946 265 q 840 877 946 761 q 546 993 733 993 q 252 878 358 993 q 146 517 146 763 q 252 151 146 267 q 546 35 358 35 m 547 1131 q 386 1175 442 1131 q 322 1292 330 1220 l 364 1292 q 415 1203 373 1234 q 547 1172 458 1172 q 678 1203 637 1172 q 728 1292 719 1234 l 769 1292 q 707 1175 762 1219 q 547 1131 652 1131 z "},"Ô":{"ha":1092,"x_min":96,"x_max":996,"o":"m 546 -12 q 309 43 410 -12 q 152 217 208 99 q 96 514 96 334 q 153 811 96 693 q 310 984 210 928 q 546 1040 411 1040 q 783 984 682 1040 q 940 811 884 928 q 996 514 996 694 q 939 217 996 335 q 781 43 882 99 q 546 -12 681 -12 m 546 35 q 840 150 733 35 q 946 511 946 265 q 840 877 946 761 q 546 993 733 993 q 252 878 358 993 q 146 517 146 763 q 252 151 146 267 q 546 35 358 35 m 769 1122 l 706 1122 l 546 1279 l 386 1122 l 322 1122 l 519 1311 l 572 1311 l 769 1122 z "},"Ố":{"ha":1092,"x_min":96,"x_max":996,"o":"m 546 -12 q 309 43 410 -12 q 152 217 208 99 q 96 514 96 334 q 153 811 96 693 q 310 984 210 928 q 546 1040 411 1040 q 783 984 682 1040 q 940 811 884 928 q 996 514 996 694 q 939 217 996 335 q 781 43 882 99 q 546 -12 681 -12 m 546 35 q 840 150 733 35 q 946 511 946 265 q 840 877 946 761 q 546 993 733 993 q 252 878 358 993 q 146 517 146 763 q 252 151 146 267 q 546 35 358 35 m 874 1433 l 933 1433 l 769 1244 l 719 1244 l 874 1433 m 519 1311 l 572 1311 l 769 1122 l 706 1122 l 546 1279 l 386 1122 l 322 1122 l 519 1311 z "},"Ộ":{"ha":1092,"x_min":96,"x_max":996,"o":"m 546 -12 q 309 43 410 -12 q 152 217 208 99 q 96 514 96 334 q 153 811 96 693 q 310 984 210 928 q 546 1040 411 1040 q 783 984 682 1040 q 940 811 884 928 q 996 514 996 694 q 939 217 996 335 q 781 43 882 99 q 546 -12 681 -12 m 546 35 q 840 150 733 35 q 946 511 946 265 q 840 877 946 761 q 546 993 733 993 q 252 878 358 993 q 146 517 146 763 q 252 151 146 267 q 546 35 358 35 m 546 -215 q 515 -203 527 -215 q 503 -172 503 -192 q 515 -140 503 -153 q 546 -128 527 -128 q 577 -140 565 -128 q 589 -172 589 -153 q 577 -203 589 -192 q 546 -215 565 -215 m 769 1122 l 706 1122 l 546 1279 l 386 1122 l 322 1122 l 519 1311 l 572 1311 l 769 1122 z "},"Ồ":{"ha":1092,"x_min":96,"x_max":996,"o":"m 546 -12 q 309 43 410 -12 q 152 217 208 99 q 96 514 96 334 q 153 811 96 693 q 310 984 210 928 q 546 1040 411 1040 q 783 984 682 1040 q 940 811 884 928 q 996 514 996 694 q 939 217 996 335 q 781 43 882 99 q 546 -12 681 -12 m 546 35 q 840 150 733 35 q 946 511 946 265 q 840 877 946 761 q 546 993 733 993 q 252 878 358 993 q 146 517 146 763 q 252 151 146 267 q 546 35 358 35 m 783 1244 l 733 1244 l 569 1433 l 629 1433 l 783 1244 m 519 1311 l 572 1311 l 769 1122 l 706 1122 l 546 1279 l 386 1122 l 322 1122 l 519 1311 z "},"Ổ":{"ha":1092,"x_min":96,"x_max":996,"o":"m 546 -12 q 309 43 410 -12 q 152 217 208 99 q 96 514 96 334 q 153 811 96 693 q 310 984 210 928 q 546 1040 411 1040 q 783 984 682 1040 q 940 811 884 928 q 996 514 996 694 q 939 217 996 335 q 781 43 882 99 q 546 -12 681 -12 m 546 35 q 840 150 733 35 q 946 511 946 265 q 840 877 946 761 q 546 993 733 993 q 252 878 358 993 q 146 517 146 763 q 252 151 146 267 q 546 35 358 35 m 758 1433 q 857 1413 825 1433 q 889 1358 889 1392 q 872 1318 889 1331 q 823 1292 855 1304 q 783 1272 797 1282 q 767 1244 769 1263 l 721 1244 q 732 1278 722 1265 q 757 1299 743 1291 q 796 1316 772 1306 q 836 1335 823 1326 q 849 1358 849 1344 q 828 1386 849 1376 q 758 1396 808 1396 q 683 1390 715 1396 q 608 1371 650 1385 l 608 1408 q 758 1433 672 1433 m 519 1311 l 572 1311 l 769 1122 l 706 1122 l 546 1279 l 386 1122 l 322 1122 l 519 1311 z "},"Ỗ":{"ha":1092,"x_min":96,"x_max":996,"o":"m 546 -12 q 309 43 410 -12 q 152 217 208 99 q 96 514 96 334 q 153 811 96 693 q 310 984 210 928 q 546 1040 411 1040 q 783 984 682 1040 q 940 811 884 928 q 996 514 996 694 q 939 217 996 335 q 781 43 882 99 q 546 -12 681 -12 m 546 35 q 840 150 733 35 q 946 511 946 265 q 840 877 946 761 q 546 993 733 993 q 252 878 358 993 q 146 517 146 763 q 252 151 146 267 q 546 35 358 35 m 651 1383 q 716 1395 687 1383 q 769 1432 744 1407 l 769 1385 q 651 1343 728 1343 q 598 1350 624 1343 q 533 1371 572 1357 q 482 1388 504 1382 q 440 1394 460 1394 q 376 1383 405 1394 q 322 1346 347 1371 l 322 1393 q 440 1435 364 1435 q 494 1428 468 1435 q 558 1407 519 1421 q 609 1390 588 1396 q 651 1383 631 1383 m 519 1311 l 572 1311 l 769 1122 l 706 1122 l 546 1279 l 386 1122 l 322 1122 l 519 1311 z "},"Ȍ":{"ha":1092,"x_min":96,"x_max":996,"o":"m 546 -12 q 309 43 410 -12 q 152 217 208 99 q 96 514 96 334 q 153 811 96 693 q 310 984 210 928 q 546 1040 411 1040 q 783 984 682 1040 q 940 811 884 928 q 996 514 996 694 q 939 217 996 335 q 781 43 882 99 q 546 -12 681 -12 m 546 35 q 840 150 733 35 q 946 511 946 265 q 840 877 946 761 q 546 993 733 993 q 252 878 358 993 q 146 517 146 763 q 252 151 146 267 q 546 35 358 35 m 406 1122 l 292 1311 l 342 1311 l 453 1122 l 406 1122 m 639 1122 l 525 1311 l 575 1311 l 686 1122 l 639 1122 z "},"Ö":{"ha":1092,"x_min":96,"x_max":996,"o":"m 546 -12 q 309 43 410 -12 q 152 217 208 99 q 96 514 96 334 q 153 811 96 693 q 310 984 210 928 q 546 1040 411 1040 q 783 984 682 1040 q 940 811 884 928 q 996 514 996 694 q 939 217 996 335 q 781 43 882 99 q 546 -12 681 -12 m 546 35 q 840 150 733 35 q 946 511 946 265 q 840 877 946 761 q 546 993 733 993 q 252 878 358 993 q 146 517 146 763 q 252 151 146 267 q 546 35 358 35 m 365 1174 q 334 1185 347 1174 q 322 1217 322 1197 q 334 1249 322 1236 q 365 1261 347 1261 q 396 1249 384 1261 q 408 1217 408 1236 q 396 1185 408 1197 q 365 1174 384 1174 m 726 1174 q 695 1185 708 1174 q 683 1217 683 1197 q 695 1249 683 1236 q 726 1261 708 1261 q 757 1249 745 1261 q 769 1217 769 1236 q 757 1185 769 1197 q 726 1174 745 1174 z "},"Ȫ":{"ha":1092,"x_min":96,"x_max":996,"o":"m 546 -12 q 309 43 410 -12 q 152 217 208 99 q 96 514 96 334 q 153 811 96 693 q 310 984 210 928 q 546 1040 411 1040 q 783 984 682 1040 q 940 811 884 928 q 996 514 996 694 q 939 217 996 335 q 781 43 882 99 q 546 -12 681 -12 m 546 35 q 840 150 733 35 q 946 511 946 265 q 840 877 946 761 q 546 993 733 993 q 252 878 358 993 q 146 517 146 763 q 252 151 146 267 q 546 35 358 35 m 365 1174 q 334 1185 347 1174 q 322 1217 322 1197 q 334 1249 322 1236 q 365 1261 347 1261 q 396 1249 384 1261 q 408 1217 408 1236 q 396 1185 408 1197 q 365 1174 384 1174 m 726 1174 q 695 1185 708 1174 q 683 1217 683 1197 q 695 1249 683 1236 q 726 1261 708 1261 q 757 1249 745 1261 q 769 1217 769 1236 q 757 1185 769 1197 q 726 1174 745 1174 m 338 1354 l 338 1396 l 754 1396 l 754 1354 l 338 1354 z "},"Ȱ":{"ha":1092,"x_min":96,"x_max":996,"o":"m 546 -12 q 309 43 410 -12 q 152 217 208 99 q 96 514 96 334 q 153 811 96 693 q 310 984 210 928 q 546 1040 411 1040 q 783 984 682 1040 q 940 811 884 928 q 996 514 996 694 q 939 217 996 335 q 781 43 882 99 q 546 -12 681 -12 m 546 35 q 840 150 733 35 q 946 511 946 265 q 840 877 946 761 q 546 993 733 993 q 252 878 358 993 q 146 517 146 763 q 252 151 146 267 q 546 35 358 35 m 546 1174 q 515 1185 527 1174 q 503 1217 503 1197 q 515 1249 503 1236 q 546 1261 527 1261 q 577 1249 565 1261 q 589 1217 589 1236 q 577 1185 589 1197 q 546 1174 565 1174 m 338 1354 l 338 1396 l 754 1396 l 754 1354 l 338 1354 z "},"Ọ":{"ha":1092,"x_min":96,"x_max":996,"o":"m 546 -12 q 309 43 410 -12 q 152 217 208 99 q 96 514 96 334 q 153 811 96 693 q 310 984 210 928 q 546 1040 411 1040 q 783 984 682 1040 q 940 811 884 928 q 996 514 996 694 q 939 217 996 335 q 781 43 882 99 q 546 -12 681 -12 m 546 35 q 840 150 733 35 q 946 511 946 265 q 840 877 946 761 q 546 993 733 993 q 252 878 358 993 q 146 517 146 763 q 252 151 146 267 q 546 35 358 35 m 546 -215 q 515 -203 527 -215 q 503 -172 503 -192 q 515 -140 503 -153 q 546 -128 527 -128 q 577 -140 565 -128 q 589 -172 589 -153 q 577 -203 589 -192 q 546 -215 565 -215 z "},"Ò":{"ha":1092,"x_min":96,"x_max":996,"o":"m 546 -12 q 309 43 410 -12 q 152 217 208 99 q 96 514 96 334 q 153 811 96 693 q 310 984 210 928 q 546 1040 411 1040 q 783 984 682 1040 q 940 811 884 928 q 996 514 996 694 q 939 217 996 335 q 781 43 882 99 q 546 -12 681 -12 m 546 35 q 840 150 733 35 q 946 511 946 265 q 840 877 946 761 q 546 993 733 993 q 252 878 358 993 q 146 517 146 763 q 252 151 146 267 q 546 35 358 35 m 521 1122 l 357 1311 l 417 1311 l 571 1122 l 521 1122 z "},"Ỏ":{"ha":1092,"x_min":96,"x_max":996,"o":"m 546 -12 q 309 43 410 -12 q 152 217 208 99 q 96 514 96 334 q 153 811 96 693 q 310 984 210 928 q 546 1040 411 1040 q 783 984 682 1040 q 940 811 884 928 q 996 514 996 694 q 939 217 996 335 q 781 43 882 99 q 546 -12 681 -12 m 546 35 q 840 150 733 35 q 946 511 946 265 q 840 877 946 761 q 546 993 733 993 q 252 878 358 993 q 146 517 146 763 q 252 151 146 267 q 546 35 358 35 m 522 1122 q 534 1156 523 1142 q 559 1176 544 1169 q 597 1194 573 1184 q 637 1213 624 1203 q 650 1236 650 1222 q 630 1264 650 1254 q 560 1274 610 1274 q 484 1268 517 1274 q 410 1249 451 1263 l 410 1286 q 560 1311 474 1311 q 658 1291 626 1311 q 690 1236 690 1270 q 673 1195 690 1209 q 624 1169 656 1182 q 584 1150 598 1160 q 568 1122 570 1140 l 522 1122 z "},"Ơ":{"ha":1092,"x_min":96,"x_max":996,"o":"m 800 975 q 945 801 894 916 q 996 514 996 687 q 876 115 996 242 q 546 -12 756 -12 q 309 43 410 -12 q 152 217 208 99 q 96 514 96 334 q 153 811 96 693 q 310 984 210 928 q 546 1040 411 1040 q 600 1038 572 1040 q 655 1032 628 1035 q 797 1022 737 1022 q 911 1051 872 1022 q 950 1135 950 1079 q 945 1184 950 1162 q 932 1233 941 1207 l 978 1233 q 992 1186 988 1208 q 996 1133 996 1164 q 946 1020 996 1062 q 800 975 897 978 m 546 35 q 840 150 733 35 q 946 511 946 265 q 840 877 946 761 q 546 993 733 993 q 252 878 358 993 q 146 517 146 763 q 252 151 146 267 q 546 35 358 35 z "},"Ớ":{"ha":1092,"x_min":96,"x_max":996,"o":"m 800 975 q 945 801 894 916 q 996 514 996 687 q 876 115 996 242 q 546 -12 756 -12 q 309 43 410 -12 q 152 217 208 99 q 96 514 96 334 q 153 811 96 693 q 310 984 210 928 q 546 1040 411 1040 q 600 1038 572 1040 q 655 1032 628 1035 q 797 1022 737 1022 q 911 1051 872 1022 q 950 1135 950 1079 q 945 1184 950 1162 q 932 1233 941 1207 l 978 1233 q 992 1186 988 1208 q 996 1133 996 1164 q 946 1020 996 1062 q 800 975 897 978 m 546 35 q 840 150 733 35 q 946 511 946 265 q 840 877 946 761 q 546 993 733 993 q 252 878 358 993 q 146 517 146 763 q 252 151 146 267 q 546 35 358 35 m 521 1122 l 675 1311 l 735 1311 l 571 1122 l 521 1122 z "},"Ợ":{"ha":1092,"x_min":96,"x_max":996,"o":"m 800 975 q 945 801 894 916 q 996 514 996 687 q 876 115 996 242 q 546 -12 756 -12 q 309 43 410 -12 q 152 217 208 99 q 96 514 96 334 q 153 811 96 693 q 310 984 210 928 q 546 1040 411 1040 q 600 1038 572 1040 q 655 1032 628 1035 q 797 1022 737 1022 q 911 1051 872 1022 q 950 1135 950 1079 q 945 1184 950 1162 q 932 1233 941 1207 l 978 1233 q 992 1186 988 1208 q 996 1133 996 1164 q 946 1020 996 1062 q 800 975 897 978 m 546 35 q 840 150 733 35 q 946 511 946 265 q 840 877 946 761 q 546 993 733 993 q 252 878 358 993 q 146 517 146 763 q 252 151 146 267 q 546 35 358 35 m 546 -215 q 515 -203 527 -215 q 503 -172 503 -192 q 515 -140 503 -153 q 546 -128 527 -128 q 577 -140 565 -128 q 589 -172 589 -153 q 577 -203 589 -192 q 546 -215 565 -215 z "},"Ờ":{"ha":1092,"x_min":96,"x_max":996,"o":"m 800 975 q 945 801 894 916 q 996 514 996 687 q 876 115 996 242 q 546 -12 756 -12 q 309 43 410 -12 q 152 217 208 99 q 96 514 96 334 q 153 811 96 693 q 310 984 210 928 q 546 1040 411 1040 q 600 1038 572 1040 q 655 1032 628 1035 q 797 1022 737 1022 q 911 1051 872 1022 q 950 1135 950 1079 q 945 1184 950 1162 q 932 1233 941 1207 l 978 1233 q 992 1186 988 1208 q 996 1133 996 1164 q 946 1020 996 1062 q 800 975 897 978 m 546 35 q 840 150 733 35 q 946 511 946 265 q 840 877 946 761 q 546 993 733 993 q 252 878 358 993 q 146 517 146 763 q 252 151 146 267 q 546 35 358 35 m 521 1122 l 357 1311 l 417 1311 l 571 1122 l 521 1122 z "},"Ở":{"ha":1092,"x_min":96,"x_max":996,"o":"m 800 975 q 945 801 894 916 q 996 514 996 687 q 876 115 996 242 q 546 -12 756 -12 q 309 43 410 -12 q 152 217 208 99 q 96 514 96 334 q 153 811 96 693 q 310 984 210 928 q 546 1040 411 1040 q 600 1038 572 1040 q 655 1032 628 1035 q 797 1022 737 1022 q 911 1051 872 1022 q 950 1135 950 1079 q 945 1184 950 1162 q 932 1233 941 1207 l 978 1233 q 992 1186 988 1208 q 996 1133 996 1164 q 946 1020 996 1062 q 800 975 897 978 m 546 35 q 840 150 733 35 q 946 511 946 265 q 840 877 946 761 q 546 993 733 993 q 252 878 358 993 q 146 517 146 763 q 252 151 146 267 q 546 35 358 35 m 522 1122 q 534 1156 523 1142 q 559 1176 544 1169 q 597 1194 573 1184 q 637 1213 624 1203 q 650 1236 650 1222 q 630 1264 650 1254 q 560 1274 610 1274 q 484 1268 517 1274 q 410 1249 451 1263 l 410 1286 q 560 1311 474 1311 q 658 1291 626 1311 q 690 1236 690 1270 q 673 1195 690 1209 q 624 1169 656 1182 q 584 1150 598 1160 q 568 1122 570 1140 l 522 1122 z "},"Ỡ":{"ha":1092,"x_min":96,"x_max":996,"o":"m 657 1179 q 599 1186 626 1179 q 535 1207 571 1194 q 478 1225 499 1219 q 435 1231 457 1231 q 367 1219 396 1231 q 313 1182 338 1207 l 313 1229 q 435 1271 354 1271 q 493 1264 465 1271 q 557 1243 521 1256 q 614 1225 593 1231 q 657 1219 635 1219 q 725 1231 696 1219 q 779 1268 754 1243 l 779 1221 q 657 1179 738 1179 m 800 975 q 945 801 894 916 q 996 514 996 687 q 876 115 996 242 q 546 -12 756 -12 q 309 43 410 -12 q 152 217 208 99 q 96 514 96 334 q 153 811 96 693 q 310 984 210 928 q 546 1040 411 1040 q 600 1038 572 1040 q 655 1032 628 1035 q 797 1022 737 1022 q 911 1051 872 1022 q 950 1135 950 1079 q 945 1184 950 1162 q 932 1233 941 1207 l 978 1233 q 992 1186 988 1208 q 996 1133 996 1164 q 946 1020 996 1062 q 800 975 897 978 m 546 35 q 840 150 733 35 q 946 511 946 265 q 840 877 946 761 q 546 993 733 993 q 252 878 358 993 q 146 517 146 763 q 252 151 146 267 q 546 35 358 35 z "},"Ő":{"ha":1092,"x_min":96,"x_max":996,"o":"m 546 -12 q 309 43 410 -12 q 152 217 208 99 q 96 514 96 334 q 153 811 96 693 q 310 984 210 928 q 546 1040 411 1040 q 783 984 682 1040 q 940 811 884 928 q 996 514 996 694 q 939 217 996 335 q 781 43 882 99 q 546 -12 681 -12 m 546 35 q 840 150 733 35 q 946 511 946 265 q 840 877 946 761 q 546 993 733 993 q 252 878 358 993 q 146 517 146 763 q 252 151 146 267 q 546 35 358 35 m 406 1122 l 517 1311 l 567 1311 l 453 1122 l 406 1122 m 639 1122 l 750 1311 l 800 1311 l 686 1122 l 639 1122 z "},"Ȏ":{"ha":1092,"x_min":96,"x_max":996,"o":"m 546 -12 q 309 43 410 -12 q 152 217 208 99 q 96 514 96 334 q 153 811 96 693 q 310 984 210 928 q 546 1040 411 1040 q 783 984 682 1040 q 940 811 884 928 q 996 514 996 694 q 939 217 996 335 q 781 43 882 99 q 546 -12 681 -12 m 546 35 q 840 150 733 35 q 946 511 946 265 q 840 877 946 761 q 546 993 733 993 q 252 878 358 993 q 146 517 146 763 q 252 151 146 267 q 546 35 358 35 m 322 1142 q 385 1259 330 1215 q 544 1303 440 1303 q 706 1258 649 1303 q 769 1142 762 1213 l 728 1142 q 676 1230 719 1199 q 544 1261 634 1261 q 414 1230 455 1261 q 364 1142 373 1199 l 322 1142 z "},"Ō":{"ha":1092,"x_min":96,"x_max":996,"o":"m 546 -12 q 309 43 410 -12 q 152 217 208 99 q 96 514 96 334 q 153 811 96 693 q 310 984 210 928 q 546 1040 411 1040 q 783 984 682 1040 q 940 811 884 928 q 996 514 996 694 q 939 217 996 335 q 781 43 882 99 q 546 -12 681 -12 m 546 35 q 840 150 733 35 q 946 511 946 265 q 840 877 946 761 q 546 993 733 993 q 252 878 358 993 q 146 517 146 763 q 252 151 146 267 q 546 35 358 35 m 338 1196 l 338 1238 l 754 1238 l 754 1196 l 338 1196 z "},"Ṓ":{"ha":1092,"x_min":96,"x_max":996,"o":"m 546 -12 q 309 43 410 -12 q 152 217 208 99 q 96 514 96 334 q 153 811 96 693 q 310 984 210 928 q 546 1040 411 1040 q 783 984 682 1040 q 940 811 884 928 q 996 514 996 694 q 939 217 996 335 q 781 43 882 99 q 546 -12 681 -12 m 546 35 q 840 150 733 35 q 946 511 946 265 q 840 877 946 761 q 546 993 733 993 q 252 878 358 993 q 146 517 146 763 q 252 151 146 267 q 546 35 358 35 m 521 1308 l 674 1469 l 735 1469 l 572 1308 l 521 1308 m 338 1196 l 338 1238 l 754 1238 l 754 1196 l 338 1196 z "},"Ṑ":{"ha":1092,"x_min":96,"x_max":996,"o":"m 546 -12 q 309 43 410 -12 q 152 217 208 99 q 96 514 96 334 q 153 811 96 693 q 310 984 210 928 q 546 1040 411 1040 q 783 984 682 1040 q 940 811 884 928 q 996 514 996 694 q 939 217 996 335 q 781 43 882 99 q 546 -12 681 -12 m 546 35 q 840 150 733 35 q 946 511 946 265 q 840 877 946 761 q 546 993 733 993 q 252 878 358 993 q 146 517 146 763 q 252 151 146 267 q 546 35 358 35 m 521 1308 l 357 1469 l 417 1469 l 571 1308 l 521 1308 m 338 1196 l 338 1238 l 754 1238 l 754 1196 l 338 1196 z "},"Ǫ":{"ha":1092,"x_min":96,"x_max":996,"o":"m 719 14 q 565 -66 608 -24 q 522 -158 522 -108 q 551 -220 522 -198 q 633 -242 579 -242 q 694 -235 664 -242 q 767 -212 724 -228 l 767 -250 q 636 -278 701 -278 q 522 -247 563 -278 q 482 -160 482 -215 q 505 -79 482 -115 q 579 -12 527 -43 l 551 -12 q 310 43 412 -12 q 152 216 208 99 q 96 514 96 334 q 153 811 96 693 q 310 984 210 928 q 546 1040 411 1040 q 782 986 681 1040 q 939 814 883 932 q 996 514 996 697 q 921 178 996 301 q 719 14 847 56 m 546 35 q 840 150 733 35 q 946 511 946 265 q 840 877 946 761 q 546 993 733 993 q 252 878 358 993 q 146 517 146 763 q 252 151 146 267 q 546 35 358 35 z "},"Ø":{"ha":1092,"x_min":96,"x_max":996,"o":"m 892 890 q 996 514 996 756 q 939 217 996 335 q 781 43 882 99 q 546 -12 681 -12 q 367 16 448 -12 q 229 104 287 45 l 132 -11 l 99 17 l 200 138 q 96 514 96 272 q 153 811 96 693 q 310 984 210 928 q 546 1040 411 1040 q 724 1011 644 1040 q 863 924 805 983 l 960 1039 l 993 1011 l 892 890 m 146 517 q 233 176 146 296 l 831 886 q 546 993 731 993 q 252 878 358 993 q 146 517 146 763 m 546 35 q 840 150 733 35 q 946 511 946 265 q 859 852 946 732 l 260 142 q 546 35 361 35 z "},"Ǿ":{"ha":1092,"x_min":96,"x_max":996,"o":"m 892 890 q 996 514 996 756 q 939 217 996 335 q 781 43 882 99 q 546 -12 681 -12 q 367 16 448 -12 q 229 104 287 45 l 132 -11 l 99 17 l 200 138 q 96 514 96 272 q 153 811 96 693 q 310 984 210 928 q 546 1040 411 1040 q 724 1011 644 1040 q 863 924 805 983 l 960 1039 l 993 1011 l 892 890 m 146 517 q 233 176 146 296 l 831 886 q 546 993 731 993 q 252 878 358 993 q 146 517 146 763 m 546 35 q 840 150 733 35 q 946 511 946 265 q 859 852 946 732 l 260 142 q 546 35 361 35 m 514 1122 l 668 1311 l 728 1311 l 564 1122 l 514 1122 z "},"Õ":{"ha":1092,"x_min":96,"x_max":996,"o":"m 546 -12 q 309 43 410 -12 q 152 217 208 99 q 96 514 96 334 q 153 811 96 693 q 310 984 210 928 q 546 1040 411 1040 q 783 984 682 1040 q 940 811 884 928 q 996 514 996 694 q 939 217 996 335 q 781 43 882 99 q 546 -12 681 -12 m 546 35 q 840 150 733 35 q 946 511 946 265 q 840 877 946 761 q 546 993 733 993 q 252 878 358 993 q 146 517 146 763 q 252 151 146 267 q 546 35 358 35 m 657 1179 q 599 1186 626 1179 q 535 1207 571 1194 q 478 1225 499 1219 q 435 1231 457 1231 q 367 1219 396 1231 q 313 1182 338 1207 l 313 1229 q 435 1271 354 1271 q 493 1264 465 1271 q 557 1243 521 1256 q 614 1225 593 1231 q 657 1219 635 1219 q 725 1231 696 1219 q 779 1268 754 1243 l 779 1221 q 657 1179 738 1179 z "},"Ṍ":{"ha":1092,"x_min":96,"x_max":996,"o":"m 546 -12 q 309 43 410 -12 q 152 217 208 99 q 96 514 96 334 q 153 811 96 693 q 310 984 210 928 q 546 1040 411 1040 q 783 984 682 1040 q 940 811 884 928 q 996 514 996 694 q 939 217 996 335 q 781 43 882 99 q 546 -12 681 -12 m 546 35 q 840 150 733 35 q 946 511 946 265 q 840 877 946 761 q 546 993 733 993 q 252 878 358 993 q 146 517 146 763 q 252 151 146 267 q 546 35 358 35 m 521 1308 l 674 1469 l 735 1469 l 572 1308 l 521 1308 m 657 1179 q 599 1186 626 1179 q 535 1207 571 1194 q 478 1225 499 1219 q 435 1231 457 1231 q 367 1219 396 1231 q 313 1182 338 1207 l 313 1229 q 435 1271 354 1271 q 493 1264 465 1271 q 557 1243 521 1256 q 614 1225 593 1231 q 657 1219 635 1219 q 725 1231 696 1219 q 779 1268 754 1243 l 779 1221 q 657 1179 738 1179 z "},"Ṏ":{"ha":1092,"x_min":96,"x_max":996,"o":"m 546 -12 q 309 43 410 -12 q 152 217 208 99 q 96 514 96 334 q 153 811 96 693 q 310 984 210 928 q 546 1040 411 1040 q 783 984 682 1040 q 940 811 884 928 q 996 514 996 694 q 939 217 996 335 q 781 43 882 99 q 546 -12 681 -12 m 546 35 q 840 150 733 35 q 946 511 946 265 q 840 877 946 761 q 546 993 733 993 q 252 878 358 993 q 146 517 146 763 q 252 151 146 267 q 546 35 358 35 m 657 1179 q 599 1186 626 1179 q 535 1207 571 1194 q 478 1225 499 1219 q 435 1231 457 1231 q 367 1219 396 1231 q 313 1182 338 1207 l 313 1229 q 435 1271 354 1271 q 493 1264 465 1271 q 557 1243 521 1256 q 614 1225 593 1231 q 657 1219 635 1219 q 725 1231 696 1219 q 779 1268 754 1243 l 779 1221 q 657 1179 738 1179 m 365 1332 q 334 1344 347 1332 q 322 1375 322 1356 q 334 1407 322 1394 q 365 1419 347 1419 q 396 1407 384 1419 q 408 1375 408 1394 q 396 1344 408 1356 q 365 1332 384 1332 m 726 1332 q 695 1344 708 1332 q 683 1375 683 1356 q 695 1407 683 1394 q 726 1419 708 1419 q 757 1407 745 1419 q 769 1375 769 1394 q 757 1344 769 1356 q 726 1332 745 1332 z "},"Ȭ":{"ha":1092,"x_min":96,"x_max":996,"o":"m 546 -12 q 309 43 410 -12 q 152 217 208 99 q 96 514 96 334 q 153 811 96 693 q 310 984 210 928 q 546 1040 411 1040 q 783 984 682 1040 q 940 811 884 928 q 996 514 996 694 q 939 217 996 335 q 781 43 882 99 q 546 -12 681 -12 m 546 35 q 840 150 733 35 q 946 511 946 265 q 840 877 946 761 q 546 993 733 993 q 252 878 358 993 q 146 517 146 763 q 252 151 146 267 q 546 35 358 35 m 657 1179 q 599 1186 626 1179 q 535 1207 571 1194 q 478 1225 499 1219 q 435 1231 457 1231 q 367 1219 396 1231 q 313 1182 338 1207 l 313 1229 q 435 1271 354 1271 q 493 1264 465 1271 q 557 1243 521 1256 q 614 1225 593 1231 q 657 1219 635 1219 q 725 1231 696 1219 q 779 1268 754 1243 l 779 1221 q 657 1179 738 1179 m 338 1354 l 338 1396 l 754 1396 l 754 1354 l 338 1354 z "},"Œ":{"ha":1551,"x_min":96,"x_max":1476,"o":"m 1476 46 l 1476 0 l 893 0 q 772 -3 847 0 q 706 -6 751 -4 q 631 -7 660 -7 q 232 124 367 -7 q 96 514 96 254 q 231 906 96 774 q 625 1038 366 1038 q 698 1035 656 1038 q 753 1033 739 1033 q 879 1028 830 1028 l 1469 1028 l 1469 982 l 885 982 l 885 551 l 1400 551 l 1400 506 l 885 506 l 885 46 l 1476 46 m 838 981 q 629 992 728 992 q 268 874 390 992 q 146 514 146 756 q 267 156 146 273 q 629 39 389 39 q 838 47 769 39 l 838 981 z "},"P":{"ha":913,"x_min":150,"x_max":839,"o":"m 150 1010 q 287 1031 224 1024 q 424 1038 351 1038 q 733 955 628 1038 q 839 701 839 873 q 730 447 839 533 q 386 360 621 360 q 197 369 294 360 l 197 0 l 150 0 l 150 1010 m 386 406 q 619 439 530 406 q 748 536 708 472 q 789 700 789 601 q 698 921 789 850 q 424 992 607 992 q 197 972 301 992 l 197 418 q 386 406 287 406 z "},"Þ":{"ha":919,"x_min":150,"x_max":839,"o":"m 150 1029 l 197 1029 l 197 847 q 302 862 249 857 q 424 867 355 867 q 733 784 628 867 q 839 531 839 702 q 730 276 839 363 q 386 189 621 189 q 197 199 294 189 l 197 0 l 150 0 l 150 1029 m 386 235 q 619 268 530 235 q 748 366 708 301 q 789 529 789 431 q 698 750 789 679 q 424 821 607 821 q 197 801 301 821 l 197 247 q 386 235 287 235 z "},"Q":{"ha":1092,"x_min":96,"x_max":996,"o":"m 996 514 q 883 123 996 255 q 556 -10 769 -10 l 531 -9 q 733 -53 616 -36 q 974 -79 850 -71 l 968 -125 q 442 -25 630 -97 q 175 174 253 46 q 96 514 96 302 q 153 811 96 693 q 310 984 210 928 q 546 1040 411 1040 q 782 986 681 1040 q 939 814 883 932 q 996 514 996 697 m 146 517 q 252 151 146 267 q 546 35 358 35 q 840 150 733 35 q 946 511 946 265 q 840 877 946 761 q 546 993 733 993 q 252 878 358 993 q 146 517 146 763 z "},"R":{"ha":979,"x_min":150,"x_max":913,"o":"m 853 0 l 470 453 q 400 451 437 451 q 304 454 347 451 q 197 461 261 456 l 197 0 l 150 0 l 150 1010 q 283 1030 218 1023 q 432 1038 348 1038 q 665 1008 575 1038 q 799 915 756 978 q 843 747 843 851 q 764 549 843 621 q 524 458 685 477 l 913 0 l 853 0 m 197 507 q 298 499 258 501 q 401 497 338 497 q 628 525 541 497 q 756 607 715 552 q 796 744 796 661 q 758 891 796 838 q 642 968 721 945 q 431 992 563 992 q 308 986 358 992 q 197 971 257 981 l 197 507 z "},"Ŕ":{"ha":979,"x_min":150,"x_max":913,"o":"m 853 0 l 470 453 q 400 451 437 451 q 304 454 347 451 q 197 461 261 456 l 197 0 l 150 0 l 150 1010 q 283 1030 218 1023 q 432 1038 348 1038 q 665 1008 575 1038 q 799 915 756 978 q 843 747 843 851 q 764 549 843 621 q 524 458 685 477 l 913 0 l 853 0 m 197 507 q 298 499 258 501 q 401 497 338 497 q 628 525 541 497 q 756 607 715 552 q 796 744 796 661 q 758 891 796 838 q 642 968 721 945 q 431 992 563 992 q 308 986 358 992 q 197 971 257 981 l 197 507 m 446 1122 l 600 1311 l 660 1311 l 496 1122 l 446 1122 z "},"Ř":{"ha":979,"x_min":150,"x_max":913,"o":"m 853 0 l 470 453 q 400 451 437 451 q 304 454 347 451 q 197 461 261 456 l 197 0 l 150 0 l 150 1010 q 283 1030 218 1023 q 432 1038 348 1038 q 665 1008 575 1038 q 799 915 756 978 q 843 747 843 851 q 764 549 843 621 q 524 458 685 477 l 913 0 l 853 0 m 197 507 q 298 499 258 501 q 401 497 338 497 q 628 525 541 497 q 756 607 715 552 q 796 744 796 661 q 758 891 796 838 q 642 968 721 945 q 431 992 563 992 q 308 986 358 992 q 197 971 257 981 l 197 507 m 631 1311 l 694 1311 l 497 1122 l 444 1122 l 247 1311 l 311 1311 l 471 1154 l 631 1311 z "},"Ŗ":{"ha":979,"x_min":150,"x_max":913,"o":"m 853 0 l 470 453 q 400 451 437 451 q 304 454 347 451 q 197 461 261 456 l 197 0 l 150 0 l 150 1010 q 283 1030 218 1023 q 432 1038 348 1038 q 665 1008 575 1038 q 799 915 756 978 q 843 747 843 851 q 764 549 843 621 q 524 458 685 477 l 913 0 l 853 0 m 197 507 q 298 499 258 501 q 401 497 338 497 q 628 525 541 497 q 756 607 715 552 q 796 744 796 661 q 758 891 796 838 q 642 968 721 945 q 431 992 563 992 q 308 986 358 992 q 197 971 257 981 l 197 507 m 500 -128 q 534 -143 522 -128 q 546 -187 546 -158 q 538 -247 546 -214 q 515 -311 531 -281 l 485 -311 q 508 -215 504 -262 l 503 -215 q 472 -203 484 -215 q 460 -171 460 -190 q 471 -140 460 -152 q 500 -128 483 -128 z "},"Ȑ":{"ha":979,"x_min":150,"x_max":913,"o":"m 853 0 l 470 453 q 400 451 437 451 q 304 454 347 451 q 197 461 261 456 l 197 0 l 150 0 l 150 1010 q 283 1030 218 1023 q 432 1038 348 1038 q 665 1008 575 1038 q 799 915 756 978 q 843 747 843 851 q 764 549 843 621 q 524 458 685 477 l 913 0 l 853 0 m 197 507 q 298 499 258 501 q 401 497 338 497 q 628 525 541 497 q 756 607 715 552 q 796 744 796 661 q 758 891 796 838 q 642 968 721 945 q 431 992 563 992 q 308 986 358 992 q 197 971 257 981 l 197 507 m 331 1122 l 217 1311 l 267 1311 l 378 1122 l 331 1122 m 564 1122 l 450 1311 l 500 1311 l 611 1122 l 564 1122 z "},"Ṛ":{"ha":979,"x_min":150,"x_max":913,"o":"m 853 0 l 470 453 q 400 451 437 451 q 304 454 347 451 q 197 461 261 456 l 197 0 l 150 0 l 150 1010 q 283 1030 218 1023 q 432 1038 348 1038 q 665 1008 575 1038 q 799 915 756 978 q 843 747 843 851 q 764 549 843 621 q 524 458 685 477 l 913 0 l 853 0 m 197 507 q 298 499 258 501 q 401 497 338 497 q 628 525 541 497 q 756 607 715 552 q 796 744 796 661 q 758 891 796 838 q 642 968 721 945 q 431 992 563 992 q 308 986 358 992 q 197 971 257 981 l 197 507 m 503 -215 q 472 -203 484 -215 q 460 -172 460 -192 q 472 -140 460 -153 q 503 -128 484 -128 q 534 -140 522 -128 q 546 -172 546 -153 q 534 -203 546 -192 q 503 -215 522 -215 z "},"Ȓ":{"ha":979,"x_min":150,"x_max":913,"o":"m 853 0 l 470 453 q 400 451 437 451 q 304 454 347 451 q 197 461 261 456 l 197 0 l 150 0 l 150 1010 q 283 1030 218 1023 q 432 1038 348 1038 q 665 1008 575 1038 q 799 915 756 978 q 843 747 843 851 q 764 549 843 621 q 524 458 685 477 l 913 0 l 853 0 m 197 507 q 298 499 258 501 q 401 497 338 497 q 628 525 541 497 q 756 607 715 552 q 796 744 796 661 q 758 891 796 838 q 642 968 721 945 q 431 992 563 992 q 308 986 358 992 q 197 971 257 981 l 197 507 m 247 1142 q 310 1259 255 1215 q 469 1303 365 1303 q 631 1258 574 1303 q 694 1142 687 1213 l 653 1142 q 601 1230 644 1199 q 469 1261 559 1261 q 339 1230 380 1261 q 289 1142 298 1199 l 247 1142 z "},"Ṟ":{"ha":979,"x_min":150,"x_max":913,"o":"m 853 0 l 470 453 q 400 451 437 451 q 304 454 347 451 q 197 461 261 456 l 197 0 l 150 0 l 150 1010 q 283 1030 218 1023 q 432 1038 348 1038 q 665 1008 575 1038 q 799 915 756 978 q 843 747 843 851 q 764 549 843 621 q 524 458 685 477 l 913 0 l 853 0 m 197 507 q 298 499 258 501 q 401 497 338 497 q 628 525 541 497 q 756 607 715 552 q 796 744 796 661 q 758 891 796 838 q 642 968 721 945 q 431 992 563 992 q 308 986 358 992 q 197 971 257 981 l 197 507 m 294 -194 l 294 -153 l 711 -153 l 711 -194 l 294 -194 z "},"S":{"ha":801,"x_min":71,"x_max":731,"o":"m 356 -12 q 219 -1 290 -12 q 83 32 148 10 l 83 79 q 357 33 221 33 q 600 92 519 33 q 681 265 681 151 q 653 371 681 329 q 567 440 626 413 q 411 486 509 467 l 361 496 q 141 591 212 525 q 71 767 71 657 q 111 912 71 851 q 233 1007 152 974 q 433 1040 315 1040 q 688 1003 569 1040 l 688 956 q 431 994 560 994 q 199 936 278 994 q 121 769 121 878 q 145 663 121 706 q 224 592 169 620 q 371 546 278 564 l 421 536 q 599 479 531 515 q 699 392 667 444 q 731 267 731 340 q 633 59 731 131 q 356 -12 536 -12 z "},"Ś":{"ha":801,"x_min":71,"x_max":731,"o":"m 356 -12 q 219 -1 290 -12 q 83 32 148 10 l 83 79 q 357 33 221 33 q 600 92 519 33 q 681 265 681 151 q 653 371 681 329 q 567 440 626 413 q 411 486 509 467 l 361 496 q 141 591 212 525 q 71 767 71 657 q 111 912 71 851 q 233 1007 152 974 q 433 1040 315 1040 q 688 1003 569 1040 l 688 956 q 431 994 560 994 q 199 936 278 994 q 121 769 121 878 q 145 663 121 706 q 224 592 169 620 q 371 546 278 564 l 421 536 q 599 479 531 515 q 699 392 667 444 q 731 267 731 340 q 633 59 731 131 q 356 -12 536 -12 m 381 1122 l 535 1311 l 594 1311 l 431 1122 l 381 1122 z "},"Ṥ":{"ha":801,"x_min":71,"x_max":731,"o":"m 356 -12 q 219 -1 290 -12 q 83 32 148 10 l 83 79 q 357 33 221 33 q 600 92 519 33 q 681 265 681 151 q 653 371 681 329 q 567 440 626 413 q 411 486 509 467 l 361 496 q 141 591 212 525 q 71 767 71 657 q 111 912 71 851 q 233 1007 152 974 q 433 1040 315 1040 q 688 1003 569 1040 l 688 956 q 431 994 560 994 q 199 936 278 994 q 121 769 121 878 q 145 663 121 706 q 224 592 169 620 q 371 546 278 564 l 421 536 q 599 479 531 515 q 699 392 667 444 q 731 267 731 340 q 633 59 731 131 q 356 -12 536 -12 m 378 1283 q 347 1295 359 1283 q 335 1326 335 1307 q 347 1358 335 1346 q 378 1371 359 1371 q 409 1358 397 1371 q 421 1326 421 1346 q 409 1295 421 1307 q 378 1283 397 1283 m 381 1122 l 535 1311 l 594 1311 l 431 1122 l 381 1122 z "},"Š":{"ha":801,"x_min":71,"x_max":731,"o":"m 356 -12 q 219 -1 290 -12 q 83 32 148 10 l 83 79 q 357 33 221 33 q 600 92 519 33 q 681 265 681 151 q 653 371 681 329 q 567 440 626 413 q 411 486 509 467 l 361 496 q 141 591 212 525 q 71 767 71 657 q 111 912 71 851 q 233 1007 152 974 q 433 1040 315 1040 q 688 1003 569 1040 l 688 956 q 431 994 560 994 q 199 936 278 994 q 121 769 121 878 q 145 663 121 706 q 224 592 169 620 q 371 546 278 564 l 421 536 q 599 479 531 515 q 699 392 667 444 q 731 267 731 340 q 633 59 731 131 q 356 -12 536 -12 m 565 1311 l 629 1311 l 432 1122 l 379 1122 l 182 1311 l 246 1311 l 406 1154 l 565 1311 z "},"Ṧ":{"ha":801,"x_min":71,"x_max":731,"o":"m 356 -12 q 219 -1 290 -12 q 83 32 148 10 l 83 79 q 357 33 221 33 q 600 92 519 33 q 681 265 681 151 q 653 371 681 329 q 567 440 626 413 q 411 486 509 467 l 361 496 q 141 591 212 525 q 71 767 71 657 q 111 912 71 851 q 233 1007 152 974 q 433 1040 315 1040 q 688 1003 569 1040 l 688 956 q 431 994 560 994 q 199 936 278 994 q 121 769 121 878 q 145 663 121 706 q 224 592 169 620 q 371 546 278 564 l 421 536 q 599 479 531 515 q 699 392 667 444 q 731 267 731 340 q 633 59 731 131 q 356 -12 536 -12 m 406 1311 q 375 1323 387 1311 q 363 1354 363 1335 q 375 1386 363 1374 q 406 1399 387 1399 q 436 1386 424 1399 q 449 1354 449 1374 q 436 1323 449 1335 q 406 1311 424 1311 m 565 1311 l 629 1311 l 432 1122 l 379 1122 l 182 1311 l 246 1311 l 406 1154 l 565 1311 z "},"Ş":{"ha":801,"x_min":71,"x_max":731,"o":"m 731 267 q 652 75 731 145 q 425 -10 573 4 l 425 -78 q 522 -105 487 -79 q 557 -178 557 -130 q 519 -253 557 -228 q 414 -278 481 -278 q 341 -270 378 -278 q 274 -250 303 -263 l 274 -211 q 347 -235 313 -228 q 414 -242 380 -242 q 518 -178 518 -242 q 413 -114 518 -114 l 386 -114 l 386 -12 q 356 -12 376 -12 q 219 -1 290 -12 q 83 32 148 10 l 83 79 q 357 33 221 33 q 600 92 519 33 q 681 265 681 151 q 653 371 681 329 q 567 440 626 413 q 411 486 509 467 l 361 496 q 141 591 212 525 q 71 767 71 657 q 111 912 71 851 q 233 1007 152 974 q 433 1040 315 1040 q 688 1003 569 1040 l 688 956 q 431 994 560 994 q 199 936 278 994 q 121 769 121 878 q 145 663 121 706 q 224 592 169 620 q 371 546 278 564 l 421 536 q 599 479 531 515 q 699 392 667 444 q 731 267 731 340 z "},"Ŝ":{"ha":801,"x_min":71,"x_max":731,"o":"m 356 -12 q 219 -1 290 -12 q 83 32 148 10 l 83 79 q 357 33 221 33 q 600 92 519 33 q 681 265 681 151 q 653 371 681 329 q 567 440 626 413 q 411 486 509 467 l 361 496 q 141 591 212 525 q 71 767 71 657 q 111 912 71 851 q 233 1007 152 974 q 433 1040 315 1040 q 688 1003 569 1040 l 688 956 q 431 994 560 994 q 199 936 278 994 q 121 769 121 878 q 145 663 121 706 q 224 592 169 620 q 371 546 278 564 l 421 536 q 599 479 531 515 q 699 392 667 444 q 731 267 731 340 q 633 59 731 131 q 356 -12 536 -12 m 629 1122 l 565 1122 l 406 1279 l 246 1122 l 182 1122 l 379 1311 l 432 1311 l 629 1122 z "},"Ș":{"ha":801,"x_min":71,"x_max":731,"o":"m 356 -12 q 219 -1 290 -12 q 83 32 148 10 l 83 79 q 357 33 221 33 q 600 92 519 33 q 681 265 681 151 q 653 371 681 329 q 567 440 626 413 q 411 486 509 467 l 361 496 q 141 591 212 525 q 71 767 71 657 q 111 912 71 851 q 233 1007 152 974 q 433 1040 315 1040 q 688 1003 569 1040 l 688 956 q 431 994 560 994 q 199 936 278 994 q 121 769 121 878 q 145 663 121 706 q 224 592 169 620 q 371 546 278 564 l 421 536 q 599 479 531 515 q 699 392 667 444 q 731 267 731 340 q 633 59 731 131 q 356 -12 536 -12 m 403 -128 q 436 -143 424 -128 q 449 -187 449 -158 q 441 -247 449 -214 q 418 -311 433 -281 l 388 -311 q 410 -215 407 -262 l 406 -215 q 375 -203 387 -215 q 363 -171 363 -190 q 374 -140 363 -152 q 403 -128 385 -128 z "},"Ṡ":{"ha":801,"x_min":71,"x_max":731,"o":"m 356 -12 q 219 -1 290 -12 q 83 32 148 10 l 83 79 q 357 33 221 33 q 600 92 519 33 q 681 265 681 151 q 653 371 681 329 q 567 440 626 413 q 411 486 509 467 l 361 496 q 141 591 212 525 q 71 767 71 657 q 111 912 71 851 q 233 1007 152 974 q 433 1040 315 1040 q 688 1003 569 1040 l 688 956 q 431 994 560 994 q 199 936 278 994 q 121 769 121 878 q 145 663 121 706 q 224 592 169 620 q 371 546 278 564 l 421 536 q 599 479 531 515 q 699 392 667 444 q 731 267 731 340 q 633 59 731 131 q 356 -12 536 -12 m 406 1174 q 375 1185 387 1174 q 363 1217 363 1197 q 375 1249 363 1236 q 406 1261 387 1261 q 436 1249 424 1261 q 449 1217 449 1236 q 436 1185 449 1197 q 406 1174 424 1174 z "},"Ṣ":{"ha":801,"x_min":71,"x_max":731,"o":"m 356 -12 q 219 -1 290 -12 q 83 32 148 10 l 83 79 q 357 33 221 33 q 600 92 519 33 q 681 265 681 151 q 653 371 681 329 q 567 440 626 413 q 411 486 509 467 l 361 496 q 141 591 212 525 q 71 767 71 657 q 111 912 71 851 q 233 1007 152 974 q 433 1040 315 1040 q 688 1003 569 1040 l 688 956 q 431 994 560 994 q 199 936 278 994 q 121 769 121 878 q 145 663 121 706 q 224 592 169 620 q 371 546 278 564 l 421 536 q 599 479 531 515 q 699 392 667 444 q 731 267 731 340 q 633 59 731 131 q 356 -12 536 -12 m 406 -215 q 375 -203 387 -215 q 363 -172 363 -192 q 375 -140 363 -153 q 406 -128 387 -128 q 436 -140 424 -128 q 449 -172 449 -153 q 436 -203 449 -192 q 406 -215 424 -215 z "},"Ṩ":{"ha":801,"x_min":71,"x_max":731,"o":"m 356 -12 q 219 -1 290 -12 q 83 32 148 10 l 83 79 q 357 33 221 33 q 600 92 519 33 q 681 265 681 151 q 653 371 681 329 q 567 440 626 413 q 411 486 509 467 l 361 496 q 141 591 212 525 q 71 767 71 657 q 111 912 71 851 q 233 1007 152 974 q 433 1040 315 1040 q 688 1003 569 1040 l 688 956 q 431 994 560 994 q 199 936 278 994 q 121 769 121 878 q 145 663 121 706 q 224 592 169 620 q 371 546 278 564 l 421 536 q 599 479 531 515 q 699 392 667 444 q 731 267 731 340 q 633 59 731 131 q 356 -12 536 -12 m 406 -215 q 375 -203 387 -215 q 363 -172 363 -192 q 375 -140 363 -153 q 406 -128 387 -128 q 436 -140 424 -128 q 449 -172 449 -153 q 436 -203 449 -192 q 406 -215 424 -215 m 406 1174 q 375 1185 387 1174 q 363 1217 363 1197 q 375 1249 363 1236 q 406 1261 387 1261 q 436 1249 424 1261 q 449 1217 449 1236 q 436 1185 449 1197 q 406 1174 424 1174 z "},"ẞ":{"ha":1282,"x_min":150,"x_max":1211,"o":"m 901 536 q 1080 479 1012 515 q 1180 392 1148 444 q 1211 267 1211 340 q 1114 59 1211 131 q 836 -12 1017 -12 q 699 -1 770 -12 q 564 32 628 10 l 564 79 q 838 33 701 33 q 1080 92 999 33 q 1161 265 1161 151 q 1134 371 1161 329 q 1048 440 1106 413 q 892 486 990 467 l 842 496 q 622 591 692 525 q 551 767 551 657 q 580 892 551 838 q 666 983 609 947 q 543 994 609 994 q 348 958 424 994 q 234 844 272 922 q 197 642 197 766 l 197 0 l 150 0 l 150 635 q 193 867 150 777 q 322 998 235 956 q 543 1040 409 1040 q 728 1012 653 1040 q 914 1040 805 1040 q 1168 1003 1049 1040 l 1168 956 q 911 994 1041 994 q 680 936 758 994 q 601 769 601 878 q 626 663 601 706 q 705 592 650 620 q 851 546 759 564 l 901 536 z "},"Ə":{"ha":1093,"x_min":89,"x_max":997,"o":"m 443 1040 q 852 911 707 1040 q 997 513 997 783 q 878 115 997 242 q 553 -12 759 -12 q 213 113 336 -12 q 89 500 89 238 l 89 542 l 947 542 q 810 886 939 778 q 444 994 681 994 q 293 985 373 994 q 143 956 214 975 l 143 1003 q 443 1040 280 1040 m 553 35 q 839 146 733 35 q 947 496 944 258 l 139 496 q 251 145 142 256 q 553 35 359 35 z "},"T":{"ha":864,"x_min":14,"x_max":850,"o":"m 408 0 l 408 982 l 14 982 l 14 1028 l 850 1028 l 850 982 l 456 982 l 456 0 l 408 0 z "},"Ŧ":{"ha":864,"x_min":14,"x_max":850,"o":"m 850 982 l 456 982 l 456 576 l 718 576 l 718 535 l 456 535 l 456 0 l 408 0 l 408 535 l 146 535 l 146 576 l 408 576 l 408 982 l 14 982 l 14 1028 l 850 1028 l 850 982 z "},"Ť":{"ha":864,"x_min":14,"x_max":850,"o":"m 408 0 l 408 982 l 14 982 l 14 1028 l 850 1028 l 850 982 l 456 982 l 456 0 l 408 0 m 592 1311 l 656 1311 l 458 1122 l 406 1122 l 208 1311 l 272 1311 l 432 1154 l 592 1311 z "},"Ţ":{"ha":864,"x_min":14,"x_max":850,"o":"m 451 0 l 451 -78 q 548 -105 513 -79 q 583 -178 583 -130 q 545 -253 583 -228 q 440 -278 508 -278 q 367 -270 405 -278 q 300 -250 329 -263 l 300 -211 q 373 -235 340 -228 q 440 -242 406 -242 q 544 -178 544 -242 q 439 -114 544 -114 l 413 -114 l 413 0 l 408 0 l 408 982 l 14 982 l 14 1028 l 850 1028 l 850 982 l 456 982 l 456 0 l 451 0 z "},"Ț":{"ha":864,"x_min":14,"x_max":850,"o":"m 408 0 l 408 982 l 14 982 l 14 1028 l 850 1028 l 850 982 l 456 982 l 456 0 l 408 0 m 429 -128 q 463 -143 451 -128 q 475 -187 475 -158 q 467 -247 475 -214 q 444 -311 460 -281 l 414 -311 q 437 -215 433 -262 l 432 -215 q 401 -203 413 -215 q 389 -171 389 -190 q 400 -140 389 -152 q 429 -128 412 -128 z "},"Ṭ":{"ha":864,"x_min":14,"x_max":850,"o":"m 408 0 l 408 982 l 14 982 l 14 1028 l 850 1028 l 850 982 l 456 982 l 456 0 l 408 0 m 432 -215 q 401 -203 413 -215 q 389 -172 389 -192 q 401 -140 389 -153 q 432 -128 413 -128 q 463 -140 451 -128 q 475 -172 475 -153 q 463 -203 475 -192 q 432 -215 451 -215 z "},"Ṯ":{"ha":864,"x_min":14,"x_max":850,"o":"m 408 0 l 408 982 l 14 982 l 14 1028 l 850 1028 l 850 982 l 456 982 l 456 0 l 408 0 m 224 -194 l 224 -153 l 640 -153 l 640 -194 l 224 -194 z "},"U":{"ha":1074,"x_min":144,"x_max":929,"o":"m 538 -12 q 317 30 403 -12 q 187 161 230 72 q 144 393 144 251 l 144 1028 l 192 1028 l 192 386 q 229 184 192 262 q 342 70 266 106 q 538 33 418 33 q 733 70 657 33 q 846 184 809 106 q 883 386 883 262 l 883 1028 l 929 1028 l 929 393 q 887 161 929 251 q 758 30 844 72 q 538 -12 672 -12 z "},"Ú":{"ha":1074,"x_min":144,"x_max":929,"o":"m 538 -12 q 317 30 403 -12 q 187 161 230 72 q 144 393 144 251 l 144 1028 l 192 1028 l 192 386 q 229 184 192 262 q 342 70 266 106 q 538 33 418 33 q 733 70 657 33 q 846 184 809 106 q 883 386 883 262 l 883 1028 l 929 1028 l 929 393 q 887 161 929 251 q 758 30 844 72 q 538 -12 672 -12 m 513 1122 l 667 1311 l 726 1311 l 563 1122 l 513 1122 z "},"Ŭ":{"ha":1074,"x_min":144,"x_max":929,"o":"m 538 -12 q 317 30 403 -12 q 187 161 230 72 q 144 393 144 251 l 144 1028 l 192 1028 l 192 386 q 229 184 192 262 q 342 70 266 106 q 538 33 418 33 q 733 70 657 33 q 846 184 809 106 q 883 386 883 262 l 883 1028 l 929 1028 l 929 393 q 887 161 929 251 q 758 30 844 72 q 538 -12 672 -12 m 539 1131 q 378 1175 434 1131 q 314 1292 322 1220 l 356 1292 q 407 1203 365 1234 q 539 1172 449 1172 q 669 1203 628 1172 q 719 1292 710 1234 l 761 1292 q 699 1175 753 1219 q 539 1131 644 1131 z "},"Û":{"ha":1074,"x_min":144,"x_max":929,"o":"m 538 -12 q 317 30 403 -12 q 187 161 230 72 q 144 393 144 251 l 144 1028 l 192 1028 l 192 386 q 229 184 192 262 q 342 70 266 106 q 538 33 418 33 q 733 70 657 33 q 846 184 809 106 q 883 386 883 262 l 883 1028 l 929 1028 l 929 393 q 887 161 929 251 q 758 30 844 72 q 538 -12 672 -12 m 761 1122 l 697 1122 l 538 1279 l 378 1122 l 314 1122 l 511 1311 l 564 1311 l 761 1122 z "},"Ȕ":{"ha":1074,"x_min":144,"x_max":929,"o":"m 538 -12 q 317 30 403 -12 q 187 161 230 72 q 144 393 144 251 l 144 1028 l 192 1028 l 192 386 q 229 184 192 262 q 342 70 266 106 q 538 33 418 33 q 733 70 657 33 q 846 184 809 106 q 883 386 883 262 l 883 1028 l 929 1028 l 929 393 q 887 161 929 251 q 758 30 844 72 q 538 -12 672 -12 m 397 1122 l 283 1311 l 333 1311 l 444 1122 l 397 1122 m 631 1122 l 517 1311 l 567 1311 l 678 1122 l 631 1122 z "},"Ü":{"ha":1074,"x_min":144,"x_max":929,"o":"m 538 -12 q 317 30 403 -12 q 187 161 230 72 q 144 393 144 251 l 144 1028 l 192 1028 l 192 386 q 229 184 192 262 q 342 70 266 106 q 538 33 418 33 q 733 70 657 33 q 846 184 809 106 q 883 386 883 262 l 883 1028 l 929 1028 l 929 393 q 887 161 929 251 q 758 30 844 72 q 538 -12 672 -12 m 357 1174 q 326 1185 338 1174 q 314 1217 314 1197 q 326 1249 314 1236 q 357 1261 338 1261 q 388 1249 376 1261 q 400 1217 400 1236 q 388 1185 400 1197 q 357 1174 376 1174 m 718 1174 q 687 1185 699 1174 q 675 1217 675 1197 q 687 1249 675 1236 q 718 1261 699 1261 q 749 1249 737 1261 q 761 1217 761 1236 q 749 1185 761 1197 q 718 1174 737 1174 z "},"Ụ":{"ha":1074,"x_min":144,"x_max":929,"o":"m 538 -12 q 317 30 403 -12 q 187 161 230 72 q 144 393 144 251 l 144 1028 l 192 1028 l 192 386 q 229 184 192 262 q 342 70 266 106 q 538 33 418 33 q 733 70 657 33 q 846 184 809 106 q 883 386 883 262 l 883 1028 l 929 1028 l 929 393 q 887 161 929 251 q 758 30 844 72 q 538 -12 672 -12 m 538 -215 q 507 -203 519 -215 q 494 -172 494 -192 q 507 -140 494 -153 q 538 -128 519 -128 q 568 -140 556 -128 q 581 -172 581 -153 q 568 -203 581 -192 q 538 -215 556 -215 z "},"Ù":{"ha":1074,"x_min":144,"x_max":929,"o":"m 538 -12 q 317 30 403 -12 q 187 161 230 72 q 144 393 144 251 l 144 1028 l 192 1028 l 192 386 q 229 184 192 262 q 342 70 266 106 q 538 33 418 33 q 733 70 657 33 q 846 184 809 106 q 883 386 883 262 l 883 1028 l 929 1028 l 929 393 q 887 161 929 251 q 758 30 844 72 q 538 -12 672 -12 m 513 1122 l 349 1311 l 408 1311 l 563 1122 l 513 1122 z "},"Ủ":{"ha":1074,"x_min":144,"x_max":929,"o":"m 538 -12 q 317 30 403 -12 q 187 161 230 72 q 144 393 144 251 l 144 1028 l 192 1028 l 192 386 q 229 184 192 262 q 342 70 266 106 q 538 33 418 33 q 733 70 657 33 q 846 184 809 106 q 883 386 883 262 l 883 1028 l 929 1028 l 929 393 q 887 161 929 251 q 758 30 844 72 q 538 -12 672 -12 m 514 1122 q 525 1156 515 1142 q 550 1176 536 1169 q 589 1194 565 1184 q 629 1213 616 1203 q 642 1236 642 1222 q 622 1264 642 1254 q 551 1274 601 1274 q 476 1268 508 1274 q 401 1249 443 1263 l 401 1286 q 551 1311 465 1311 q 650 1291 618 1311 q 682 1236 682 1270 q 665 1195 682 1209 q 616 1169 648 1182 q 576 1150 590 1160 q 560 1122 562 1140 l 514 1122 z "},"Ư":{"ha":1074,"x_min":144,"x_max":1106,"o":"m 538 -12 q 317 30 403 -12 q 187 161 230 72 q 144 393 144 251 l 144 1028 l 192 1028 l 192 386 q 229 184 192 262 q 342 70 266 106 q 538 33 418 33 q 733 70 657 33 q 846 184 809 106 q 883 386 883 262 l 883 1028 l 907 1028 q 1021 1054 983 1028 q 1060 1135 1060 1080 q 1055 1184 1060 1162 q 1042 1233 1051 1207 l 1088 1233 q 1101 1186 1097 1208 q 1106 1133 1106 1164 q 1060 1026 1106 1065 q 929 983 1014 986 l 929 393 q 887 161 929 251 q 758 30 844 72 q 538 -12 672 -12 z "},"Ứ":{"ha":1074,"x_min":144,"x_max":1106,"o":"m 538 -12 q 317 30 403 -12 q 187 161 230 72 q 144 393 144 251 l 144 1028 l 192 1028 l 192 386 q 229 184 192 262 q 342 70 266 106 q 538 33 418 33 q 733 70 657 33 q 846 184 809 106 q 883 386 883 262 l 883 1028 l 907 1028 q 1021 1054 983 1028 q 1060 1135 1060 1080 q 1055 1184 1060 1162 q 1042 1233 1051 1207 l 1088 1233 q 1101 1186 1097 1208 q 1106 1133 1106 1164 q 1060 1026 1106 1065 q 929 983 1014 986 l 929 393 q 887 161 929 251 q 758 30 844 72 q 538 -12 672 -12 m 513 1122 l 667 1311 l 726 1311 l 563 1122 l 513 1122 z "},"Ự":{"ha":1074,"x_min":144,"x_max":1106,"o":"m 538 -12 q 317 30 403 -12 q 187 161 230 72 q 144 393 144 251 l 144 1028 l 192 1028 l 192 386 q 229 184 192 262 q 342 70 266 106 q 538 33 418 33 q 733 70 657 33 q 846 184 809 106 q 883 386 883 262 l 883 1028 l 907 1028 q 1021 1054 983 1028 q 1060 1135 1060 1080 q 1055 1184 1060 1162 q 1042 1233 1051 1207 l 1088 1233 q 1101 1186 1097 1208 q 1106 1133 1106 1164 q 1060 1026 1106 1065 q 929 983 1014 986 l 929 393 q 887 161 929 251 q 758 30 844 72 q 538 -12 672 -12 m 538 -215 q 507 -203 519 -215 q 494 -172 494 -192 q 507 -140 494 -153 q 538 -128 519 -128 q 568 -140 556 -128 q 581 -172 581 -153 q 568 -203 581 -192 q 538 -215 556 -215 z "},"Ừ":{"ha":1074,"x_min":144,"x_max":1106,"o":"m 538 -12 q 317 30 403 -12 q 187 161 230 72 q 144 393 144 251 l 144 1028 l 192 1028 l 192 386 q 229 184 192 262 q 342 70 266 106 q 538 33 418 33 q 733 70 657 33 q 846 184 809 106 q 883 386 883 262 l 883 1028 l 907 1028 q 1021 1054 983 1028 q 1060 1135 1060 1080 q 1055 1184 1060 1162 q 1042 1233 1051 1207 l 1088 1233 q 1101 1186 1097 1208 q 1106 1133 1106 1164 q 1060 1026 1106 1065 q 929 983 1014 986 l 929 393 q 887 161 929 251 q 758 30 844 72 q 538 -12 672 -12 m 513 1122 l 349 1311 l 408 1311 l 563 1122 l 513 1122 z "},"Ử":{"ha":1074,"x_min":144,"x_max":1106,"o":"m 538 -12 q 317 30 403 -12 q 187 161 230 72 q 144 393 144 251 l 144 1028 l 192 1028 l 192 386 q 229 184 192 262 q 342 70 266 106 q 538 33 418 33 q 733 70 657 33 q 846 184 809 106 q 883 386 883 262 l 883 1028 l 907 1028 q 1021 1054 983 1028 q 1060 1135 1060 1080 q 1055 1184 1060 1162 q 1042 1233 1051 1207 l 1088 1233 q 1101 1186 1097 1208 q 1106 1133 1106 1164 q 1060 1026 1106 1065 q 929 983 1014 986 l 929 393 q 887 161 929 251 q 758 30 844 72 q 538 -12 672 -12 m 514 1122 q 525 1156 515 1142 q 550 1176 536 1169 q 589 1194 565 1184 q 629 1213 616 1203 q 642 1236 642 1222 q 622 1264 642 1254 q 551 1274 601 1274 q 476 1268 508 1274 q 401 1249 443 1263 l 401 1286 q 551 1311 465 1311 q 650 1291 618 1311 q 682 1236 682 1270 q 665 1195 682 1209 q 616 1169 648 1182 q 576 1150 590 1160 q 560 1122 562 1140 l 514 1122 z "},"Ữ":{"ha":1074,"x_min":144,"x_max":1106,"o":"m 538 -12 q 317 30 403 -12 q 187 161 230 72 q 144 393 144 251 l 144 1028 l 192 1028 l 192 386 q 229 184 192 262 q 342 70 266 106 q 538 33 418 33 q 733 70 657 33 q 846 184 809 106 q 883 386 883 262 l 883 1028 l 907 1028 q 1021 1054 983 1028 q 1060 1135 1060 1080 q 1055 1184 1060 1162 q 1042 1233 1051 1207 l 1088 1233 q 1101 1186 1097 1208 q 1106 1133 1106 1164 q 1060 1026 1106 1065 q 929 983 1014 986 l 929 393 q 887 161 929 251 q 758 30 844 72 q 538 -12 672 -12 m 649 1179 q 590 1186 618 1179 q 526 1207 563 1194 q 469 1225 490 1219 q 426 1231 449 1231 q 358 1219 388 1231 q 304 1182 329 1207 l 304 1229 q 426 1271 346 1271 q 485 1264 457 1271 q 549 1243 513 1256 q 606 1225 585 1231 q 649 1219 626 1219 q 717 1231 688 1219 q 771 1268 746 1243 l 771 1221 q 649 1179 729 1179 z "},"Ű":{"ha":1074,"x_min":144,"x_max":929,"o":"m 538 -12 q 317 30 403 -12 q 187 161 230 72 q 144 393 144 251 l 144 1028 l 192 1028 l 192 386 q 229 184 192 262 q 342 70 266 106 q 538 33 418 33 q 733 70 657 33 q 846 184 809 106 q 883 386 883 262 l 883 1028 l 929 1028 l 929 393 q 887 161 929 251 q 758 30 844 72 q 538 -12 672 -12 m 397 1122 l 508 1311 l 558 1311 l 444 1122 l 397 1122 m 631 1122 l 742 1311 l 792 1311 l 678 1122 l 631 1122 z "},"Ȗ":{"ha":1074,"x_min":144,"x_max":929,"o":"m 538 -12 q 317 30 403 -12 q 187 161 230 72 q 144 393 144 251 l 144 1028 l 192 1028 l 192 386 q 229 184 192 262 q 342 70 266 106 q 538 33 418 33 q 733 70 657 33 q 846 184 809 106 q 883 386 883 262 l 883 1028 l 929 1028 l 929 393 q 887 161 929 251 q 758 30 844 72 q 538 -12 672 -12 m 314 1142 q 376 1259 322 1215 q 536 1303 431 1303 q 697 1258 641 1303 q 761 1142 753 1213 l 719 1142 q 668 1230 710 1199 q 536 1261 626 1261 q 406 1230 447 1261 q 356 1142 365 1199 l 314 1142 z "},"Ū":{"ha":1074,"x_min":144,"x_max":929,"o":"m 538 -12 q 317 30 403 -12 q 187 161 230 72 q 144 393 144 251 l 144 1028 l 192 1028 l 192 386 q 229 184 192 262 q 342 70 266 106 q 538 33 418 33 q 733 70 657 33 q 846 184 809 106 q 883 386 883 262 l 883 1028 l 929 1028 l 929 393 q 887 161 929 251 q 758 30 844 72 q 538 -12 672 -12 m 329 1196 l 329 1238 l 746 1238 l 746 1196 l 329 1196 z "},"Ṻ":{"ha":1074,"x_min":144,"x_max":929,"o":"m 538 -12 q 317 30 403 -12 q 187 161 230 72 q 144 393 144 251 l 144 1028 l 192 1028 l 192 386 q 229 184 192 262 q 342 70 266 106 q 538 33 418 33 q 733 70 657 33 q 846 184 809 106 q 883 386 883 262 l 883 1028 l 929 1028 l 929 393 q 887 161 929 251 q 758 30 844 72 q 538 -12 672 -12 m 329 1196 l 329 1238 l 746 1238 l 746 1196 l 329 1196 m 357 1332 q 326 1344 338 1332 q 314 1375 314 1356 q 326 1407 314 1394 q 357 1419 338 1419 q 388 1407 376 1419 q 400 1375 400 1394 q 388 1344 400 1356 q 357 1332 376 1332 m 718 1332 q 687 1344 699 1332 q 675 1375 675 1356 q 687 1407 675 1394 q 718 1419 699 1419 q 749 1407 737 1419 q 761 1375 761 1394 q 749 1344 761 1356 q 718 1332 737 1332 z "},"Ų":{"ha":1074,"x_min":144,"x_max":929,"o":"m 929 1028 l 929 393 q 869 128 929 223 q 683 3 809 34 q 540 -61 586 -22 q 494 -153 494 -101 q 523 -217 494 -194 q 606 -239 551 -239 q 666 -232 636 -239 q 739 -210 696 -225 l 739 -247 q 608 -275 673 -275 q 494 -243 533 -275 q 456 -151 456 -211 q 478 -75 456 -111 q 551 -12 501 -38 l 538 -12 q 317 30 403 -12 q 187 161 230 72 q 144 393 144 251 l 144 1028 l 192 1028 l 192 386 q 229 184 192 262 q 342 70 266 106 q 538 33 418 33 q 733 70 657 33 q 846 184 809 106 q 883 386 883 262 l 883 1028 l 929 1028 z "},"Ů":{"ha":1074,"x_min":144,"x_max":929,"o":"m 538 -12 q 317 30 403 -12 q 187 161 230 72 q 144 393 144 251 l 144 1028 l 192 1028 l 192 386 q 229 184 192 262 q 342 70 266 106 q 538 33 418 33 q 733 70 657 33 q 846 184 809 106 q 883 386 883 262 l 883 1028 l 929 1028 l 929 393 q 887 161 929 251 q 758 30 844 72 q 538 -12 672 -12 m 538 1119 q 472 1136 501 1119 q 426 1182 443 1153 q 410 1247 410 1211 q 426 1313 410 1283 q 472 1358 443 1342 q 538 1375 501 1375 q 603 1358 574 1375 q 649 1313 632 1342 q 665 1247 665 1283 q 649 1182 665 1211 q 603 1136 632 1153 q 538 1119 574 1119 m 538 1156 q 603 1180 578 1156 q 628 1247 628 1205 q 603 1314 628 1290 q 538 1339 578 1339 q 472 1314 497 1339 q 447 1247 447 1290 q 472 1180 447 1205 q 538 1156 497 1156 z "},"Ũ":{"ha":1074,"x_min":144,"x_max":929,"o":"m 538 -12 q 317 30 403 -12 q 187 161 230 72 q 144 393 144 251 l 144 1028 l 192 1028 l 192 386 q 229 184 192 262 q 342 70 266 106 q 538 33 418 33 q 733 70 657 33 q 846 184 809 106 q 883 386 883 262 l 883 1028 l 929 1028 l 929 393 q 887 161 929 251 q 758 30 844 72 q 538 -12 672 -12 m 649 1179 q 590 1186 618 1179 q 526 1207 563 1194 q 469 1225 490 1219 q 426 1231 449 1231 q 358 1219 388 1231 q 304 1182 329 1207 l 304 1229 q 426 1271 346 1271 q 485 1264 457 1271 q 549 1243 513 1256 q 606 1225 585 1231 q 649 1219 626 1219 q 717 1231 688 1219 q 771 1268 746 1243 l 771 1221 q 649 1179 729 1179 z "},"Ṹ":{"ha":1074,"x_min":144,"x_max":929,"o":"m 538 -12 q 317 30 403 -12 q 187 161 230 72 q 144 393 144 251 l 144 1028 l 192 1028 l 192 386 q 229 184 192 262 q 342 70 266 106 q 538 33 418 33 q 733 70 657 33 q 846 184 809 106 q 883 386 883 262 l 883 1028 l 929 1028 l 929 393 q 887 161 929 251 q 758 30 844 72 q 538 -12 672 -12 m 513 1308 l 665 1469 l 726 1469 l 564 1308 l 513 1308 m 649 1179 q 590 1186 618 1179 q 526 1207 563 1194 q 469 1225 490 1219 q 426 1231 449 1231 q 358 1219 388 1231 q 304 1182 329 1207 l 304 1229 q 426 1271 346 1271 q 485 1264 457 1271 q 549 1243 513 1256 q 606 1225 585 1231 q 649 1219 626 1219 q 717 1231 688 1219 q 771 1268 746 1243 l 771 1221 q 649 1179 729 1179 z "},"V":{"ha":968,"x_min":17,"x_max":951,"o":"m 901 1028 l 951 1028 l 517 0 l 451 0 l 17 1028 l 69 1028 l 486 41 l 901 1028 z "},"W":{"ha":1576,"x_min":57,"x_max":1518,"o":"m 1469 1028 l 1518 1028 l 1181 0 l 1115 0 l 788 975 l 461 0 l 396 0 l 57 1028 l 108 1028 l 429 44 l 756 1028 l 821 1028 l 1149 44 l 1469 1028 z "},"Ẃ":{"ha":1576,"x_min":57,"x_max":1518,"o":"m 1469 1028 l 1518 1028 l 1181 0 l 1115 0 l 788 975 l 461 0 l 396 0 l 57 1028 l 108 1028 l 429 44 l 756 1028 l 821 1028 l 1149 44 l 1469 1028 m 764 1122 l 918 1311 l 978 1311 l 814 1122 l 764 1122 z "},"Ŵ":{"ha":1576,"x_min":57,"x_max":1518,"o":"m 1469 1028 l 1518 1028 l 1181 0 l 1115 0 l 788 975 l 461 0 l 396 0 l 57 1028 l 108 1028 l 429 44 l 756 1028 l 821 1028 l 1149 44 l 1469 1028 m 1013 1122 l 949 1122 l 789 1279 l 629 1122 l 565 1122 l 763 1311 l 815 1311 l 1013 1122 z "},"Ẅ":{"ha":1576,"x_min":57,"x_max":1518,"o":"m 1469 1028 l 1518 1028 l 1181 0 l 1115 0 l 788 975 l 461 0 l 396 0 l 57 1028 l 108 1028 l 429 44 l 756 1028 l 821 1028 l 1149 44 l 1469 1028 m 608 1174 q 577 1185 590 1174 q 565 1217 565 1197 q 577 1249 565 1236 q 608 1261 590 1261 q 639 1249 627 1261 q 651 1217 651 1236 q 639 1185 651 1197 q 608 1174 627 1174 m 969 1174 q 939 1185 951 1174 q 926 1217 926 1197 q 939 1249 926 1236 q 969 1261 951 1261 q 1000 1249 988 1261 q 1013 1217 1013 1236 q 1000 1185 1013 1197 q 969 1174 988 1174 z "},"Ẁ":{"ha":1576,"x_min":57,"x_max":1518,"o":"m 1469 1028 l 1518 1028 l 1181 0 l 1115 0 l 788 975 l 461 0 l 396 0 l 57 1028 l 108 1028 l 429 44 l 756 1028 l 821 1028 l 1149 44 l 1469 1028 m 764 1122 l 600 1311 l 660 1311 l 814 1122 l 764 1122 z "},"X":{"ha":950,"x_min":26,"x_max":922,"o":"m 504 519 l 922 0 l 860 0 l 474 481 l 88 0 l 26 0 l 444 518 l 33 1028 l 96 1028 l 475 557 l 856 1028 l 915 1028 l 504 519 z "},"Y":{"ha":864,"x_min":-11,"x_max":869,"o":"m 869 1028 l 456 472 l 456 0 l 408 0 l 408 472 l -11 1028 l 50 1028 l 433 516 l 811 1028 l 869 1028 z "},"Ý":{"ha":864,"x_min":-11,"x_max":869,"o":"m 869 1028 l 456 472 l 456 0 l 408 0 l 408 472 l -11 1028 l 50 1028 l 433 516 l 811 1028 l 869 1028 m 407 1122 l 561 1311 l 621 1311 l 457 1122 l 407 1122 z "},"Ŷ":{"ha":864,"x_min":-11,"x_max":869,"o":"m 869 1028 l 456 472 l 456 0 l 408 0 l 408 472 l -11 1028 l 50 1028 l 433 516 l 811 1028 l 869 1028 m 656 1122 l 592 1122 l 432 1279 l 272 1122 l 208 1122 l 406 1311 l 458 1311 l 656 1122 z "},"Ÿ":{"ha":864,"x_min":-11,"x_max":869,"o":"m 869 1028 l 456 472 l 456 0 l 408 0 l 408 472 l -11 1028 l 50 1028 l 433 516 l 811 1028 l 869 1028 m 251 1174 q 220 1185 233 1174 q 208 1217 208 1197 q 220 1249 208 1236 q 251 1261 233 1261 q 282 1249 270 1261 q 294 1217 294 1236 q 282 1185 294 1197 q 251 1174 270 1174 m 613 1174 q 582 1185 594 1174 q 569 1217 569 1197 q 582 1249 569 1236 q 613 1261 594 1261 q 643 1249 631 1261 q 656 1217 656 1236 q 643 1185 656 1197 q 613 1174 631 1174 z "},"Ẏ":{"ha":864,"x_min":-11,"x_max":869,"o":"m 869 1028 l 456 472 l 456 0 l 408 0 l 408 472 l -11 1028 l 50 1028 l 433 516 l 811 1028 l 869 1028 m 432 1174 q 401 1185 413 1174 q 389 1217 389 1197 q 401 1249 389 1236 q 432 1261 413 1261 q 463 1249 451 1261 q 475 1217 475 1236 q 463 1185 475 1197 q 432 1174 451 1174 z "},"Ỵ":{"ha":864,"x_min":-11,"x_max":869,"o":"m 869 1028 l 456 472 l 456 0 l 408 0 l 408 472 l -11 1028 l 50 1028 l 433 516 l 811 1028 l 869 1028 m 432 -215 q 401 -203 413 -215 q 389 -172 389 -192 q 401 -140 389 -153 q 432 -128 413 -128 q 463 -140 451 -128 q 475 -172 475 -153 q 463 -203 475 -192 q 432 -215 451 -215 z "},"Ỳ":{"ha":864,"x_min":-11,"x_max":869,"o":"m 869 1028 l 456 472 l 456 0 l 408 0 l 408 472 l -11 1028 l 50 1028 l 433 516 l 811 1028 l 869 1028 m 407 1122 l 243 1311 l 303 1311 l 457 1122 l 407 1122 z "},"Ỷ":{"ha":864,"x_min":-11,"x_max":869,"o":"m 869 1028 l 456 472 l 456 0 l 408 0 l 408 472 l -11 1028 l 50 1028 l 433 516 l 811 1028 l 869 1028 m 408 1122 q 420 1156 409 1142 q 445 1176 431 1169 q 483 1194 459 1184 q 523 1213 510 1203 q 536 1236 536 1222 q 516 1264 536 1254 q 446 1274 496 1274 q 370 1268 403 1274 q 296 1249 338 1263 l 296 1286 q 446 1311 360 1311 q 544 1291 513 1311 q 576 1236 576 1270 q 559 1195 576 1209 q 510 1169 542 1182 q 470 1150 484 1160 q 454 1122 456 1140 l 408 1122 z "},"Ȳ":{"ha":864,"x_min":-11,"x_max":869,"o":"m 869 1028 l 456 472 l 456 0 l 408 0 l 408 472 l -11 1028 l 50 1028 l 433 516 l 811 1028 l 869 1028 m 224 1196 l 224 1238 l 640 1238 l 640 1196 l 224 1196 z "},"Ỹ":{"ha":864,"x_min":-11,"x_max":869,"o":"m 869 1028 l 456 472 l 456 0 l 408 0 l 408 472 l -11 1028 l 50 1028 l 433 516 l 811 1028 l 869 1028 m 543 1179 q 485 1186 513 1179 q 421 1207 457 1194 q 364 1225 385 1219 q 321 1231 343 1231 q 253 1219 282 1231 q 199 1182 224 1207 l 199 1229 q 321 1271 240 1271 q 379 1264 351 1271 q 443 1243 407 1256 q 500 1225 479 1231 q 543 1219 521 1219 q 611 1231 582 1219 q 665 1268 640 1243 l 665 1221 q 543 1179 624 1179 z "},"Z":{"ha":872,"x_min":49,"x_max":824,"o":"m 117 44 l 824 44 l 824 0 l 49 0 l 49 28 l 745 983 l 58 983 l 58 1028 l 814 1028 l 814 1000 l 117 44 z "},"Ź":{"ha":872,"x_min":49,"x_max":824,"o":"m 117 44 l 824 44 l 824 0 l 49 0 l 49 28 l 745 983 l 58 983 l 58 1028 l 814 1028 l 814 1000 l 117 44 m 411 1122 l 565 1311 l 625 1311 l 461 1122 l 411 1122 z "},"Ž":{"ha":872,"x_min":49,"x_max":824,"o":"m 117 44 l 824 44 l 824 0 l 49 0 l 49 28 l 745 983 l 58 983 l 58 1028 l 814 1028 l 814 1000 l 117 44 m 596 1311 l 660 1311 l 463 1122 l 410 1122 l 213 1311 l 276 1311 l 436 1154 l 596 1311 z "},"Ż":{"ha":872,"x_min":49,"x_max":824,"o":"m 117 44 l 824 44 l 824 0 l 49 0 l 49 28 l 745 983 l 58 983 l 58 1028 l 814 1028 l 814 1000 l 117 44 m 436 1174 q 405 1185 417 1174 q 393 1217 393 1197 q 405 1249 393 1236 q 436 1261 417 1261 q 467 1249 455 1261 q 479 1217 479 1236 q 467 1185 479 1197 q 436 1174 455 1174 z "},"Ẓ":{"ha":872,"x_min":49,"x_max":824,"o":"m 117 44 l 824 44 l 824 0 l 49 0 l 49 28 l 745 983 l 58 983 l 58 1028 l 814 1028 l 814 1000 l 117 44 m 436 -215 q 405 -203 417 -215 q 393 -172 393 -192 q 405 -140 393 -153 q 436 -128 417 -128 q 467 -140 455 -128 q 479 -172 479 -153 q 467 -203 479 -192 q 436 -215 455 -215 z "},"a":{"ha":768,"x_min":93,"x_max":644,"o":"m 364 761 q 518 738 456 761 q 612 660 579 715 q 644 513 644 606 l 644 0 l 603 0 l 599 93 l 593 93 q 479 18 549 47 q 332 -11 408 -11 q 156 41 219 -11 q 93 186 93 93 q 121 290 93 248 q 208 359 149 333 q 364 397 267 385 l 597 426 l 597 511 q 570 635 597 591 q 494 698 544 680 q 365 715 444 715 q 136 676 245 715 l 136 724 q 244 751 184 742 q 364 761 305 761 m 332 35 q 475 64 407 35 q 597 151 544 94 l 597 380 l 363 351 q 195 298 245 337 q 144 189 144 260 q 191 75 144 115 q 332 35 238 35 z "},"á":{"ha":768,"x_min":93,"x_max":644,"o":"m 364 761 q 518 738 456 761 q 612 660 579 715 q 644 513 644 606 l 644 0 l 603 0 l 599 93 l 593 93 q 479 18 549 47 q 332 -11 408 -11 q 156 41 219 -11 q 93 186 93 93 q 121 290 93 248 q 208 359 149 333 q 364 397 267 385 l 597 426 l 597 511 q 570 635 597 591 q 494 698 544 680 q 365 715 444 715 q 136 676 245 715 l 136 724 q 244 751 184 742 q 364 761 305 761 m 332 35 q 475 64 407 35 q 597 151 544 94 l 597 380 l 363 351 q 195 298 245 337 q 144 189 144 260 q 191 75 144 115 q 332 35 238 35 m 357 878 l 543 1122 l 601 1122 l 407 878 l 357 878 z "},"ă":{"ha":768,"x_min":93,"x_max":644,"o":"m 364 761 q 518 738 456 761 q 612 660 579 715 q 644 513 644 606 l 644 0 l 603 0 l 599 93 l 593 93 q 479 18 549 47 q 332 -11 408 -11 q 156 41 219 -11 q 93 186 93 93 q 121 290 93 248 q 208 359 149 333 q 364 397 267 385 l 597 426 l 597 511 q 570 635 597 591 q 494 698 544 680 q 365 715 444 715 q 136 676 245 715 l 136 724 q 244 751 184 742 q 364 761 305 761 m 332 35 q 475 64 407 35 q 597 151 544 94 l 597 380 l 363 351 q 195 298 245 337 q 144 189 144 260 q 191 75 144 115 q 332 35 238 35 m 383 886 q 272 914 318 886 q 200 990 225 942 q 172 1103 175 1039 l 214 1103 q 260 974 219 1021 q 383 926 301 926 q 550 1103 538 926 l 592 1103 q 534 945 588 1004 q 383 886 481 886 z "},"ắ":{"ha":768,"x_min":93,"x_max":644,"o":"m 364 761 q 518 738 456 761 q 612 660 579 715 q 644 513 644 606 l 644 0 l 603 0 l 599 93 l 593 93 q 479 18 549 47 q 332 -11 408 -11 q 156 41 219 -11 q 93 186 93 93 q 121 290 93 248 q 208 359 149 333 q 364 397 267 385 l 597 426 l 597 511 q 570 635 597 591 q 494 698 544 680 q 365 715 444 715 q 136 676 245 715 l 136 724 q 244 751 184 742 q 364 761 305 761 m 332 35 q 475 64 407 35 q 597 151 544 94 l 597 380 l 363 351 q 195 298 245 337 q 144 189 144 260 q 191 75 144 115 q 332 35 238 35 m 357 1108 l 511 1297 l 571 1297 l 407 1108 l 357 1108 m 383 886 q 272 914 318 886 q 200 990 225 942 q 172 1103 175 1039 l 214 1103 q 260 974 219 1021 q 383 926 301 926 q 550 1103 538 926 l 592 1103 q 534 945 588 1004 q 383 886 481 886 z "},"ặ":{"ha":768,"x_min":93,"x_max":644,"o":"m 364 761 q 518 738 456 761 q 612 660 579 715 q 644 513 644 606 l 644 0 l 603 0 l 599 93 l 593 93 q 479 18 549 47 q 332 -11 408 -11 q 156 41 219 -11 q 93 186 93 93 q 121 290 93 248 q 208 359 149 333 q 364 397 267 385 l 597 426 l 597 511 q 570 635 597 591 q 494 698 544 680 q 365 715 444 715 q 136 676 245 715 l 136 724 q 244 751 184 742 q 364 761 305 761 m 332 35 q 475 64 407 35 q 597 151 544 94 l 597 380 l 363 351 q 195 298 245 337 q 144 189 144 260 q 191 75 144 115 q 332 35 238 35 m 399 -215 q 368 -203 380 -215 q 356 -172 356 -192 q 368 -140 356 -153 q 399 -128 380 -128 q 430 -140 417 -128 q 442 -172 442 -153 q 430 -203 442 -192 q 399 -215 417 -215 m 383 886 q 272 914 318 886 q 200 990 225 942 q 172 1103 175 1039 l 214 1103 q 260 974 219 1021 q 383 926 301 926 q 550 1103 538 926 l 592 1103 q 534 945 588 1004 q 383 886 481 886 z "},"ằ":{"ha":768,"x_min":93,"x_max":644,"o":"m 364 761 q 518 738 456 761 q 612 660 579 715 q 644 513 644 606 l 644 0 l 603 0 l 599 93 l 593 93 q 479 18 549 47 q 332 -11 408 -11 q 156 41 219 -11 q 93 186 93 93 q 121 290 93 248 q 208 359 149 333 q 364 397 267 385 l 597 426 l 597 511 q 570 635 597 591 q 494 698 544 680 q 365 715 444 715 q 136 676 245 715 l 136 724 q 244 751 184 742 q 364 761 305 761 m 332 35 q 475 64 407 35 q 597 151 544 94 l 597 380 l 363 351 q 195 298 245 337 q 144 189 144 260 q 191 75 144 115 q 332 35 238 35 m 357 1108 l 193 1297 l 253 1297 l 407 1108 l 357 1108 m 383 886 q 272 914 318 886 q 200 990 225 942 q 172 1103 175 1039 l 214 1103 q 260 974 219 1021 q 383 926 301 926 q 550 1103 538 926 l 592 1103 q 534 945 588 1004 q 383 886 481 886 z "},"ẳ":{"ha":768,"x_min":93,"x_max":644,"o":"m 364 761 q 518 738 456 761 q 612 660 579 715 q 644 513 644 606 l 644 0 l 603 0 l 599 93 l 593 93 q 479 18 549 47 q 332 -11 408 -11 q 156 41 219 -11 q 93 186 93 93 q 121 290 93 248 q 208 359 149 333 q 364 397 267 385 l 597 426 l 597 511 q 570 635 597 591 q 494 698 544 680 q 365 715 444 715 q 136 676 245 715 l 136 724 q 244 751 184 742 q 364 761 305 761 m 332 35 q 475 64 407 35 q 597 151 544 94 l 597 380 l 363 351 q 195 298 245 337 q 144 189 144 260 q 191 75 144 115 q 332 35 238 35 m 358 1108 q 370 1142 359 1128 q 395 1163 381 1155 q 433 1180 409 1170 q 473 1199 460 1190 q 486 1222 486 1208 q 466 1250 486 1240 q 396 1260 446 1260 q 320 1254 353 1260 q 246 1235 288 1249 l 246 1272 q 396 1297 310 1297 q 494 1277 463 1297 q 526 1222 526 1256 q 509 1182 526 1195 q 460 1156 492 1168 q 420 1136 434 1146 q 404 1108 406 1126 l 358 1108 m 383 886 q 272 914 318 886 q 200 990 225 942 q 172 1103 175 1039 l 214 1103 q 260 974 219 1021 q 383 926 301 926 q 550 1103 538 926 l 592 1103 q 534 945 588 1004 q 383 886 481 886 z "},"ẵ":{"ha":768,"x_min":93,"x_max":644,"o":"m 364 761 q 518 738 456 761 q 612 660 579 715 q 644 513 644 606 l 644 0 l 603 0 l 599 93 l 593 93 q 479 18 549 47 q 332 -11 408 -11 q 156 41 219 -11 q 93 186 93 93 q 121 290 93 248 q 208 359 149 333 q 364 397 267 385 l 597 426 l 597 511 q 570 635 597 591 q 494 698 544 680 q 365 715 444 715 q 136 676 245 715 l 136 724 q 244 751 184 742 q 364 761 305 761 m 332 35 q 475 64 407 35 q 597 151 544 94 l 597 380 l 363 351 q 195 298 245 337 q 144 189 144 260 q 191 75 144 115 q 332 35 238 35 m 486 1164 q 433 1171 458 1164 q 371 1192 408 1178 q 318 1210 338 1204 q 278 1215 298 1215 q 216 1203 244 1215 q 163 1167 188 1192 l 163 1214 q 278 1256 204 1256 q 331 1249 306 1256 q 393 1228 356 1242 q 446 1210 426 1215 q 486 1204 466 1204 q 548 1216 520 1204 q 601 1253 576 1228 l 601 1206 q 486 1164 560 1164 m 383 886 q 272 914 318 886 q 200 990 225 942 q 172 1103 175 1039 l 214 1103 q 260 974 219 1021 q 383 926 301 926 q 550 1103 538 926 l 592 1103 q 534 945 588 1004 q 383 886 481 886 z "},"â":{"ha":768,"x_min":93,"x_max":644,"o":"m 364 761 q 518 738 456 761 q 612 660 579 715 q 644 513 644 606 l 644 0 l 603 0 l 599 93 l 593 93 q 479 18 549 47 q 332 -11 408 -11 q 156 41 219 -11 q 93 186 93 93 q 121 290 93 248 q 208 359 149 333 q 364 397 267 385 l 597 426 l 597 511 q 570 635 597 591 q 494 698 544 680 q 365 715 444 715 q 136 676 245 715 l 136 724 q 244 751 184 742 q 364 761 305 761 m 332 35 q 475 64 407 35 q 597 151 544 94 l 597 380 l 363 351 q 195 298 245 337 q 144 189 144 260 q 191 75 144 115 q 332 35 238 35 m 589 878 l 535 878 l 382 1088 l 229 878 l 175 878 l 356 1122 l 408 1122 l 589 878 z "},"ấ":{"ha":768,"x_min":93,"x_max":751,"o":"m 364 761 q 518 738 456 761 q 612 660 579 715 q 644 513 644 606 l 644 0 l 603 0 l 599 93 l 593 93 q 479 18 549 47 q 332 -11 408 -11 q 156 41 219 -11 q 93 186 93 93 q 121 290 93 248 q 208 359 149 333 q 364 397 267 385 l 597 426 l 597 511 q 570 635 597 591 q 494 698 544 680 q 365 715 444 715 q 136 676 245 715 l 136 724 q 244 751 184 742 q 364 761 305 761 m 332 35 q 475 64 407 35 q 597 151 544 94 l 597 380 l 363 351 q 195 298 245 337 q 144 189 144 260 q 191 75 144 115 q 332 35 238 35 m 751 1297 l 588 1108 l 538 1108 l 692 1297 l 751 1297 m 356 1122 l 408 1122 l 589 878 l 535 878 l 382 1088 l 229 878 l 175 878 l 356 1122 z "},"ậ":{"ha":768,"x_min":93,"x_max":644,"o":"m 364 761 q 518 738 456 761 q 612 660 579 715 q 644 513 644 606 l 644 0 l 603 0 l 599 93 l 593 93 q 479 18 549 47 q 332 -11 408 -11 q 156 41 219 -11 q 93 186 93 93 q 121 290 93 248 q 208 359 149 333 q 364 397 267 385 l 597 426 l 597 511 q 570 635 597 591 q 494 698 544 680 q 365 715 444 715 q 136 676 245 715 l 136 724 q 244 751 184 742 q 364 761 305 761 m 332 35 q 475 64 407 35 q 597 151 544 94 l 597 380 l 363 351 q 195 298 245 337 q 144 189 144 260 q 191 75 144 115 q 332 35 238 35 m 399 -215 q 368 -203 380 -215 q 356 -172 356 -192 q 368 -140 356 -153 q 399 -128 380 -128 q 430 -140 417 -128 q 442 -172 442 -153 q 430 -203 442 -192 q 399 -215 417 -215 m 589 878 l 535 878 l 382 1088 l 229 878 l 175 878 l 356 1122 l 408 1122 l 589 878 z "},"ầ":{"ha":768,"x_min":93,"x_max":644,"o":"m 364 761 q 518 738 456 761 q 612 660 579 715 q 644 513 644 606 l 644 0 l 603 0 l 599 93 l 593 93 q 479 18 549 47 q 332 -11 408 -11 q 156 41 219 -11 q 93 186 93 93 q 121 290 93 248 q 208 359 149 333 q 364 397 267 385 l 597 426 l 597 511 q 570 635 597 591 q 494 698 544 680 q 365 715 444 715 q 136 676 245 715 l 136 724 q 244 751 184 742 q 364 761 305 761 m 332 35 q 475 64 407 35 q 597 151 544 94 l 597 380 l 363 351 q 195 298 245 337 q 144 189 144 260 q 191 75 144 115 q 332 35 238 35 m 606 1108 l 556 1108 l 392 1297 l 451 1297 l 606 1108 m 356 1122 l 408 1122 l 589 878 l 535 878 l 382 1088 l 229 878 l 175 878 l 356 1122 z "},"ẩ":{"ha":768,"x_min":93,"x_max":711,"o":"m 364 761 q 518 738 456 761 q 612 660 579 715 q 644 513 644 606 l 644 0 l 603 0 l 599 93 l 593 93 q 479 18 549 47 q 332 -11 408 -11 q 156 41 219 -11 q 93 186 93 93 q 121 290 93 248 q 208 359 149 333 q 364 397 267 385 l 597 426 l 597 511 q 570 635 597 591 q 494 698 544 680 q 365 715 444 715 q 136 676 245 715 l 136 724 q 244 751 184 742 q 364 761 305 761 m 332 35 q 475 64 407 35 q 597 151 544 94 l 597 380 l 363 351 q 195 298 245 337 q 144 189 144 260 q 191 75 144 115 q 332 35 238 35 m 581 1297 q 679 1277 647 1297 q 711 1222 711 1256 q 694 1182 711 1195 q 645 1156 677 1168 q 605 1136 619 1146 q 589 1108 591 1126 l 543 1108 q 555 1142 544 1128 q 580 1163 565 1155 q 618 1180 594 1170 q 658 1199 645 1190 q 671 1222 671 1208 q 651 1250 671 1240 q 581 1260 631 1260 q 505 1254 538 1260 q 431 1235 472 1249 l 431 1272 q 581 1297 494 1297 m 356 1122 l 408 1122 l 589 878 l 535 878 l 382 1088 l 229 878 l 175 878 l 356 1122 z "},"ẫ":{"ha":768,"x_min":93,"x_max":644,"o":"m 364 761 q 518 738 456 761 q 612 660 579 715 q 644 513 644 606 l 644 0 l 603 0 l 599 93 l 593 93 q 479 18 549 47 q 332 -11 408 -11 q 156 41 219 -11 q 93 186 93 93 q 121 290 93 248 q 208 359 149 333 q 364 397 267 385 l 597 426 l 597 511 q 570 635 597 591 q 494 698 544 680 q 365 715 444 715 q 136 676 245 715 l 136 724 q 244 751 184 742 q 364 761 305 761 m 332 35 q 475 64 407 35 q 597 151 544 94 l 597 380 l 363 351 q 195 298 245 337 q 144 189 144 260 q 191 75 144 115 q 332 35 238 35 m 486 1204 q 548 1216 520 1204 q 601 1253 576 1228 l 601 1206 q 486 1164 560 1164 q 433 1171 458 1164 q 371 1192 408 1178 q 318 1210 338 1204 q 278 1215 298 1215 q 216 1203 244 1215 q 163 1167 188 1192 l 163 1214 q 278 1256 204 1256 q 331 1249 306 1256 q 393 1228 356 1242 q 446 1210 426 1215 q 486 1204 466 1204 m 356 1122 l 408 1122 l 589 878 l 535 878 l 382 1088 l 229 878 l 175 878 l 356 1122 z "},"ȁ":{"ha":768,"x_min":93,"x_max":644,"o":"m 364 761 q 518 738 456 761 q 612 660 579 715 q 644 513 644 606 l 644 0 l 603 0 l 599 93 l 593 93 q 479 18 549 47 q 332 -11 408 -11 q 156 41 219 -11 q 93 186 93 93 q 121 290 93 248 q 208 359 149 333 q 364 397 267 385 l 597 426 l 597 511 q 570 635 597 591 q 494 698 544 680 q 365 715 444 715 q 136 676 245 715 l 136 724 q 244 751 184 742 q 364 761 305 761 m 332 35 q 475 64 407 35 q 597 151 544 94 l 597 380 l 363 351 q 195 298 245 337 q 144 189 144 260 q 191 75 144 115 q 332 35 238 35 m 242 878 l 111 1122 l 163 1122 l 289 878 l 242 878 m 475 878 l 344 1122 l 396 1122 l 522 878 l 475 878 z "},"ä":{"ha":768,"x_min":93,"x_max":644,"o":"m 364 761 q 518 738 456 761 q 612 660 579 715 q 644 513 644 606 l 644 0 l 603 0 l 599 93 l 593 93 q 479 18 549 47 q 332 -11 408 -11 q 156 41 219 -11 q 93 186 93 93 q 121 290 93 248 q 208 359 149 333 q 364 397 267 385 l 597 426 l 597 511 q 570 635 597 591 q 494 698 544 680 q 365 715 444 715 q 136 676 245 715 l 136 724 q 244 751 184 742 q 364 761 305 761 m 332 35 q 475 64 407 35 q 597 151 544 94 l 597 380 l 363 351 q 195 298 245 337 q 144 189 144 260 q 191 75 144 115 q 332 35 238 35 m 215 944 q 184 956 197 944 q 172 988 172 968 q 184 1019 172 1007 q 215 1032 197 1032 q 246 1019 234 1032 q 258 988 258 1007 q 246 956 258 968 q 215 944 234 944 m 549 944 q 518 956 530 944 q 506 988 506 968 q 518 1019 506 1007 q 549 1032 530 1032 q 580 1019 567 1032 q 592 988 592 1007 q 580 956 592 968 q 549 944 567 944 z "},"ạ":{"ha":768,"x_min":93,"x_max":644,"o":"m 364 761 q 518 738 456 761 q 612 660 579 715 q 644 513 644 606 l 644 0 l 603 0 l 599 93 l 593 93 q 479 18 549 47 q 332 -11 408 -11 q 156 41 219 -11 q 93 186 93 93 q 121 290 93 248 q 208 359 149 333 q 364 397 267 385 l 597 426 l 597 511 q 570 635 597 591 q 494 698 544 680 q 365 715 444 715 q 136 676 245 715 l 136 724 q 244 751 184 742 q 364 761 305 761 m 332 35 q 475 64 407 35 q 597 151 544 94 l 597 380 l 363 351 q 195 298 245 337 q 144 189 144 260 q 191 75 144 115 q 332 35 238 35 m 399 -215 q 368 -203 380 -215 q 356 -172 356 -192 q 368 -140 356 -153 q 399 -128 380 -128 q 430 -140 417 -128 q 442 -172 442 -153 q 430 -203 442 -192 q 399 -215 417 -215 z "},"à":{"ha":768,"x_min":93,"x_max":644,"o":"m 364 761 q 518 738 456 761 q 612 660 579 715 q 644 513 644 606 l 644 0 l 603 0 l 599 93 l 593 93 q 479 18 549 47 q 332 -11 408 -11 q 156 41 219 -11 q 93 186 93 93 q 121 290 93 248 q 208 359 149 333 q 364 397 267 385 l 597 426 l 597 511 q 570 635 597 591 q 494 698 544 680 q 365 715 444 715 q 136 676 245 715 l 136 724 q 244 751 184 742 q 364 761 305 761 m 332 35 q 475 64 407 35 q 597 151 544 94 l 597 380 l 363 351 q 195 298 245 337 q 144 189 144 260 q 191 75 144 115 q 332 35 238 35 m 357 878 l 163 1122 l 221 1122 l 407 878 l 357 878 z "},"ả":{"ha":768,"x_min":93,"x_max":644,"o":"m 364 761 q 518 738 456 761 q 612 660 579 715 q 644 513 644 606 l 644 0 l 603 0 l 599 93 l 593 93 q 479 18 549 47 q 332 -11 408 -11 q 156 41 219 -11 q 93 186 93 93 q 121 290 93 248 q 208 359 149 333 q 364 397 267 385 l 597 426 l 597 511 q 570 635 597 591 q 494 698 544 680 q 365 715 444 715 q 136 676 245 715 l 136 724 q 244 751 184 742 q 364 761 305 761 m 332 35 q 475 64 407 35 q 597 151 544 94 l 597 380 l 363 351 q 195 298 245 337 q 144 189 144 260 q 191 75 144 115 q 332 35 238 35 m 361 878 q 373 923 362 904 q 398 953 383 942 q 435 978 413 965 q 473 1006 460 994 q 485 1038 485 1019 q 460 1078 485 1065 q 385 1092 435 1092 q 324 1088 356 1092 q 268 1075 292 1083 l 268 1114 q 320 1126 290 1122 q 381 1131 351 1131 q 490 1107 454 1131 q 525 1038 525 1083 q 517 1001 525 1016 q 496 976 508 985 q 464 953 484 966 q 420 921 435 937 q 404 878 406 905 l 361 878 z "},"ȃ":{"ha":768,"x_min":93,"x_max":644,"o":"m 364 761 q 518 738 456 761 q 612 660 579 715 q 644 513 644 606 l 644 0 l 603 0 l 599 93 l 593 93 q 479 18 549 47 q 332 -11 408 -11 q 156 41 219 -11 q 93 186 93 93 q 121 290 93 248 q 208 359 149 333 q 364 397 267 385 l 597 426 l 597 511 q 570 635 597 591 q 494 698 544 680 q 365 715 444 715 q 136 676 245 715 l 136 724 q 244 751 184 742 q 364 761 305 761 m 332 35 q 475 64 407 35 q 597 151 544 94 l 597 380 l 363 351 q 195 298 245 337 q 144 189 144 260 q 191 75 144 115 q 332 35 238 35 m 172 897 q 230 1055 176 996 q 381 1114 283 1114 q 492 1086 446 1114 q 564 1010 539 1058 q 592 897 589 961 l 550 897 q 503 1025 544 978 q 381 1072 461 1072 q 260 1026 300 1072 q 214 897 219 979 l 172 897 z "},"ā":{"ha":768,"x_min":93,"x_max":644,"o":"m 364 761 q 518 738 456 761 q 612 660 579 715 q 644 513 644 606 l 644 0 l 603 0 l 599 93 l 593 93 q 479 18 549 47 q 332 -11 408 -11 q 156 41 219 -11 q 93 186 93 93 q 121 290 93 248 q 208 359 149 333 q 364 397 267 385 l 597 426 l 597 511 q 570 635 597 591 q 494 698 544 680 q 365 715 444 715 q 136 676 245 715 l 136 724 q 244 751 184 742 q 364 761 305 761 m 332 35 q 475 64 407 35 q 597 151 544 94 l 597 380 l 363 351 q 195 298 245 337 q 144 189 144 260 q 191 75 144 115 q 332 35 238 35 m 163 968 l 163 1010 l 601 1010 l 601 968 l 163 968 z "},"ą":{"ha":768,"x_min":93,"x_max":726,"o":"m 607 -242 q 726 -210 667 -242 l 726 -249 q 669 -270 701 -262 q 610 -278 637 -278 q 508 -246 545 -278 q 471 -160 471 -214 q 502 -64 471 -107 q 602 19 534 -21 l 599 93 l 593 93 q 479 18 549 47 q 332 -11 408 -11 q 156 41 219 -11 q 93 186 93 93 q 121 290 93 248 q 208 359 149 333 q 364 397 267 385 l 597 426 l 597 511 q 570 635 597 591 q 494 698 544 680 q 365 715 444 715 q 136 676 245 715 l 136 724 q 244 751 184 742 q 364 761 305 761 q 518 738 456 761 q 612 660 579 715 q 644 513 644 606 l 644 0 q 541 -75 573 -38 q 510 -158 510 -112 q 536 -219 510 -197 q 607 -242 562 -242 m 332 35 q 475 64 407 35 q 597 151 544 94 l 597 380 l 363 351 q 195 298 245 337 q 144 189 144 260 q 191 75 144 115 q 332 35 238 35 z "},"å":{"ha":768,"x_min":93,"x_max":644,"o":"m 364 761 q 518 738 456 761 q 612 660 579 715 q 644 513 644 606 l 644 0 l 603 0 l 599 93 l 593 93 q 479 18 549 47 q 332 -11 408 -11 q 156 41 219 -11 q 93 186 93 93 q 121 290 93 248 q 208 359 149 333 q 364 397 267 385 l 597 426 l 597 511 q 570 635 597 591 q 494 698 544 680 q 365 715 444 715 q 136 676 245 715 l 136 724 q 244 751 184 742 q 364 761 305 761 m 332 35 q 475 64 407 35 q 597 151 544 94 l 597 380 l 363 351 q 195 298 245 337 q 144 189 144 260 q 191 75 144 115 q 332 35 238 35 m 382 875 q 317 892 346 875 q 271 938 288 908 q 254 1003 254 967 q 271 1068 254 1039 q 317 1114 288 1097 q 382 1131 346 1131 q 447 1114 418 1131 q 493 1068 476 1097 q 510 1003 510 1039 q 493 938 510 967 q 447 892 476 908 q 382 875 418 875 m 382 911 q 447 936 422 911 q 472 1003 472 960 q 447 1070 472 1045 q 382 1094 422 1094 q 317 1070 342 1094 q 292 1003 292 1045 q 317 936 292 960 q 382 911 342 911 z "},"ǻ":{"ha":768,"x_min":93,"x_max":644,"o":"m 364 761 q 518 738 456 761 q 612 660 579 715 q 644 513 644 606 l 644 0 l 603 0 l 599 93 l 593 93 q 479 18 549 47 q 332 -11 408 -11 q 156 41 219 -11 q 93 186 93 93 q 121 290 93 248 q 208 359 149 333 q 364 397 267 385 l 597 426 l 597 511 q 570 635 597 591 q 494 698 544 680 q 365 715 444 715 q 136 676 245 715 l 136 724 q 244 751 184 742 q 364 761 305 761 m 332 35 q 475 64 407 35 q 597 151 544 94 l 597 380 l 363 351 q 195 298 245 337 q 144 189 144 260 q 191 75 144 115 q 332 35 238 35 m 481 1085 q 510 1003 510 1051 q 493 938 510 967 q 447 892 476 908 q 382 875 418 875 q 317 892 346 875 q 271 938 288 908 q 254 1003 254 967 q 271 1068 254 1039 q 317 1114 288 1097 q 382 1131 346 1131 q 453 1110 421 1131 l 564 1236 l 619 1236 l 481 1085 m 382 911 q 447 936 422 911 q 472 1003 472 960 q 447 1070 472 1045 q 382 1094 422 1094 q 317 1070 342 1094 q 292 1003 292 1045 q 317 936 292 960 q 382 911 342 911 z "},"ã":{"ha":768,"x_min":93,"x_max":644,"o":"m 364 761 q 518 738 456 761 q 612 660 579 715 q 644 513 644 606 l 644 0 l 603 0 l 599 93 l 593 93 q 479 18 549 47 q 332 -11 408 -11 q 156 41 219 -11 q 93 186 93 93 q 121 290 93 248 q 208 359 149 333 q 364 397 267 385 l 597 426 l 597 511 q 570 635 597 591 q 494 698 544 680 q 365 715 444 715 q 136 676 245 715 l 136 724 q 244 751 184 742 q 364 761 305 761 m 332 35 q 475 64 407 35 q 597 151 544 94 l 597 380 l 363 351 q 195 298 245 337 q 144 189 144 260 q 191 75 144 115 q 332 35 238 35 m 486 958 q 433 965 458 958 q 371 986 408 972 q 318 1004 338 999 q 278 1010 298 1010 q 216 998 244 1010 q 163 961 188 986 l 163 1008 q 278 1050 204 1050 q 331 1043 306 1050 q 393 1022 356 1036 q 446 1004 426 1010 q 486 999 466 999 q 548 1010 520 999 q 601 1047 576 1022 l 601 1000 q 486 958 560 958 z "},"æ":{"ha":1278,"x_min":93,"x_max":1204,"o":"m 1204 354 l 644 354 q 730 111 649 190 q 956 33 810 33 q 1168 72 1051 33 l 1168 25 q 953 -12 1058 -12 q 649 139 733 -12 q 495 22 573 56 q 333 -11 417 -11 q 205 13 259 -11 q 122 81 151 36 q 93 188 93 126 q 164 343 93 285 q 388 400 235 400 l 597 400 l 597 511 q 570 635 597 591 q 494 698 544 680 q 365 715 444 715 q 136 676 245 715 l 136 724 q 244 751 184 742 q 364 761 305 761 q 549 721 481 761 q 634 586 617 681 q 736 717 668 673 q 903 761 805 761 q 1126 664 1047 761 q 1204 378 1204 566 l 1204 354 m 903 715 q 715 638 781 715 q 644 400 649 560 l 1156 400 q 903 715 1149 715 m 333 35 q 489 71 413 35 q 627 186 566 107 q 598 354 600 260 l 382 354 q 200 310 256 354 q 144 190 144 266 q 192 75 144 116 q 333 35 240 35 z "},"ǽ":{"ha":1278,"x_min":93,"x_max":1204,"o":"m 1204 354 l 644 354 q 730 111 649 190 q 956 33 810 33 q 1168 72 1051 33 l 1168 25 q 953 -12 1058 -12 q 649 139 733 -12 q 495 22 573 56 q 333 -11 417 -11 q 205 13 259 -11 q 122 81 151 36 q 93 188 93 126 q 164 343 93 285 q 388 400 235 400 l 597 400 l 597 511 q 570 635 597 591 q 494 698 544 680 q 365 715 444 715 q 136 676 245 715 l 136 724 q 244 751 184 742 q 364 761 305 761 q 549 721 481 761 q 634 586 617 681 q 736 717 668 673 q 903 761 805 761 q 1126 664 1047 761 q 1204 378 1204 566 l 1204 354 m 903 715 q 715 638 781 715 q 644 400 649 560 l 1156 400 q 903 715 1149 715 m 333 35 q 489 71 413 35 q 627 186 566 107 q 598 354 600 260 l 382 354 q 200 310 256 354 q 144 190 144 266 q 192 75 144 116 q 333 35 240 35 m 596 878 l 782 1122 l 840 1122 l 646 878 l 596 878 z "},"b":{"ha":853,"x_min":136,"x_max":764,"o":"m 372 -12 q 136 21 253 -12 l 136 1122 l 183 1122 l 183 661 l 188 661 q 298 735 233 708 q 442 761 363 761 q 609 723 537 761 q 723 602 681 685 q 764 389 764 519 q 372 -12 764 -12 m 378 33 q 630 119 546 33 q 714 383 714 205 q 640 637 714 558 q 439 715 566 715 q 297 687 363 715 q 183 600 231 659 l 183 60 q 378 33 269 33 z "},"c":{"ha":660,"x_min":89,"x_max":625,"o":"m 422 -12 q 175 83 260 -12 q 89 375 89 179 q 453 761 89 761 q 542 755 497 761 q 625 736 588 749 l 625 689 q 453 715 539 715 q 217 635 294 715 q 139 378 139 554 q 211 116 139 199 q 426 33 283 33 q 625 72 516 33 l 625 25 q 422 -12 525 -12 z "},"ć":{"ha":660,"x_min":89,"x_max":625,"o":"m 422 -12 q 175 83 260 -12 q 89 375 89 179 q 453 761 89 761 q 542 755 497 761 q 625 736 588 749 l 625 689 q 453 715 539 715 q 217 635 294 715 q 139 378 139 554 q 211 116 139 199 q 426 33 283 33 q 625 72 516 33 l 625 25 q 422 -12 525 -12 m 374 878 l 560 1122 l 618 1122 l 424 878 l 374 878 z "},"č":{"ha":660,"x_min":89,"x_max":625,"o":"m 422 -12 q 175 83 260 -12 q 89 375 89 179 q 453 761 89 761 q 542 755 497 761 q 625 736 588 749 l 625 689 q 453 715 539 715 q 217 635 294 715 q 139 378 139 554 q 211 116 139 199 q 426 33 283 33 q 625 72 516 33 l 625 25 q 422 -12 525 -12 m 557 1122 l 611 1122 l 425 878 l 372 878 l 186 1122 l 240 1122 l 399 910 l 557 1122 z "},"ç":{"ha":660,"x_min":89,"x_max":625,"o":"m 453 715 q 217 635 294 715 q 139 378 139 554 q 211 116 139 199 q 426 33 283 33 q 625 72 516 33 l 625 25 q 422 -12 525 -12 l 415 -12 l 415 -78 q 502 -106 472 -81 q 533 -178 533 -131 q 499 -252 533 -226 q 404 -278 465 -278 q 336 -270 371 -278 q 278 -250 301 -263 l 278 -211 q 404 -242 339 -242 q 472 -226 449 -242 q 494 -178 494 -210 q 472 -130 494 -145 q 403 -114 449 -114 l 376 -114 l 376 -10 q 163 98 237 2 q 89 375 89 194 q 453 761 89 761 q 542 755 497 761 q 625 736 588 749 l 625 689 q 453 715 539 715 z "},"ḉ":{"ha":660,"x_min":89,"x_max":625,"o":"m 618 1122 l 424 878 l 374 878 l 560 1122 l 618 1122 m 453 715 q 217 635 294 715 q 139 378 139 554 q 211 116 139 199 q 426 33 283 33 q 625 72 516 33 l 625 25 q 422 -12 525 -12 l 415 -12 l 415 -78 q 502 -106 472 -81 q 533 -178 533 -131 q 499 -252 533 -226 q 404 -278 465 -278 q 336 -270 371 -278 q 278 -250 301 -263 l 278 -211 q 404 -242 339 -242 q 472 -226 449 -242 q 494 -178 494 -210 q 472 -130 494 -145 q 403 -114 449 -114 l 376 -114 l 376 -10 q 163 98 237 2 q 89 375 89 194 q 453 761 89 761 q 542 755 497 761 q 625 736 588 749 l 625 689 q 453 715 539 715 z "},"ĉ":{"ha":660,"x_min":89,"x_max":625,"o":"m 422 -12 q 175 83 260 -12 q 89 375 89 179 q 453 761 89 761 q 542 755 497 761 q 625 736 588 749 l 625 689 q 453 715 539 715 q 217 635 294 715 q 139 378 139 554 q 211 116 139 199 q 426 33 283 33 q 625 72 516 33 l 625 25 q 422 -12 525 -12 m 606 878 l 551 878 l 399 1088 l 246 878 l 192 878 l 372 1122 l 425 1122 l 606 878 z "},"ċ":{"ha":660,"x_min":89,"x_max":625,"o":"m 422 -12 q 175 83 260 -12 q 89 375 89 179 q 453 761 89 761 q 542 755 497 761 q 625 736 588 749 l 625 689 q 453 715 539 715 q 217 635 294 715 q 139 378 139 554 q 211 116 139 199 q 426 33 283 33 q 625 72 516 33 l 625 25 q 422 -12 525 -12 m 399 944 q 368 956 380 944 q 356 988 356 968 q 368 1019 356 1007 q 399 1032 380 1032 q 430 1019 417 1032 q 442 988 442 1007 q 430 956 442 968 q 399 944 417 944 z "},"d":{"ha":853,"x_min":89,"x_max":717,"o":"m 417 -12 q 245 27 318 -12 q 130 150 172 67 q 89 360 89 233 q 490 761 89 761 q 669 743 576 761 l 669 1122 l 717 1122 l 717 0 l 675 0 l 671 92 l 665 92 q 556 15 621 42 q 417 -12 492 -12 m 419 33 q 558 63 493 33 q 669 157 622 92 l 669 693 q 584 709 632 703 q 488 715 536 715 q 225 630 310 715 q 139 365 139 544 q 419 33 139 33 z "},"ð":{"ha":836,"x_min":89,"x_max":746,"o":"m 561 919 q 697 668 647 804 q 746 396 746 532 q 705 167 746 258 q 591 32 665 76 q 419 -12 518 -12 q 176 82 264 -12 q 89 375 89 177 q 130 592 89 506 q 244 720 171 678 q 418 761 318 761 q 547 739 489 761 q 649 666 605 717 q 511 912 598 803 l 169 858 l 164 899 l 480 948 q 278 1122 397 1041 l 349 1122 q 532 956 451 1054 l 725 986 l 731 946 l 561 919 m 419 33 q 624 117 551 33 q 697 374 697 201 q 625 634 697 553 q 418 715 552 715 q 139 376 139 715 q 419 33 139 33 z "},"ď":{"ha":853,"x_min":89,"x_max":858,"o":"m 417 -12 q 245 27 318 -12 q 130 150 172 67 q 89 360 89 233 q 490 761 89 761 q 669 743 576 761 l 669 1122 l 717 1122 l 717 0 l 675 0 l 671 92 l 665 92 q 556 15 621 42 q 417 -12 492 -12 m 419 33 q 558 63 493 33 q 669 157 622 92 l 669 693 q 584 709 632 703 q 488 715 536 715 q 225 630 310 715 q 139 365 139 544 q 419 33 139 33 m 801 819 q 814 1122 814 929 l 858 1122 q 833 819 858 947 l 801 819 z "},"đ":{"ha":853,"x_min":89,"x_max":842,"o":"m 842 921 l 717 921 l 717 0 l 675 0 l 671 92 l 665 92 q 556 15 621 42 q 417 -12 492 -12 q 245 27 318 -12 q 130 150 172 67 q 89 360 89 233 q 490 761 89 761 q 669 743 576 761 l 669 921 l 372 921 l 372 963 l 669 963 l 669 1122 l 717 1122 l 717 963 l 842 963 l 842 921 m 669 693 q 584 709 632 703 q 488 715 536 715 q 225 630 310 715 q 139 365 139 544 q 419 33 139 33 q 558 63 493 33 q 669 157 622 92 l 669 693 z "},"ḍ":{"ha":853,"x_min":89,"x_max":717,"o":"m 417 -12 q 245 27 318 -12 q 130 150 172 67 q 89 360 89 233 q 490 761 89 761 q 669 743 576 761 l 669 1122 l 717 1122 l 717 0 l 675 0 l 671 92 l 665 92 q 556 15 621 42 q 417 -12 492 -12 m 419 33 q 558 63 493 33 q 669 157 622 92 l 669 693 q 584 709 632 703 q 488 715 536 715 q 225 630 310 715 q 139 365 139 544 q 419 33 139 33 m 425 -215 q 394 -203 406 -215 q 382 -172 382 -192 q 394 -140 382 -153 q 425 -128 406 -128 q 456 -140 444 -128 q 468 -172 468 -153 q 456 -203 468 -192 q 425 -215 444 -215 z "},"ḏ":{"ha":853,"x_min":89,"x_max":717,"o":"m 417 -12 q 245 27 318 -12 q 130 150 172 67 q 89 360 89 233 q 490 761 89 761 q 669 743 576 761 l 669 1122 l 717 1122 l 717 0 l 675 0 l 671 92 l 665 92 q 556 15 621 42 q 417 -12 492 -12 m 419 33 q 558 63 493 33 q 669 157 622 92 l 669 693 q 584 709 632 703 q 488 715 536 715 q 225 630 310 715 q 139 365 139 544 q 419 33 139 33 m 231 -194 l 231 -153 l 619 -153 l 619 -194 l 231 -194 z "},"ǳ":{"ha":1539,"x_min":89,"x_max":1494,"o":"m 417 -12 q 245 27 318 -12 q 130 150 172 67 q 89 360 89 233 q 490 761 89 761 q 669 743 576 761 l 669 1122 l 717 1122 l 717 0 l 675 0 l 671 92 l 665 92 q 556 15 621 42 q 417 -12 492 -12 m 419 33 q 558 63 493 33 q 669 157 622 92 l 669 693 q 584 709 632 703 q 488 715 536 715 q 225 630 310 715 q 139 365 139 544 q 419 33 139 33 m 969 44 l 1494 44 l 1494 0 l 900 0 l 900 28 l 1415 706 l 910 706 l 910 750 l 1485 750 l 1485 722 l 969 44 z "},"ǆ":{"ha":1539,"x_min":89,"x_max":1494,"o":"m 417 -12 q 245 27 318 -12 q 130 150 172 67 q 89 360 89 233 q 490 761 89 761 q 669 743 576 761 l 669 1122 l 717 1122 l 717 0 l 675 0 l 671 92 l 665 92 q 556 15 621 42 q 417 -12 492 -12 m 419 33 q 558 63 493 33 q 669 157 622 92 l 669 693 q 584 709 632 703 q 488 715 536 715 q 225 630 310 715 q 139 365 139 544 q 419 33 139 33 m 969 44 l 1494 44 l 1494 0 l 900 0 l 900 28 l 1415 706 l 910 706 l 910 750 l 1485 750 l 1485 722 l 969 44 m 1356 1122 l 1410 1122 l 1224 878 l 1171 878 l 985 1122 l 1039 1122 l 1197 910 l 1356 1122 z "},"e":{"ha":778,"x_min":89,"x_max":704,"o":"m 704 354 l 139 354 q 453 33 148 33 q 668 72 547 33 l 668 25 q 450 -12 553 -12 q 182 83 276 -12 q 89 375 89 179 q 126 589 89 502 q 234 718 164 675 q 400 761 303 761 q 625 663 547 761 q 704 375 704 565 l 704 354 m 400 715 q 139 400 147 715 l 656 400 q 588 638 652 560 q 400 715 523 715 z "},"é":{"ha":778,"x_min":89,"x_max":704,"o":"m 704 354 l 139 354 q 453 33 148 33 q 668 72 547 33 l 668 25 q 450 -12 553 -12 q 182 83 276 -12 q 89 375 89 179 q 126 589 89 502 q 234 718 164 675 q 400 761 303 761 q 625 663 547 761 q 704 375 704 565 l 704 354 m 400 715 q 139 400 147 715 l 656 400 q 588 638 652 560 q 400 715 523 715 m 379 878 l 565 1122 l 624 1122 l 429 878 l 379 878 z "},"ĕ":{"ha":778,"x_min":89,"x_max":704,"o":"m 704 354 l 139 354 q 453 33 148 33 q 668 72 547 33 l 668 25 q 450 -12 553 -12 q 182 83 276 -12 q 89 375 89 179 q 126 589 89 502 q 234 718 164 675 q 400 761 303 761 q 625 663 547 761 q 704 375 704 565 l 704 354 m 400 715 q 139 400 147 715 l 656 400 q 588 638 652 560 q 400 715 523 715 m 406 886 q 294 914 340 886 q 222 990 247 942 q 194 1103 197 1039 l 236 1103 q 282 974 242 1021 q 406 926 323 926 q 572 1103 560 926 l 614 1103 q 556 945 610 1004 q 406 886 503 886 z "},"ě":{"ha":778,"x_min":89,"x_max":704,"o":"m 704 354 l 139 354 q 453 33 148 33 q 668 72 547 33 l 668 25 q 450 -12 553 -12 q 182 83 276 -12 q 89 375 89 179 q 126 589 89 502 q 234 718 164 675 q 400 761 303 761 q 625 663 547 761 q 704 375 704 565 l 704 354 m 400 715 q 139 400 147 715 l 656 400 q 588 638 652 560 q 400 715 523 715 m 563 1122 l 617 1122 l 431 878 l 378 878 l 192 1122 l 246 1122 l 404 910 l 563 1122 z "},"ḝ":{"ha":778,"x_min":89,"x_max":704,"o":"m 406 886 q 294 914 340 886 q 222 990 247 942 q 194 1103 197 1039 l 236 1103 q 282 974 242 1021 q 406 926 323 926 q 572 1103 560 926 l 614 1103 q 556 945 610 1004 q 406 886 503 886 m 704 354 l 139 354 q 453 33 148 33 q 668 72 547 33 l 668 25 q 450 -12 553 -12 q 425 -12 433 -12 l 425 -78 q 512 -106 481 -81 q 543 -178 543 -131 q 509 -252 543 -226 q 414 -278 475 -278 q 345 -270 381 -278 q 288 -250 310 -263 l 288 -211 q 414 -242 349 -242 q 482 -226 459 -242 q 504 -178 504 -210 q 482 -130 504 -145 q 413 -114 459 -114 l 386 -114 l 386 -9 q 166 103 242 8 q 89 375 89 199 q 126 589 89 502 q 234 718 164 675 q 400 761 303 761 q 625 663 547 761 q 704 375 704 565 l 704 354 m 400 715 q 139 400 147 715 l 656 400 q 588 638 652 560 q 400 715 523 715 z "},"ê":{"ha":778,"x_min":89,"x_max":704,"o":"m 704 354 l 139 354 q 453 33 148 33 q 668 72 547 33 l 668 25 q 450 -12 553 -12 q 182 83 276 -12 q 89 375 89 179 q 126 589 89 502 q 234 718 164 675 q 400 761 303 761 q 625 663 547 761 q 704 375 704 565 l 704 354 m 400 715 q 139 400 147 715 l 656 400 q 588 638 652 560 q 400 715 523 715 m 611 878 l 557 878 l 404 1088 l 251 878 l 197 878 l 378 1122 l 431 1122 l 611 878 z "},"ế":{"ha":778,"x_min":89,"x_max":774,"o":"m 704 354 l 139 354 q 453 33 148 33 q 668 72 547 33 l 668 25 q 450 -12 553 -12 q 182 83 276 -12 q 89 375 89 179 q 126 589 89 502 q 234 718 164 675 q 400 761 303 761 q 625 663 547 761 q 704 375 704 565 l 704 354 m 400 715 q 139 400 147 715 l 656 400 q 588 638 652 560 q 400 715 523 715 m 774 1297 l 610 1108 l 560 1108 l 714 1297 l 774 1297 m 378 1122 l 431 1122 l 611 878 l 557 878 l 404 1088 l 251 878 l 197 878 l 378 1122 z "},"ệ":{"ha":778,"x_min":89,"x_max":704,"o":"m 704 354 l 139 354 q 453 33 148 33 q 668 72 547 33 l 668 25 q 450 -12 553 -12 q 182 83 276 -12 q 89 375 89 179 q 126 589 89 502 q 234 718 164 675 q 400 761 303 761 q 625 663 547 761 q 704 375 704 565 l 704 354 m 400 715 q 139 400 147 715 l 656 400 q 588 638 652 560 q 400 715 523 715 m 404 -215 q 373 -203 385 -215 q 361 -172 361 -192 q 373 -140 361 -153 q 404 -128 385 -128 q 435 -140 423 -128 q 447 -172 447 -153 q 435 -203 447 -192 q 404 -215 423 -215 m 611 878 l 557 878 l 404 1088 l 251 878 l 197 878 l 378 1122 l 431 1122 l 611 878 z "},"ề":{"ha":778,"x_min":89,"x_max":704,"o":"m 704 354 l 139 354 q 453 33 148 33 q 668 72 547 33 l 668 25 q 450 -12 553 -12 q 182 83 276 -12 q 89 375 89 179 q 126 589 89 502 q 234 718 164 675 q 400 761 303 761 q 625 663 547 761 q 704 375 704 565 l 704 354 m 400 715 q 139 400 147 715 l 656 400 q 588 638 652 560 q 400 715 523 715 m 628 1108 l 578 1108 l 414 1297 l 474 1297 l 628 1108 m 378 1122 l 431 1122 l 611 878 l 557 878 l 404 1088 l 251 878 l 197 878 l 378 1122 z "},"ể":{"ha":778,"x_min":89,"x_max":733,"o":"m 704 354 l 139 354 q 453 33 148 33 q 668 72 547 33 l 668 25 q 450 -12 553 -12 q 182 83 276 -12 q 89 375 89 179 q 126 589 89 502 q 234 718 164 675 q 400 761 303 761 q 625 663 547 761 q 704 375 704 565 l 704 354 m 400 715 q 139 400 147 715 l 656 400 q 588 638 652 560 q 400 715 523 715 m 603 1297 q 701 1277 669 1297 q 733 1222 733 1256 q 716 1182 733 1195 q 667 1156 699 1168 q 627 1136 641 1146 q 611 1108 613 1126 l 565 1108 q 577 1142 566 1128 q 602 1163 588 1155 q 640 1180 616 1170 q 680 1199 667 1190 q 693 1222 693 1208 q 673 1250 693 1240 q 603 1260 653 1260 q 527 1254 560 1260 q 453 1235 494 1249 l 453 1272 q 603 1297 517 1297 m 378 1122 l 431 1122 l 611 878 l 557 878 l 404 1088 l 251 878 l 197 878 l 378 1122 z "},"ễ":{"ha":778,"x_min":89,"x_max":704,"o":"m 704 354 l 139 354 q 453 33 148 33 q 668 72 547 33 l 668 25 q 450 -12 553 -12 q 182 83 276 -12 q 89 375 89 179 q 126 589 89 502 q 234 718 164 675 q 400 761 303 761 q 625 663 547 761 q 704 375 704 565 l 704 354 m 400 715 q 139 400 147 715 l 656 400 q 588 638 652 560 q 400 715 523 715 m 508 1204 q 570 1216 542 1204 q 624 1253 599 1228 l 624 1206 q 508 1164 582 1164 q 455 1171 481 1164 q 393 1192 430 1178 q 340 1210 360 1204 q 300 1215 320 1215 q 238 1203 266 1215 q 185 1167 210 1192 l 185 1214 q 300 1256 226 1256 q 353 1249 328 1256 q 415 1228 378 1242 q 468 1210 449 1215 q 508 1204 488 1204 m 378 1122 l 431 1122 l 611 878 l 557 878 l 404 1088 l 251 878 l 197 878 l 378 1122 z "},"ȅ":{"ha":778,"x_min":89,"x_max":704,"o":"m 704 354 l 139 354 q 453 33 148 33 q 668 72 547 33 l 668 25 q 450 -12 553 -12 q 182 83 276 -12 q 89 375 89 179 q 126 589 89 502 q 234 718 164 675 q 400 761 303 761 q 625 663 547 761 q 704 375 704 565 l 704 354 m 400 715 q 139 400 147 715 l 656 400 q 588 638 652 560 q 400 715 523 715 m 264 878 l 133 1122 l 185 1122 l 311 878 l 264 878 m 497 878 l 367 1122 l 418 1122 l 544 878 l 497 878 z "},"ë":{"ha":778,"x_min":89,"x_max":704,"o":"m 704 354 l 139 354 q 453 33 148 33 q 668 72 547 33 l 668 25 q 450 -12 553 -12 q 182 83 276 -12 q 89 375 89 179 q 126 589 89 502 q 234 718 164 675 q 400 761 303 761 q 625 663 547 761 q 704 375 704 565 l 704 354 m 400 715 q 139 400 147 715 l 656 400 q 588 638 652 560 q 400 715 523 715 m 238 944 q 207 956 219 944 q 194 988 194 968 q 207 1019 194 1007 q 238 1032 219 1032 q 268 1019 256 1032 q 281 988 281 1007 q 268 956 281 968 q 238 944 256 944 m 571 944 q 540 956 552 944 q 528 988 528 968 q 540 1019 528 1007 q 571 1032 552 1032 q 602 1019 590 1032 q 614 988 614 1007 q 602 956 614 968 q 571 944 590 944 z "},"ė":{"ha":778,"x_min":89,"x_max":704,"o":"m 704 354 l 139 354 q 453 33 148 33 q 668 72 547 33 l 668 25 q 450 -12 553 -12 q 182 83 276 -12 q 89 375 89 179 q 126 589 89 502 q 234 718 164 675 q 400 761 303 761 q 625 663 547 761 q 704 375 704 565 l 704 354 m 400 715 q 139 400 147 715 l 656 400 q 588 638 652 560 q 400 715 523 715 m 404 944 q 373 956 385 944 q 361 988 361 968 q 373 1019 361 1007 q 404 1032 385 1032 q 435 1019 423 1032 q 447 988 447 1007 q 435 956 447 968 q 404 944 423 944 z "},"ẹ":{"ha":778,"x_min":89,"x_max":704,"o":"m 704 354 l 139 354 q 453 33 148 33 q 668 72 547 33 l 668 25 q 450 -12 553 -12 q 182 83 276 -12 q 89 375 89 179 q 126 589 89 502 q 234 718 164 675 q 400 761 303 761 q 625 663 547 761 q 704 375 704 565 l 704 354 m 400 715 q 139 400 147 715 l 656 400 q 588 638 652 560 q 400 715 523 715 m 404 -215 q 373 -203 385 -215 q 361 -172 361 -192 q 373 -140 361 -153 q 404 -128 385 -128 q 435 -140 423 -128 q 447 -172 447 -153 q 435 -203 447 -192 q 404 -215 423 -215 z "},"è":{"ha":778,"x_min":89,"x_max":704,"o":"m 704 354 l 139 354 q 453 33 148 33 q 668 72 547 33 l 668 25 q 450 -12 553 -12 q 182 83 276 -12 q 89 375 89 179 q 126 589 89 502 q 234 718 164 675 q 400 761 303 761 q 625 663 547 761 q 704 375 704 565 l 704 354 m 400 715 q 139 400 147 715 l 656 400 q 588 638 652 560 q 400 715 523 715 m 379 878 l 185 1122 l 243 1122 l 429 878 l 379 878 z "},"ẻ":{"ha":778,"x_min":89,"x_max":704,"o":"m 704 354 l 139 354 q 453 33 148 33 q 668 72 547 33 l 668 25 q 450 -12 553 -12 q 182 83 276 -12 q 89 375 89 179 q 126 589 89 502 q 234 718 164 675 q 400 761 303 761 q 625 663 547 761 q 704 375 704 565 l 704 354 m 400 715 q 139 400 147 715 l 656 400 q 588 638 652 560 q 400 715 523 715 m 383 878 q 395 923 384 904 q 420 953 406 942 q 457 978 435 965 q 495 1006 483 994 q 507 1038 507 1019 q 482 1078 507 1065 q 407 1092 458 1092 q 346 1088 378 1092 q 290 1075 315 1083 l 290 1114 q 343 1126 313 1122 q 403 1131 373 1131 q 512 1107 476 1131 q 547 1038 547 1083 q 539 1001 547 1016 q 518 976 531 985 q 486 953 506 966 q 443 921 458 937 q 426 878 428 905 l 383 878 z "},"ȇ":{"ha":778,"x_min":89,"x_max":704,"o":"m 704 354 l 139 354 q 453 33 148 33 q 668 72 547 33 l 668 25 q 450 -12 553 -12 q 182 83 276 -12 q 89 375 89 179 q 126 589 89 502 q 234 718 164 675 q 400 761 303 761 q 625 663 547 761 q 704 375 704 565 l 704 354 m 400 715 q 139 400 147 715 l 656 400 q 588 638 652 560 q 400 715 523 715 m 194 897 q 252 1055 199 996 q 403 1114 305 1114 q 515 1086 468 1114 q 586 1010 561 1058 q 614 897 611 961 l 572 897 q 525 1025 567 978 q 403 1072 483 1072 q 282 1026 322 1072 q 236 897 242 979 l 194 897 z "},"ē":{"ha":778,"x_min":89,"x_max":704,"o":"m 704 354 l 139 354 q 453 33 148 33 q 668 72 547 33 l 668 25 q 450 -12 553 -12 q 182 83 276 -12 q 89 375 89 179 q 126 589 89 502 q 234 718 164 675 q 400 761 303 761 q 625 663 547 761 q 704 375 704 565 l 704 354 m 400 715 q 139 400 147 715 l 656 400 q 588 638 652 560 q 400 715 523 715 m 185 968 l 185 1010 l 624 1010 l 624 968 l 185 968 z "},"ḗ":{"ha":778,"x_min":89,"x_max":704,"o":"m 704 354 l 139 354 q 453 33 148 33 q 668 72 547 33 l 668 25 q 450 -12 553 -12 q 182 83 276 -12 q 89 375 89 179 q 126 589 89 502 q 234 718 164 675 q 400 761 303 761 q 625 663 547 761 q 704 375 704 565 l 704 354 m 400 715 q 139 400 147 715 l 656 400 q 588 638 652 560 q 400 715 523 715 m 185 968 l 185 1010 l 624 1010 l 624 968 l 185 968 m 379 1108 l 533 1297 l 593 1297 l 429 1108 l 379 1108 z "},"ḕ":{"ha":778,"x_min":89,"x_max":704,"o":"m 704 354 l 139 354 q 453 33 148 33 q 668 72 547 33 l 668 25 q 450 -12 553 -12 q 182 83 276 -12 q 89 375 89 179 q 126 589 89 502 q 234 718 164 675 q 400 761 303 761 q 625 663 547 761 q 704 375 704 565 l 704 354 m 400 715 q 139 400 147 715 l 656 400 q 588 638 652 560 q 400 715 523 715 m 185 968 l 185 1010 l 624 1010 l 624 968 l 185 968 m 379 1108 l 215 1297 l 275 1297 l 429 1108 l 379 1108 z "},"ę":{"ha":778,"x_min":89,"x_max":704,"o":"m 704 354 l 139 354 q 453 33 148 33 q 668 72 547 33 l 668 25 q 500 -58 549 -10 q 451 -157 451 -105 q 477 -219 451 -197 q 549 -242 503 -242 q 668 -210 608 -242 l 668 -249 q 610 -270 642 -262 q 551 -278 578 -278 q 450 -246 487 -278 q 413 -160 413 -214 q 437 -76 413 -115 q 503 -10 461 -37 q 450 -12 480 -12 q 182 83 276 -12 q 89 375 89 179 q 126 589 89 502 q 234 718 164 675 q 400 761 303 761 q 625 663 547 761 q 704 375 704 565 l 704 354 m 400 715 q 139 400 147 715 l 656 400 q 588 638 652 560 q 400 715 523 715 z "},"ẽ":{"ha":778,"x_min":89,"x_max":704,"o":"m 704 354 l 139 354 q 453 33 148 33 q 668 72 547 33 l 668 25 q 450 -12 553 -12 q 182 83 276 -12 q 89 375 89 179 q 126 589 89 502 q 234 718 164 675 q 400 761 303 761 q 625 663 547 761 q 704 375 704 565 l 704 354 m 400 715 q 139 400 147 715 l 656 400 q 588 638 652 560 q 400 715 523 715 m 508 958 q 455 965 481 958 q 393 986 430 972 q 340 1004 360 999 q 300 1010 320 1010 q 238 998 266 1010 q 185 961 210 986 l 185 1008 q 300 1050 226 1050 q 353 1043 328 1050 q 415 1022 378 1036 q 468 1004 449 1010 q 508 999 488 999 q 570 1010 542 999 q 624 1047 599 1022 l 624 1000 q 508 958 582 958 z "},"ə":{"ha":778,"x_min":74,"x_max":689,"o":"m 328 763 q 595 667 502 763 q 689 375 689 571 q 651 161 689 248 q 544 32 614 75 q 378 -11 474 -11 q 152 87 231 -11 q 74 375 74 185 l 74 396 l 639 396 q 325 717 630 717 q 110 678 231 717 l 110 725 q 328 763 224 763 m 378 35 q 639 350 631 35 l 122 350 q 190 112 126 190 q 378 35 255 35 z "},"f":{"ha":536,"x_min":15,"x_max":567,"o":"m 453 1090 q 326 1068 375 1090 q 253 996 278 1046 q 229 863 229 946 l 229 750 l 536 750 l 536 706 l 229 706 l 229 0 l 182 0 l 182 706 l 15 706 l 15 750 l 182 750 l 182 857 q 250 1068 182 999 q 456 1136 317 1136 q 567 1126 506 1136 l 567 1079 q 453 1090 507 1090 z "},"g":{"ha":853,"x_min":89,"x_max":717,"o":"m 375 -319 q 255 -309 320 -319 q 138 -279 190 -298 l 138 -232 q 376 -274 263 -274 q 543 -245 479 -274 q 638 -154 607 -217 q 669 15 669 -91 l 669 88 l 665 88 q 555 14 619 40 q 411 -12 490 -12 q 244 26 316 -12 q 130 147 172 64 q 89 360 89 230 q 481 761 89 761 q 717 728 600 761 l 717 19 q 679 -176 717 -101 q 566 -285 641 -251 q 375 -319 490 -319 m 414 33 q 555 61 488 33 q 669 149 622 90 l 669 692 q 475 715 585 715 q 223 630 307 715 q 139 365 139 544 q 213 112 139 190 q 414 33 287 33 z "},"ǵ":{"ha":853,"x_min":89,"x_max":717,"o":"m 375 -319 q 255 -309 320 -319 q 138 -279 190 -298 l 138 -232 q 376 -274 263 -274 q 543 -245 479 -274 q 638 -154 607 -217 q 669 15 669 -91 l 669 88 l 665 88 q 555 14 619 40 q 411 -12 490 -12 q 244 26 316 -12 q 130 147 172 64 q 89 360 89 230 q 481 761 89 761 q 717 728 600 761 l 717 19 q 679 -176 717 -101 q 566 -285 641 -251 q 375 -319 490 -319 m 414 33 q 555 61 488 33 q 669 149 622 90 l 669 692 q 475 715 585 715 q 223 630 307 715 q 139 365 139 544 q 213 112 139 190 q 414 33 287 33 m 413 878 l 599 1122 l 657 1122 l 463 878 l 413 878 z "},"ğ":{"ha":853,"x_min":89,"x_max":717,"o":"m 375 -319 q 255 -309 320 -319 q 138 -279 190 -298 l 138 -232 q 376 -274 263 -274 q 543 -245 479 -274 q 638 -154 607 -217 q 669 15 669 -91 l 669 88 l 665 88 q 555 14 619 40 q 411 -12 490 -12 q 244 26 316 -12 q 130 147 172 64 q 89 360 89 230 q 481 761 89 761 q 717 728 600 761 l 717 19 q 679 -176 717 -101 q 566 -285 641 -251 q 375 -319 490 -319 m 414 33 q 555 61 488 33 q 669 149 622 90 l 669 692 q 475 715 585 715 q 223 630 307 715 q 139 365 139 544 q 213 112 139 190 q 414 33 287 33 m 439 886 q 327 914 374 886 q 256 990 281 942 q 228 1103 231 1039 l 269 1103 q 316 974 275 1021 q 439 926 356 926 q 606 1103 594 926 l 647 1103 q 590 945 643 1004 q 439 886 536 886 z "},"ǧ":{"ha":853,"x_min":89,"x_max":717,"o":"m 375 -319 q 255 -309 320 -319 q 138 -279 190 -298 l 138 -232 q 376 -274 263 -274 q 543 -245 479 -274 q 638 -154 607 -217 q 669 15 669 -91 l 669 88 l 665 88 q 555 14 619 40 q 411 -12 490 -12 q 244 26 316 -12 q 130 147 172 64 q 89 360 89 230 q 481 761 89 761 q 717 728 600 761 l 717 19 q 679 -176 717 -101 q 566 -285 641 -251 q 375 -319 490 -319 m 414 33 q 555 61 488 33 q 669 149 622 90 l 669 692 q 475 715 585 715 q 223 630 307 715 q 139 365 139 544 q 213 112 139 190 q 414 33 287 33 m 596 1122 l 650 1122 l 464 878 l 411 878 l 225 1122 l 279 1122 l 438 910 l 596 1122 z "},"ĝ":{"ha":853,"x_min":89,"x_max":717,"o":"m 375 -319 q 255 -309 320 -319 q 138 -279 190 -298 l 138 -232 q 376 -274 263 -274 q 543 -245 479 -274 q 638 -154 607 -217 q 669 15 669 -91 l 669 88 l 665 88 q 555 14 619 40 q 411 -12 490 -12 q 244 26 316 -12 q 130 147 172 64 q 89 360 89 230 q 481 761 89 761 q 717 728 600 761 l 717 19 q 679 -176 717 -101 q 566 -285 641 -251 q 375 -319 490 -319 m 414 33 q 555 61 488 33 q 669 149 622 90 l 669 692 q 475 715 585 715 q 223 630 307 715 q 139 365 139 544 q 213 112 139 190 q 414 33 287 33 m 644 878 l 590 878 l 438 1088 l 285 878 l 231 878 l 411 1122 l 464 1122 l 644 878 z "},"ģ":{"ha":853,"x_min":89,"x_max":717,"o":"m 375 -319 q 255 -309 320 -319 q 138 -279 190 -298 l 138 -232 q 376 -274 263 -274 q 543 -245 479 -274 q 638 -154 607 -217 q 669 15 669 -91 l 669 88 l 665 88 q 555 14 619 40 q 411 -12 490 -12 q 244 26 316 -12 q 130 147 172 64 q 89 360 89 230 q 481 761 89 761 q 717 728 600 761 l 717 19 q 679 -176 717 -101 q 566 -285 641 -251 q 375 -319 490 -319 m 414 33 q 555 61 488 33 q 669 149 622 90 l 669 692 q 475 715 585 715 q 223 630 307 715 q 139 365 139 544 q 213 112 139 190 q 414 33 287 33 m 438 1032 q 468 1019 456 1032 q 481 988 481 1007 q 469 957 481 969 q 440 944 458 944 q 407 960 419 944 q 394 1004 394 975 q 402 1064 394 1031 q 425 1128 410 1097 l 456 1128 q 433 1032 436 1078 l 438 1032 z "},"ġ":{"ha":853,"x_min":89,"x_max":717,"o":"m 375 -319 q 255 -309 320 -319 q 138 -279 190 -298 l 138 -232 q 376 -274 263 -274 q 543 -245 479 -274 q 638 -154 607 -217 q 669 15 669 -91 l 669 88 l 665 88 q 555 14 619 40 q 411 -12 490 -12 q 244 26 316 -12 q 130 147 172 64 q 89 360 89 230 q 481 761 89 761 q 717 728 600 761 l 717 19 q 679 -176 717 -101 q 566 -285 641 -251 q 375 -319 490 -319 m 414 33 q 555 61 488 33 q 669 149 622 90 l 669 692 q 475 715 585 715 q 223 630 307 715 q 139 365 139 544 q 213 112 139 190 q 414 33 287 33 m 438 944 q 407 956 419 944 q 394 988 394 968 q 407 1019 394 1007 q 438 1032 419 1032 q 468 1019 456 1032 q 481 988 481 1007 q 468 956 481 968 q 438 944 456 944 z "},"ḡ":{"ha":853,"x_min":89,"x_max":717,"o":"m 375 -319 q 255 -309 320 -319 q 138 -279 190 -298 l 138 -232 q 376 -274 263 -274 q 543 -245 479 -274 q 638 -154 607 -217 q 669 15 669 -91 l 669 88 l 665 88 q 555 14 619 40 q 411 -12 490 -12 q 244 26 316 -12 q 130 147 172 64 q 89 360 89 230 q 481 761 89 761 q 717 728 600 761 l 717 19 q 679 -176 717 -101 q 566 -285 641 -251 q 375 -319 490 -319 m 414 33 q 555 61 488 33 q 669 149 622 90 l 669 692 q 475 715 585 715 q 223 630 307 715 q 139 365 139 544 q 213 112 139 190 q 414 33 287 33 m 218 968 l 218 1010 l 657 1010 l 657 968 l 218 968 z "},"h":{"ha":864,"x_min":136,"x_max":740,"o":"m 136 1122 l 183 1122 l 183 660 l 188 660 q 317 735 244 710 q 472 761 390 761 q 670 697 599 761 q 740 492 740 632 l 740 0 l 693 0 l 693 490 q 635 662 693 610 q 471 714 577 714 q 316 684 392 714 q 183 593 240 654 l 183 0 l 136 0 l 136 1122 z "},"ħ":{"ha":864,"x_min":11,"x_max":740,"o":"m 472 761 q 670 697 599 761 q 740 492 740 632 l 740 0 l 693 0 l 693 490 q 635 662 693 610 q 471 714 577 714 q 316 684 392 714 q 183 593 240 654 l 183 0 l 136 0 l 136 921 l 11 921 l 11 963 l 136 963 l 136 1122 l 183 1122 l 183 963 l 481 963 l 481 921 l 183 921 l 183 660 l 188 660 q 317 735 244 710 q 472 761 390 761 z "},"ḫ":{"ha":864,"x_min":136,"x_max":740,"o":"m 136 1122 l 183 1122 l 183 660 l 188 660 q 317 735 244 710 q 472 761 390 761 q 670 697 599 761 q 740 492 740 632 l 740 0 l 693 0 l 693 490 q 635 662 693 610 q 471 714 577 714 q 316 684 392 714 q 183 593 240 654 l 183 0 l 136 0 l 136 1122 m 440 -278 q 325 -256 372 -278 q 254 -196 278 -233 q 229 -111 230 -158 l 271 -111 q 315 -203 274 -169 q 440 -236 356 -236 q 607 -111 600 -236 l 649 -111 q 625 -197 648 -159 q 555 -256 601 -234 q 440 -278 508 -278 z "},"ĥ":{"ha":864,"x_min":136,"x_max":740,"o":"m 136 1122 l 183 1122 l 183 660 l 188 660 q 317 735 244 710 q 472 761 390 761 q 670 697 599 761 q 740 492 740 632 l 740 0 l 693 0 l 693 490 q 635 662 693 610 q 471 714 577 714 q 316 684 392 714 q 183 593 240 654 l 183 0 l 136 0 l 136 1122 m 663 1189 l 599 1189 l 439 1346 l 279 1189 l 215 1189 l 413 1378 l 465 1378 l 663 1189 z "},"ḥ":{"ha":864,"x_min":136,"x_max":740,"o":"m 136 1122 l 183 1122 l 183 660 l 188 660 q 317 735 244 710 q 472 761 390 761 q 670 697 599 761 q 740 492 740 632 l 740 0 l 693 0 l 693 490 q 635 662 693 610 q 471 714 577 714 q 316 684 392 714 q 183 593 240 654 l 183 0 l 136 0 l 136 1122 m 439 -215 q 408 -203 420 -215 q 396 -172 396 -192 q 408 -140 396 -153 q 439 -128 420 -128 q 470 -140 458 -128 q 482 -172 482 -153 q 470 -203 482 -192 q 439 -215 458 -215 z "},"i":{"ha":319,"x_min":117,"x_max":203,"o":"m 136 0 l 136 750 l 183 750 l 183 0 l 136 0 m 160 944 q 129 956 141 944 q 117 988 117 968 q 129 1019 117 1007 q 160 1032 141 1032 q 191 1019 178 1032 q 203 988 203 1007 q 191 956 203 968 q 160 944 178 944 z "},"ı":{"ha":319,"x_min":136,"x_max":183,"o":"m 136 0 l 136 750 l 183 750 l 183 0 l 136 0 z "},"í":{"ha":319,"x_min":135,"x_max":379,"o":"m 136 0 l 136 750 l 183 750 l 183 0 l 136 0 m 135 878 l 321 1122 l 379 1122 l 185 878 l 135 878 z "},"ĭ":{"ha":319,"x_min":-50,"x_max":369,"o":"m 136 0 l 136 750 l 183 750 l 183 0 l 136 0 m 161 886 q 49 914 96 886 q -22 990 3 942 q -50 1103 -47 1039 l -8 1103 q 38 974 -3 1021 q 161 926 78 926 q 328 1103 316 926 l 369 1103 q 312 945 365 1004 q 161 886 258 886 z "},"î":{"ha":319,"x_min":-47,"x_max":367,"o":"m 136 0 l 136 750 l 183 750 l 183 0 l 136 0 m 367 878 l 313 878 l 160 1088 l 7 878 l -47 878 l 133 1122 l 186 1122 l 367 878 z "},"ȉ":{"ha":319,"x_min":-111,"x_max":300,"o":"m 136 0 l 136 750 l 183 750 l 183 0 l 136 0 m 19 878 l -111 1122 l -60 1122 l 67 878 l 19 878 m 253 878 l 122 1122 l 174 1122 l 300 878 l 253 878 z "},"ï":{"ha":319,"x_min":-50,"x_max":369,"o":"m 136 0 l 136 750 l 183 750 l 183 0 l 136 0 m -7 944 q -38 956 -26 944 q -50 988 -50 968 q -38 1019 -50 1007 q -7 1032 -26 1032 q 24 1019 12 1032 q 36 988 36 1007 q 24 956 36 968 q -7 944 12 944 m 326 944 q 295 956 308 944 q 283 988 283 968 q 295 1019 283 1007 q 326 1032 308 1032 q 357 1019 345 1032 q 369 988 369 1007 q 357 956 369 968 q 326 944 345 944 z "},"ḯ":{"ha":319,"x_min":-50,"x_max":369,"o":"m 136 0 l 136 750 l 183 750 l 183 0 l 136 0 m -7 944 q -38 956 -26 944 q -50 988 -50 968 q -38 1019 -50 1007 q -7 1032 -26 1032 q 24 1019 12 1032 q 36 988 36 1007 q 24 956 36 968 q -7 944 12 944 m 326 944 q 295 956 308 944 q 283 988 283 968 q 295 1019 283 1007 q 326 1032 308 1032 q 357 1019 345 1032 q 369 988 369 1007 q 357 956 369 968 q 326 944 345 944 m 135 1108 l 289 1297 l 349 1297 l 185 1108 l 135 1108 z "},"ị":{"ha":319,"x_min":117,"x_max":203,"o":"m 136 0 l 136 750 l 183 750 l 183 0 l 136 0 m 160 944 q 129 956 141 944 q 117 988 117 968 q 129 1019 117 1007 q 160 1032 141 1032 q 191 1019 178 1032 q 203 988 203 1007 q 191 956 203 968 q 160 944 178 944 m 160 -215 q 129 -203 141 -215 q 117 -172 117 -192 q 129 -140 117 -153 q 160 -128 141 -128 q 191 -140 178 -128 q 203 -172 203 -153 q 191 -203 203 -192 q 160 -215 178 -215 z "},"ì":{"ha":319,"x_min":-60,"x_max":185,"o":"m 136 0 l 136 750 l 183 750 l 183 0 l 136 0 m 135 878 l -60 1122 l -1 1122 l 185 878 l 135 878 z "},"ỉ":{"ha":319,"x_min":46,"x_max":303,"o":"m 136 0 l 136 750 l 183 750 l 183 0 l 136 0 m 139 878 q 150 923 140 904 q 176 953 161 942 q 213 978 190 965 q 250 1006 238 994 q 263 1038 263 1019 q 238 1078 263 1065 q 163 1092 213 1092 q 102 1088 133 1092 q 46 1075 70 1083 l 46 1114 q 98 1126 68 1122 q 158 1131 128 1131 q 267 1107 232 1131 q 303 1038 303 1083 q 294 1001 303 1016 q 274 976 286 985 q 242 953 262 966 q 198 921 213 937 q 182 878 183 905 l 139 878 z "},"ȋ":{"ha":319,"x_min":-50,"x_max":369,"o":"m 136 0 l 136 750 l 183 750 l 183 0 l 136 0 m -50 897 q 7 1055 -46 996 q 158 1114 60 1114 q 270 1086 224 1114 q 342 1010 317 1058 q 369 897 367 961 l 328 897 q 281 1025 322 978 q 158 1072 239 1072 q 38 1026 78 1072 q -8 897 -3 979 l -50 897 z "},"ī":{"ha":319,"x_min":-60,"x_max":379,"o":"m 136 0 l 136 750 l 183 750 l 183 0 l 136 0 m -60 968 l -60 1010 l 379 1010 l 379 968 l -60 968 z "},"į":{"ha":319,"x_min":10,"x_max":265,"o":"m 160 944 q 129 956 141 944 q 117 988 117 968 q 129 1019 117 1007 q 160 1032 141 1032 q 191 1019 178 1032 q 203 988 203 1007 q 191 956 203 968 q 160 944 178 944 m 146 -242 q 265 -210 206 -242 l 265 -249 q 208 -270 240 -262 q 149 -278 176 -278 q 47 -246 84 -278 q 10 -160 10 -214 q 40 -65 10 -108 q 136 16 71 -22 l 136 750 l 183 750 l 183 0 q 80 -75 112 -38 q 49 -158 49 -112 q 75 -219 49 -197 q 146 -242 101 -242 z "},"ĩ":{"ha":319,"x_min":-60,"x_max":379,"o":"m 136 0 l 136 750 l 183 750 l 183 0 l 136 0 m 264 958 q 211 965 236 958 q 149 986 185 972 q 95 1004 115 999 q 56 1010 76 1010 q -7 998 22 1010 q -60 961 -35 986 l -60 1008 q 56 1050 -18 1050 q 109 1043 83 1050 q 171 1022 134 1036 q 224 1004 204 1010 q 264 999 244 999 q 326 1010 298 999 q 379 1047 354 1022 l 379 1000 q 264 958 338 958 z "},"j":{"ha":319,"x_min":-11,"x_max":203,"o":"m -11 -294 q 100 -104 65 -203 q 136 115 136 -5 l 136 750 l 183 750 l 183 118 q 145 -115 183 -10 q 22 -319 106 -219 l -11 -294 m 160 953 q 129 965 141 953 q 117 996 117 976 q 129 1028 117 1015 q 160 1040 141 1040 q 191 1028 178 1040 q 203 996 203 1015 q 191 965 203 976 q 160 953 178 953 z "},"ȷ":{"ha":319,"x_min":-11,"x_max":183,"o":"m -11 -294 q 100 -104 65 -203 q 136 115 136 -5 l 136 750 l 183 750 l 183 118 q 145 -115 183 -10 q 22 -319 106 -219 l -11 -294 z "},"ĵ":{"ha":319,"x_min":-47,"x_max":367,"o":"m -11 -294 q 100 -104 65 -203 q 136 115 136 -5 l 136 750 l 183 750 l 183 118 q 145 -115 183 -10 q 22 -319 106 -219 l -11 -294 m 367 886 l 313 886 l 160 1097 l 7 886 l -47 886 l 133 1131 l 186 1131 l 367 886 z "},"k":{"ha":751,"x_min":136,"x_max":756,"o":"m 696 0 l 358 361 l 183 361 l 183 0 l 136 0 l 136 1122 l 183 1122 l 183 406 l 358 406 l 674 750 l 733 750 l 399 383 l 756 0 l 696 0 z "},"ķ":{"ha":751,"x_min":136,"x_max":756,"o":"m 696 0 l 358 361 l 183 361 l 183 0 l 136 0 l 136 1122 l 183 1122 l 183 406 l 358 406 l 674 750 l 733 750 l 399 383 l 756 0 l 696 0 m 397 -128 q 431 -143 419 -128 q 443 -187 443 -158 q 435 -247 443 -214 q 413 -311 428 -281 l 382 -311 q 405 -215 401 -262 l 400 -215 q 369 -203 381 -215 q 357 -171 357 -190 q 368 -140 357 -152 q 397 -128 380 -128 z "},"ĸ":{"ha":751,"x_min":136,"x_max":756,"o":"m 696 0 l 358 361 l 183 361 l 183 0 l 136 0 l 136 750 l 183 750 l 183 406 l 358 406 l 674 750 l 733 750 l 399 383 l 756 0 l 696 0 z "},"l":{"ha":319,"x_min":136,"x_max":183,"o":"m 136 0 l 136 1122 l 183 1122 l 183 0 l 136 0 z "},"ĺ":{"ha":319,"x_min":135,"x_max":349,"o":"m 136 0 l 136 1122 l 183 1122 l 183 0 l 136 0 m 135 1189 l 289 1378 l 349 1378 l 185 1189 l 135 1189 z "},"ľ":{"ha":319,"x_min":136,"x_max":325,"o":"m 136 0 l 136 1122 l 183 1122 l 183 0 l 136 0 m 268 819 q 281 1122 281 929 l 325 1122 q 300 819 325 947 l 268 819 z "},"ļ":{"ha":319,"x_min":117,"x_max":203,"o":"m 136 0 l 136 1122 l 183 1122 l 183 0 l 136 0 m 157 -128 q 191 -143 178 -128 q 203 -187 203 -158 q 195 -247 203 -214 q 172 -311 188 -281 l 142 -311 q 165 -215 161 -262 l 160 -215 q 129 -203 141 -215 q 117 -171 117 -190 q 128 -140 117 -152 q 157 -128 140 -128 z "},"ŀ":{"ha":319,"x_min":136,"x_max":351,"o":"m 136 0 l 136 1122 l 183 1122 l 183 0 l 136 0 m 308 507 q 277 519 290 507 q 265 550 265 531 q 277 582 265 569 q 308 594 290 594 q 339 582 327 594 q 351 550 351 569 q 339 519 351 531 q 308 507 327 507 z "},"ḷ":{"ha":319,"x_min":117,"x_max":203,"o":"m 136 0 l 136 1122 l 183 1122 l 183 0 l 136 0 m 160 -215 q 129 -203 141 -215 q 117 -172 117 -192 q 129 -140 117 -153 q 160 -128 141 -128 q 191 -140 178 -128 q 203 -172 203 -153 q 191 -203 203 -192 q 160 -215 178 -215 z "},"ǉ":{"ha":639,"x_min":136,"x_max":522,"o":"m 136 0 l 136 1122 l 183 1122 l 183 0 l 136 0 m 308 -294 q 420 -104 384 -203 q 456 115 456 -5 l 456 750 l 503 750 l 503 118 q 464 -115 503 -10 q 342 -319 426 -219 l 308 -294 m 479 953 q 448 965 460 953 q 436 996 436 976 q 448 1028 436 1015 q 479 1040 460 1040 q 510 1028 498 1040 q 522 996 522 1015 q 510 965 522 976 q 479 953 498 953 z "},"ḻ":{"ha":319,"x_min":-35,"x_max":354,"o":"m 136 0 l 136 1122 l 183 1122 l 183 0 l 136 0 m -35 -194 l -35 -153 l 354 -153 l 354 -194 l -35 -194 z "},"ł":{"ha":319,"x_min":13,"x_max":310,"o":"m 310 585 l 183 486 l 183 0 l 136 0 l 136 449 l 39 374 l 13 407 l 136 503 l 136 1122 l 183 1122 l 183 540 l 283 618 l 310 585 z "},"m":{"ha":1260,"x_min":136,"x_max":1136,"o":"m 899 761 q 1073 696 1010 761 q 1136 492 1136 631 l 1136 0 l 1089 0 l 1089 490 q 1039 663 1089 610 q 897 715 988 715 q 766 686 832 715 q 652 592 701 656 q 663 492 663 549 l 663 0 l 615 0 l 615 490 q 566 663 615 610 q 428 715 517 715 q 296 684 360 715 q 183 590 232 653 l 183 0 l 136 0 l 136 750 l 178 750 l 182 657 l 188 657 q 299 734 236 708 q 432 761 363 761 q 556 733 504 761 q 635 644 608 704 q 762 733 693 706 q 899 761 831 761 z "},"ṃ":{"ha":1260,"x_min":136,"x_max":1136,"o":"m 899 761 q 1073 696 1010 761 q 1136 492 1136 631 l 1136 0 l 1089 0 l 1089 490 q 1039 663 1089 610 q 897 715 988 715 q 766 686 832 715 q 652 592 701 656 q 663 492 663 549 l 663 0 l 615 0 l 615 490 q 566 663 615 610 q 428 715 517 715 q 296 684 360 715 q 183 590 232 653 l 183 0 l 136 0 l 136 750 l 178 750 l 182 657 l 188 657 q 299 734 236 708 q 432 761 363 761 q 556 733 504 761 q 635 644 608 704 q 762 733 693 706 q 899 761 831 761 m 639 -215 q 608 -203 620 -215 q 596 -172 596 -192 q 608 -140 596 -153 q 639 -128 620 -128 q 670 -140 658 -128 q 682 -172 682 -153 q 670 -203 682 -192 q 639 -215 658 -215 z "},"n":{"ha":864,"x_min":136,"x_max":740,"o":"m 136 750 l 178 750 l 182 657 l 188 657 q 319 734 245 708 q 471 761 392 761 q 670 695 599 761 q 740 486 740 629 l 740 0 l 693 0 l 693 488 q 636 661 693 608 q 471 715 579 715 q 318 686 394 715 q 183 594 241 657 l 183 0 l 136 0 l 136 750 z "},"ń":{"ha":864,"x_min":136,"x_max":740,"o":"m 136 750 l 178 750 l 182 657 l 188 657 q 319 734 245 708 q 471 761 392 761 q 670 695 599 761 q 740 486 740 629 l 740 0 l 693 0 l 693 488 q 636 661 693 608 q 471 715 579 715 q 318 686 394 715 q 183 594 241 657 l 183 0 l 136 0 l 136 750 m 414 878 l 600 1122 l 658 1122 l 464 878 l 414 878 z "},"ŉ":{"ha":864,"x_min":11,"x_max":740,"o":"m 136 750 l 178 750 l 182 657 l 188 657 q 319 734 245 708 q 471 761 392 761 q 670 695 599 761 q 740 486 740 629 l 740 0 l 693 0 l 693 488 q 636 661 693 608 q 471 715 579 715 q 318 686 394 715 q 183 594 241 657 l 183 0 l 136 0 l 136 750 m 51 1128 q 85 1113 73 1128 q 97 1068 97 1097 q 90 1008 97 1042 q 67 944 82 975 l 36 944 q 59 1040 56 994 l 54 1040 q 23 1053 35 1040 q 11 1085 11 1065 q 23 1116 11 1103 q 51 1128 34 1128 z "},"ň":{"ha":864,"x_min":136,"x_max":740,"o":"m 136 750 l 178 750 l 182 657 l 188 657 q 319 734 245 708 q 471 761 392 761 q 670 695 599 761 q 740 486 740 629 l 740 0 l 693 0 l 693 488 q 636 661 693 608 q 471 715 579 715 q 318 686 394 715 q 183 594 241 657 l 183 0 l 136 0 l 136 750 m 597 1122 l 651 1122 l 465 878 l 413 878 l 226 1122 l 281 1122 l 439 910 l 597 1122 z "},"ņ":{"ha":864,"x_min":136,"x_max":740,"o":"m 136 750 l 178 750 l 182 657 l 188 657 q 319 734 245 708 q 471 761 392 761 q 670 695 599 761 q 740 486 740 629 l 740 0 l 693 0 l 693 488 q 636 661 693 608 q 471 715 579 715 q 318 686 394 715 q 183 594 241 657 l 183 0 l 136 0 l 136 750 m 436 -128 q 470 -143 458 -128 q 482 -187 482 -158 q 474 -247 482 -214 q 451 -311 467 -281 l 421 -311 q 444 -215 440 -262 l 439 -215 q 408 -203 420 -215 q 396 -171 396 -190 q 407 -140 396 -152 q 436 -128 419 -128 z "},"ṅ":{"ha":864,"x_min":136,"x_max":740,"o":"m 136 750 l 178 750 l 182 657 l 188 657 q 319 734 245 708 q 471 761 392 761 q 670 695 599 761 q 740 486 740 629 l 740 0 l 693 0 l 693 488 q 636 661 693 608 q 471 715 579 715 q 318 686 394 715 q 183 594 241 657 l 183 0 l 136 0 l 136 750 m 439 944 q 408 956 420 944 q 396 988 396 968 q 408 1019 396 1007 q 439 1032 420 1032 q 470 1019 458 1032 q 482 988 482 1007 q 470 956 482 968 q 439 944 458 944 z "},"ṇ":{"ha":864,"x_min":136,"x_max":740,"o":"m 136 750 l 178 750 l 182 657 l 188 657 q 319 734 245 708 q 471 761 392 761 q 670 695 599 761 q 740 486 740 629 l 740 0 l 693 0 l 693 488 q 636 661 693 608 q 471 715 579 715 q 318 686 394 715 q 183 594 241 657 l 183 0 l 136 0 l 136 750 m 439 -215 q 408 -203 420 -215 q 396 -172 396 -192 q 408 -140 396 -153 q 439 -128 420 -128 q 470 -140 458 -128 q 482 -172 482 -153 q 470 -203 482 -192 q 439 -215 458 -215 z "},"ŋ":{"ha":864,"x_min":136,"x_max":740,"o":"m 546 -294 q 657 -104 622 -203 q 693 115 693 -5 l 693 490 q 635 663 693 610 q 471 715 577 715 q 316 685 392 715 q 183 593 240 654 l 183 0 l 136 0 l 136 750 l 178 750 l 182 657 l 188 657 q 317 735 244 708 q 472 761 390 761 q 670 697 599 761 q 740 492 740 632 l 740 90 q 697 -127 733 -32 q 579 -319 660 -222 l 546 -294 z "},"ǌ":{"ha":1183,"x_min":136,"x_max":1067,"o":"m 136 750 l 178 750 l 182 657 l 188 657 q 319 734 245 708 q 471 761 392 761 q 670 695 599 761 q 740 486 740 629 l 740 0 l 693 0 l 693 488 q 636 661 693 608 q 471 715 579 715 q 318 686 394 715 q 183 594 241 657 l 183 0 l 136 0 l 136 750 m 853 -294 q 964 -104 928 -203 q 1000 115 1000 -5 l 1000 750 l 1047 750 l 1047 118 q 1009 -115 1047 -10 q 886 -319 970 -219 l 853 -294 m 1024 953 q 993 965 1005 953 q 981 996 981 976 q 993 1028 981 1015 q 1024 1040 1005 1040 q 1055 1028 1042 1040 q 1067 996 1067 1015 q 1055 965 1067 976 q 1024 953 1042 953 z "},"ṉ":{"ha":864,"x_min":136,"x_max":740,"o":"m 136 750 l 178 750 l 182 657 l 188 657 q 319 734 245 708 q 471 761 392 761 q 670 695 599 761 q 740 486 740 629 l 740 0 l 693 0 l 693 488 q 636 661 693 608 q 471 715 579 715 q 318 686 394 715 q 183 594 241 657 l 183 0 l 136 0 l 136 750 m 244 -194 l 244 -153 l 633 -153 l 633 -194 l 244 -194 z "},"ñ":{"ha":864,"x_min":136,"x_max":740,"o":"m 136 750 l 178 750 l 182 657 l 188 657 q 319 734 245 708 q 471 761 392 761 q 670 695 599 761 q 740 486 740 629 l 740 0 l 693 0 l 693 488 q 636 661 693 608 q 471 715 579 715 q 318 686 394 715 q 183 594 241 657 l 183 0 l 136 0 l 136 750 m 543 958 q 490 965 515 958 q 428 986 465 972 q 375 1004 394 999 q 335 1010 355 1010 q 273 998 301 1010 q 219 961 244 986 l 219 1008 q 335 1050 261 1050 q 388 1043 363 1050 q 450 1022 413 1036 q 503 1004 483 1010 q 543 999 523 999 q 605 1010 577 999 q 658 1047 633 1022 l 658 1000 q 543 958 617 958 z "},"o":{"ha":836,"x_min":89,"x_max":747,"o":"m 418 -12 q 176 82 263 -12 q 89 375 89 177 q 130 592 89 506 q 244 720 171 678 q 418 761 318 761 q 660 667 573 761 q 747 375 747 573 q 706 158 747 244 q 591 29 665 71 q 418 -12 517 -12 m 418 33 q 697 374 697 33 q 625 634 697 553 q 418 715 552 715 q 139 376 139 715 q 418 33 139 33 z "},"ó":{"ha":836,"x_min":89,"x_max":747,"o":"m 418 -12 q 176 82 263 -12 q 89 375 89 177 q 130 592 89 506 q 244 720 171 678 q 418 761 318 761 q 660 667 573 761 q 747 375 747 573 q 706 158 747 244 q 591 29 665 71 q 418 -12 517 -12 m 418 33 q 697 374 697 33 q 625 634 697 553 q 418 715 552 715 q 139 376 139 715 q 418 33 139 33 m 393 878 l 579 1122 l 638 1122 l 443 878 l 393 878 z "},"ŏ":{"ha":836,"x_min":89,"x_max":747,"o":"m 418 -12 q 176 82 263 -12 q 89 375 89 177 q 130 592 89 506 q 244 720 171 678 q 418 761 318 761 q 660 667 573 761 q 747 375 747 573 q 706 158 747 244 q 591 29 665 71 q 418 -12 517 -12 m 418 33 q 697 374 697 33 q 625 634 697 553 q 418 715 552 715 q 139 376 139 715 q 418 33 139 33 m 419 886 q 308 914 354 886 q 236 990 261 942 q 208 1103 211 1039 l 250 1103 q 296 974 256 1021 q 419 926 337 926 q 586 1103 574 926 l 628 1103 q 570 945 624 1004 q 419 886 517 886 z "},"ô":{"ha":836,"x_min":89,"x_max":747,"o":"m 418 -12 q 176 82 263 -12 q 89 375 89 177 q 130 592 89 506 q 244 720 171 678 q 418 761 318 761 q 660 667 573 761 q 747 375 747 573 q 706 158 747 244 q 591 29 665 71 q 418 -12 517 -12 m 418 33 q 697 374 697 33 q 625 634 697 553 q 418 715 552 715 q 139 376 139 715 q 418 33 139 33 m 625 878 l 571 878 l 418 1088 l 265 878 l 211 878 l 392 1122 l 444 1122 l 625 878 z "},"ố":{"ha":836,"x_min":89,"x_max":788,"o":"m 418 -12 q 176 82 263 -12 q 89 375 89 177 q 130 592 89 506 q 244 720 171 678 q 418 761 318 761 q 660 667 573 761 q 747 375 747 573 q 706 158 747 244 q 591 29 665 71 q 418 -12 517 -12 m 418 33 q 697 374 697 33 q 625 634 697 553 q 418 715 552 715 q 139 376 139 715 q 418 33 139 33 m 788 1297 l 624 1108 l 574 1108 l 728 1297 l 788 1297 m 392 1122 l 444 1122 l 625 878 l 571 878 l 418 1088 l 265 878 l 211 878 l 392 1122 z "},"ộ":{"ha":836,"x_min":89,"x_max":747,"o":"m 418 -12 q 176 82 263 -12 q 89 375 89 177 q 130 592 89 506 q 244 720 171 678 q 418 761 318 761 q 660 667 573 761 q 747 375 747 573 q 706 158 747 244 q 591 29 665 71 q 418 -12 517 -12 m 418 33 q 697 374 697 33 q 625 634 697 553 q 418 715 552 715 q 139 376 139 715 q 418 33 139 33 m 418 -215 q 387 -203 399 -215 q 375 -172 375 -192 q 387 -140 375 -153 q 418 -128 399 -128 q 449 -140 437 -128 q 461 -172 461 -153 q 449 -203 461 -192 q 418 -215 437 -215 m 625 878 l 571 878 l 418 1088 l 265 878 l 211 878 l 392 1122 l 444 1122 l 625 878 z "},"ồ":{"ha":836,"x_min":89,"x_max":747,"o":"m 418 -12 q 176 82 263 -12 q 89 375 89 177 q 130 592 89 506 q 244 720 171 678 q 418 761 318 761 q 660 667 573 761 q 747 375 747 573 q 706 158 747 244 q 591 29 665 71 q 418 -12 517 -12 m 418 33 q 697 374 697 33 q 625 634 697 553 q 418 715 552 715 q 139 376 139 715 q 418 33 139 33 m 642 1108 l 592 1108 l 428 1297 l 488 1297 l 642 1108 m 392 1122 l 444 1122 l 625 878 l 571 878 l 418 1088 l 265 878 l 211 878 l 392 1122 z "},"ổ":{"ha":836,"x_min":89,"x_max":747,"o":"m 418 -12 q 176 82 263 -12 q 89 375 89 177 q 130 592 89 506 q 244 720 171 678 q 418 761 318 761 q 660 667 573 761 q 747 375 747 573 q 706 158 747 244 q 591 29 665 71 q 418 -12 517 -12 m 418 33 q 697 374 697 33 q 625 634 697 553 q 418 715 552 715 q 139 376 139 715 q 418 33 139 33 m 617 1297 q 715 1277 683 1297 q 747 1222 747 1256 q 730 1182 747 1195 q 681 1156 713 1168 q 641 1136 655 1146 q 625 1108 627 1126 l 579 1108 q 591 1142 580 1128 q 616 1163 601 1155 q 654 1180 630 1170 q 694 1199 681 1190 q 707 1222 707 1208 q 687 1250 707 1240 q 617 1260 667 1260 q 541 1254 574 1260 q 467 1235 508 1249 l 467 1272 q 617 1297 531 1297 m 392 1122 l 444 1122 l 625 878 l 571 878 l 418 1088 l 265 878 l 211 878 l 392 1122 z "},"ỗ":{"ha":836,"x_min":89,"x_max":747,"o":"m 418 -12 q 176 82 263 -12 q 89 375 89 177 q 130 592 89 506 q 244 720 171 678 q 418 761 318 761 q 660 667 573 761 q 747 375 747 573 q 706 158 747 244 q 591 29 665 71 q 418 -12 517 -12 m 418 33 q 697 374 697 33 q 625 634 697 553 q 418 715 552 715 q 139 376 139 715 q 418 33 139 33 m 522 1204 q 584 1216 556 1204 q 638 1253 613 1228 l 638 1206 q 522 1164 596 1164 q 469 1171 494 1164 q 407 1192 444 1178 q 354 1210 374 1204 q 314 1215 334 1215 q 252 1203 280 1215 q 199 1167 224 1192 l 199 1214 q 314 1256 240 1256 q 367 1249 342 1256 q 429 1228 392 1242 q 482 1210 463 1215 q 522 1204 502 1204 m 392 1122 l 444 1122 l 625 878 l 571 878 l 418 1088 l 265 878 l 211 878 l 392 1122 z "},"ȍ":{"ha":836,"x_min":89,"x_max":747,"o":"m 418 -12 q 176 82 263 -12 q 89 375 89 177 q 130 592 89 506 q 244 720 171 678 q 418 761 318 761 q 660 667 573 761 q 747 375 747 573 q 706 158 747 244 q 591 29 665 71 q 418 -12 517 -12 m 418 33 q 697 374 697 33 q 625 634 697 553 q 418 715 552 715 q 139 376 139 715 q 418 33 139 33 m 278 878 l 147 1122 l 199 1122 l 325 878 l 278 878 m 511 878 l 381 1122 l 432 1122 l 558 878 l 511 878 z "},"ö":{"ha":836,"x_min":89,"x_max":747,"o":"m 418 -12 q 176 82 263 -12 q 89 375 89 177 q 130 592 89 506 q 244 720 171 678 q 418 761 318 761 q 660 667 573 761 q 747 375 747 573 q 706 158 747 244 q 591 29 665 71 q 418 -12 517 -12 m 418 33 q 697 374 697 33 q 625 634 697 553 q 418 715 552 715 q 139 376 139 715 q 418 33 139 33 m 251 944 q 220 956 233 944 q 208 988 208 968 q 220 1019 208 1007 q 251 1032 233 1032 q 282 1019 270 1032 q 294 988 294 1007 q 282 956 294 968 q 251 944 270 944 m 585 944 q 554 956 566 944 q 542 988 542 968 q 554 1019 542 1007 q 585 1032 566 1032 q 616 1019 603 1032 q 628 988 628 1007 q 616 956 628 968 q 585 944 603 944 z "},"ȫ":{"ha":836,"x_min":89,"x_max":747,"o":"m 418 -12 q 176 82 263 -12 q 89 375 89 177 q 130 592 89 506 q 244 720 171 678 q 418 761 318 761 q 660 667 573 761 q 747 375 747 573 q 706 158 747 244 q 591 29 665 71 q 418 -12 517 -12 m 418 33 q 697 374 697 33 q 625 634 697 553 q 418 715 552 715 q 139 376 139 715 q 418 33 139 33 m 251 944 q 220 956 233 944 q 208 988 208 968 q 220 1019 208 1007 q 251 1032 233 1032 q 282 1019 270 1032 q 294 988 294 1007 q 282 956 294 968 q 251 944 270 944 m 585 944 q 554 956 566 944 q 542 988 542 968 q 554 1019 542 1007 q 585 1032 566 1032 q 616 1019 603 1032 q 628 988 628 1007 q 616 956 628 968 q 585 944 603 944 m 199 1151 l 199 1193 l 638 1193 l 638 1151 l 199 1151 z "},"ȱ":{"ha":836,"x_min":89,"x_max":747,"o":"m 418 -12 q 176 82 263 -12 q 89 375 89 177 q 130 592 89 506 q 244 720 171 678 q 418 761 318 761 q 660 667 573 761 q 747 375 747 573 q 706 158 747 244 q 591 29 665 71 q 418 -12 517 -12 m 418 33 q 697 374 697 33 q 625 634 697 553 q 418 715 552 715 q 139 376 139 715 q 418 33 139 33 m 418 944 q 387 956 399 944 q 375 988 375 968 q 387 1019 375 1007 q 418 1032 399 1032 q 449 1019 437 1032 q 461 988 461 1007 q 449 956 461 968 q 418 944 437 944 m 199 1151 l 199 1193 l 638 1193 l 638 1151 l 199 1151 z "},"ọ":{"ha":836,"x_min":89,"x_max":747,"o":"m 418 -12 q 176 82 263 -12 q 89 375 89 177 q 130 592 89 506 q 244 720 171 678 q 418 761 318 761 q 660 667 573 761 q 747 375 747 573 q 706 158 747 244 q 591 29 665 71 q 418 -12 517 -12 m 418 33 q 697 374 697 33 q 625 634 697 553 q 418 715 552 715 q 139 376 139 715 q 418 33 139 33 m 418 -215 q 387 -203 399 -215 q 375 -172 375 -192 q 387 -140 375 -153 q 418 -128 399 -128 q 449 -140 437 -128 q 461 -172 461 -153 q 449 -203 461 -192 q 418 -215 437 -215 z "},"ò":{"ha":836,"x_min":89,"x_max":747,"o":"m 418 -12 q 176 82 263 -12 q 89 375 89 177 q 130 592 89 506 q 244 720 171 678 q 418 761 318 761 q 660 667 573 761 q 747 375 747 573 q 706 158 747 244 q 591 29 665 71 q 418 -12 517 -12 m 418 33 q 697 374 697 33 q 625 634 697 553 q 418 715 552 715 q 139 376 139 715 q 418 33 139 33 m 393 878 l 199 1122 l 257 1122 l 443 878 l 393 878 z "},"ỏ":{"ha":836,"x_min":89,"x_max":747,"o":"m 418 -12 q 176 82 263 -12 q 89 375 89 177 q 130 592 89 506 q 244 720 171 678 q 418 761 318 761 q 660 667 573 761 q 747 375 747 573 q 706 158 747 244 q 591 29 665 71 q 418 -12 517 -12 m 418 33 q 697 374 697 33 q 625 634 697 553 q 418 715 552 715 q 139 376 139 715 q 418 33 139 33 m 397 878 q 409 923 398 904 q 434 953 419 942 q 471 978 449 965 q 509 1006 497 994 q 521 1038 521 1019 q 496 1078 521 1065 q 421 1092 472 1092 q 360 1088 392 1092 q 304 1075 328 1083 l 304 1114 q 357 1126 326 1122 q 417 1131 387 1131 q 526 1107 490 1131 q 561 1038 561 1083 q 553 1001 561 1016 q 532 976 544 985 q 500 953 520 966 q 457 921 472 937 q 440 878 442 905 l 397 878 z "},"ơ":{"ha":836,"x_min":89,"x_max":760,"o":"m 610 709 q 713 579 679 662 q 747 375 747 497 q 706 158 747 244 q 591 29 665 71 q 418 -12 517 -12 q 176 82 263 -12 q 89 375 89 177 q 130 592 89 506 q 244 720 171 678 q 418 761 318 761 q 506 756 447 761 q 561 753 541 753 q 714 871 714 753 q 709 920 714 898 q 696 969 705 943 l 742 969 q 756 922 751 944 q 760 869 760 900 q 722 761 760 803 q 610 709 683 720 m 418 33 q 697 374 697 33 q 625 634 697 553 q 418 715 552 715 q 139 376 139 715 q 418 33 139 33 z "},"ớ":{"ha":836,"x_min":89,"x_max":760,"o":"m 610 709 q 713 579 679 662 q 747 375 747 497 q 706 158 747 244 q 591 29 665 71 q 418 -12 517 -12 q 176 82 263 -12 q 89 375 89 177 q 130 592 89 506 q 244 720 171 678 q 418 761 318 761 q 506 756 447 761 q 561 753 541 753 q 714 871 714 753 q 709 920 714 898 q 696 969 705 943 l 742 969 q 756 922 751 944 q 760 869 760 900 q 722 761 760 803 q 610 709 683 720 m 418 33 q 697 374 697 33 q 625 634 697 553 q 418 715 552 715 q 139 376 139 715 q 418 33 139 33 m 389 878 l 575 1122 l 633 1122 l 439 878 l 389 878 z "},"ợ":{"ha":836,"x_min":89,"x_max":760,"o":"m 610 709 q 713 579 679 662 q 747 375 747 497 q 706 158 747 244 q 591 29 665 71 q 418 -12 517 -12 q 176 82 263 -12 q 89 375 89 177 q 130 592 89 506 q 244 720 171 678 q 418 761 318 761 q 506 756 447 761 q 561 753 541 753 q 714 871 714 753 q 709 920 714 898 q 696 969 705 943 l 742 969 q 756 922 751 944 q 760 869 760 900 q 722 761 760 803 q 610 709 683 720 m 418 33 q 697 374 697 33 q 625 634 697 553 q 418 715 552 715 q 139 376 139 715 q 418 33 139 33 m 414 -215 q 383 -203 395 -215 q 371 -172 371 -192 q 383 -140 371 -153 q 414 -128 395 -128 q 445 -140 433 -128 q 457 -172 457 -153 q 445 -203 457 -192 q 414 -215 433 -215 z "},"ờ":{"ha":836,"x_min":89,"x_max":760,"o":"m 610 709 q 713 579 679 662 q 747 375 747 497 q 706 158 747 244 q 591 29 665 71 q 418 -12 517 -12 q 176 82 263 -12 q 89 375 89 177 q 130 592 89 506 q 244 720 171 678 q 418 761 318 761 q 506 756 447 761 q 561 753 541 753 q 714 871 714 753 q 709 920 714 898 q 696 969 705 943 l 742 969 q 756 922 751 944 q 760 869 760 900 q 722 761 760 803 q 610 709 683 720 m 418 33 q 697 374 697 33 q 625 634 697 553 q 418 715 552 715 q 139 376 139 715 q 418 33 139 33 m 389 878 l 194 1122 l 253 1122 l 439 878 l 389 878 z "},"ở":{"ha":836,"x_min":89,"x_max":760,"o":"m 610 709 q 713 579 679 662 q 747 375 747 497 q 706 158 747 244 q 591 29 665 71 q 418 -12 517 -12 q 176 82 263 -12 q 89 375 89 177 q 130 592 89 506 q 244 720 171 678 q 418 761 318 761 q 506 756 447 761 q 561 753 541 753 q 714 871 714 753 q 709 920 714 898 q 696 969 705 943 l 742 969 q 756 922 751 944 q 760 869 760 900 q 722 761 760 803 q 610 709 683 720 m 418 33 q 697 374 697 33 q 625 634 697 553 q 418 715 552 715 q 139 376 139 715 q 418 33 139 33 m 393 878 q 405 923 394 904 q 430 953 415 942 q 467 978 444 965 q 505 1006 492 994 q 517 1038 517 1019 q 492 1078 517 1065 q 417 1092 467 1092 q 356 1088 388 1092 q 300 1075 324 1083 l 300 1114 q 352 1126 322 1122 q 413 1131 383 1131 q 522 1107 486 1131 q 557 1038 557 1083 q 549 1001 557 1016 q 528 976 540 985 q 496 953 516 966 q 452 921 467 937 q 436 878 438 905 l 393 878 z "},"ỡ":{"ha":836,"x_min":89,"x_max":760,"o":"m 518 958 q 465 965 490 958 q 403 986 440 972 q 350 1004 369 999 q 310 1010 330 1010 q 248 998 276 1010 q 194 961 219 986 l 194 1008 q 310 1050 236 1050 q 363 1043 338 1050 q 425 1022 388 1036 q 478 1004 458 1010 q 518 999 498 999 q 580 1010 552 999 q 633 1047 608 1022 l 633 1000 q 518 958 592 958 m 610 709 q 713 579 679 662 q 747 375 747 497 q 706 158 747 244 q 591 29 665 71 q 418 -12 517 -12 q 176 82 263 -12 q 89 375 89 177 q 130 592 89 506 q 244 720 171 678 q 418 761 318 761 q 506 756 447 761 q 561 753 541 753 q 714 871 714 753 q 709 920 714 898 q 696 969 705 943 l 742 969 q 756 922 751 944 q 760 869 760 900 q 722 761 760 803 q 610 709 683 720 m 418 33 q 697 374 697 33 q 625 634 697 553 q 418 715 552 715 q 139 376 139 715 q 418 33 139 33 z "},"ő":{"ha":836,"x_min":89,"x_max":747,"o":"m 418 -12 q 176 82 263 -12 q 89 375 89 177 q 130 592 89 506 q 244 720 171 678 q 418 761 318 761 q 660 667 573 761 q 747 375 747 573 q 706 158 747 244 q 591 29 665 71 q 418 -12 517 -12 m 418 33 q 697 374 697 33 q 625 634 697 553 q 418 715 552 715 q 139 376 139 715 q 418 33 139 33 m 281 878 l 407 1122 l 456 1122 l 325 878 l 281 878 m 511 878 l 638 1122 l 686 1122 l 556 878 l 511 878 z "},"ȏ":{"ha":836,"x_min":89,"x_max":747,"o":"m 418 -12 q 176 82 263 -12 q 89 375 89 177 q 130 592 89 506 q 244 720 171 678 q 418 761 318 761 q 660 667 573 761 q 747 375 747 573 q 706 158 747 244 q 591 29 665 71 q 418 -12 517 -12 m 418 33 q 697 374 697 33 q 625 634 697 553 q 418 715 552 715 q 139 376 139 715 q 418 33 139 33 m 208 897 q 266 1055 213 996 q 417 1114 319 1114 q 528 1086 482 1114 q 600 1010 575 1058 q 628 897 625 961 l 586 897 q 539 1025 581 978 q 417 1072 497 1072 q 296 1026 336 1072 q 250 897 256 979 l 208 897 z "},"ō":{"ha":836,"x_min":89,"x_max":747,"o":"m 418 -12 q 176 82 263 -12 q 89 375 89 177 q 130 592 89 506 q 244 720 171 678 q 418 761 318 761 q 660 667 573 761 q 747 375 747 573 q 706 158 747 244 q 591 29 665 71 q 418 -12 517 -12 m 418 33 q 697 374 697 33 q 625 634 697 553 q 418 715 552 715 q 139 376 139 715 q 418 33 139 33 m 199 968 l 199 1010 l 638 1010 l 638 968 l 199 968 z "},"ṓ":{"ha":836,"x_min":89,"x_max":747,"o":"m 418 -12 q 176 82 263 -12 q 89 375 89 177 q 130 592 89 506 q 244 720 171 678 q 418 761 318 761 q 660 667 573 761 q 747 375 747 573 q 706 158 747 244 q 591 29 665 71 q 418 -12 517 -12 m 418 33 q 697 374 697 33 q 625 634 697 553 q 418 715 552 715 q 139 376 139 715 q 418 33 139 33 m 199 968 l 199 1010 l 638 1010 l 638 968 l 199 968 m 393 1108 l 547 1297 l 607 1297 l 443 1108 l 393 1108 z "},"ṑ":{"ha":836,"x_min":89,"x_max":747,"o":"m 418 -12 q 176 82 263 -12 q 89 375 89 177 q 130 592 89 506 q 244 720 171 678 q 418 761 318 761 q 660 667 573 761 q 747 375 747 573 q 706 158 747 244 q 591 29 665 71 q 418 -12 517 -12 m 418 33 q 697 374 697 33 q 625 634 697 553 q 418 715 552 715 q 139 376 139 715 q 418 33 139 33 m 199 968 l 199 1010 l 638 1010 l 638 968 l 199 968 m 393 1108 l 229 1297 l 289 1297 l 443 1108 l 393 1108 z "},"ǫ":{"ha":836,"x_min":89,"x_max":747,"o":"m 518 0 q 385 -67 424 -25 q 347 -158 347 -109 q 374 -219 347 -197 q 444 -242 400 -242 q 550 -217 498 -242 l 564 -250 q 506 -270 538 -263 q 447 -278 475 -278 q 346 -246 384 -278 q 308 -160 308 -215 q 401 -12 308 -68 q 172 88 254 -7 q 89 375 89 183 q 130 592 89 506 q 244 720 171 678 q 418 761 318 761 q 660 667 573 761 q 747 375 747 573 q 687 122 747 215 q 518 0 627 28 m 139 376 q 418 33 139 33 q 697 374 697 33 q 625 634 697 553 q 418 715 552 715 q 139 376 139 715 z "},"ø":{"ha":836,"x_min":89,"x_max":747,"o":"m 667 658 q 747 375 747 560 q 706 158 747 244 q 591 29 665 71 q 418 -12 517 -12 q 199 60 281 -12 l 143 -11 l 110 17 l 169 92 q 89 375 89 189 q 130 592 89 506 q 244 720 171 678 q 418 761 318 761 q 637 690 556 761 l 693 761 l 726 733 l 667 658 m 418 715 q 139 376 139 715 q 199 131 139 217 l 608 652 q 418 715 538 715 m 418 33 q 697 374 697 33 q 636 619 697 534 l 228 98 q 418 33 297 33 z "},"ǿ":{"ha":836,"x_min":89,"x_max":747,"o":"m 667 658 q 747 375 747 560 q 706 158 747 244 q 591 29 665 71 q 418 -12 517 -12 q 199 60 281 -12 l 143 -11 l 110 17 l 169 92 q 89 375 89 189 q 130 592 89 506 q 244 720 171 678 q 418 761 318 761 q 637 690 556 761 l 693 761 l 726 733 l 667 658 m 418 715 q 139 376 139 715 q 199 131 139 217 l 608 652 q 418 715 538 715 m 418 33 q 697 374 697 33 q 636 619 697 534 l 228 98 q 418 33 297 33 m 385 878 l 571 1122 l 629 1122 l 435 878 l 385 878 z "},"õ":{"ha":836,"x_min":89,"x_max":747,"o":"m 418 -12 q 176 82 263 -12 q 89 375 89 177 q 130 592 89 506 q 244 720 171 678 q 418 761 318 761 q 660 667 573 761 q 747 375 747 573 q 706 158 747 244 q 591 29 665 71 q 418 -12 517 -12 m 418 33 q 697 374 697 33 q 625 634 697 553 q 418 715 552 715 q 139 376 139 715 q 418 33 139 33 m 522 958 q 469 965 494 958 q 407 986 444 972 q 354 1004 374 999 q 314 1010 334 1010 q 252 998 280 1010 q 199 961 224 986 l 199 1008 q 314 1050 240 1050 q 367 1043 342 1050 q 429 1022 392 1036 q 482 1004 463 1010 q 522 999 502 999 q 584 1010 556 999 q 638 1047 613 1022 l 638 1000 q 522 958 596 958 z "},"ṍ":{"ha":836,"x_min":89,"x_max":747,"o":"m 418 -12 q 176 82 263 -12 q 89 375 89 177 q 130 592 89 506 q 244 720 171 678 q 418 761 318 761 q 660 667 573 761 q 747 375 747 573 q 706 158 747 244 q 591 29 665 71 q 418 -12 517 -12 m 418 33 q 697 374 697 33 q 625 634 697 553 q 418 715 552 715 q 139 376 139 715 q 418 33 139 33 m 522 958 q 469 965 494 958 q 407 986 444 972 q 354 1004 374 999 q 314 1010 334 1010 q 252 998 280 1010 q 199 961 224 986 l 199 1008 q 314 1050 240 1050 q 367 1043 342 1050 q 429 1022 392 1036 q 482 1004 463 1010 q 522 999 502 999 q 584 1010 556 999 q 638 1047 613 1022 l 638 1000 q 522 958 596 958 m 393 1108 l 547 1297 l 607 1297 l 443 1108 l 393 1108 z "},"ṏ":{"ha":836,"x_min":89,"x_max":747,"o":"m 418 -12 q 176 82 263 -12 q 89 375 89 177 q 130 592 89 506 q 244 720 171 678 q 418 761 318 761 q 660 667 573 761 q 747 375 747 573 q 706 158 747 244 q 591 29 665 71 q 418 -12 517 -12 m 418 33 q 697 374 697 33 q 625 634 697 553 q 418 715 552 715 q 139 376 139 715 q 418 33 139 33 m 522 958 q 469 965 494 958 q 407 986 444 972 q 354 1004 374 999 q 314 1010 334 1010 q 252 998 280 1010 q 199 961 224 986 l 199 1008 q 314 1050 240 1050 q 367 1043 342 1050 q 429 1022 392 1036 q 482 1004 463 1010 q 522 999 502 999 q 584 1010 556 999 q 638 1047 613 1022 l 638 1000 q 522 958 596 958 m 251 1128 q 220 1140 233 1128 q 208 1171 208 1151 q 220 1203 208 1190 q 251 1215 233 1215 q 282 1203 270 1215 q 294 1171 294 1190 q 282 1140 294 1151 q 251 1128 270 1128 m 585 1128 q 554 1140 566 1128 q 542 1171 542 1151 q 554 1203 542 1190 q 585 1215 566 1215 q 616 1203 603 1215 q 628 1171 628 1190 q 616 1140 628 1151 q 585 1128 603 1128 z "},"ȭ":{"ha":836,"x_min":89,"x_max":747,"o":"m 418 -12 q 176 82 263 -12 q 89 375 89 177 q 130 592 89 506 q 244 720 171 678 q 418 761 318 761 q 660 667 573 761 q 747 375 747 573 q 706 158 747 244 q 591 29 665 71 q 418 -12 517 -12 m 418 33 q 697 374 697 33 q 625 634 697 553 q 418 715 552 715 q 139 376 139 715 q 418 33 139 33 m 522 958 q 469 965 494 958 q 407 986 444 972 q 354 1004 374 999 q 314 1010 334 1010 q 252 998 280 1010 q 199 961 224 986 l 199 1008 q 314 1050 240 1050 q 367 1043 342 1050 q 429 1022 392 1036 q 482 1004 463 1010 q 522 999 502 999 q 584 1010 556 999 q 638 1047 613 1022 l 638 1000 q 522 958 596 958 m 199 1151 l 199 1193 l 638 1193 l 638 1151 l 199 1151 z "},"œ":{"ha":1375,"x_min":89,"x_max":1301,"o":"m 1301 354 l 742 354 q 827 111 747 190 q 1053 33 907 33 q 1265 72 1149 33 l 1265 25 q 1050 -12 1155 -12 q 835 43 919 -12 q 716 212 750 99 q 607 43 685 99 q 415 -12 528 -12 q 176 82 263 -12 q 89 375 89 177 q 130 592 89 506 q 244 719 171 678 q 415 761 317 761 q 608 707 531 761 q 717 540 685 653 q 817 705 745 649 q 1000 761 890 761 q 1223 664 1144 761 q 1301 378 1301 566 l 1301 354 m 415 33 q 619 115 547 33 q 692 374 692 197 q 415 715 692 715 q 139 376 139 715 q 415 33 139 33 m 1000 715 q 812 638 878 715 q 742 400 746 560 l 1253 400 q 1000 715 1246 715 z "},"p":{"ha":853,"x_min":136,"x_max":764,"o":"m 136 750 l 178 750 l 183 657 l 188 657 q 297 734 232 706 q 436 761 361 761 q 675 671 585 761 q 764 389 764 581 q 664 87 764 187 q 363 -12 564 -12 q 183 4 283 -12 l 183 -306 l 136 -306 l 136 750 m 365 33 q 628 119 542 33 q 714 383 714 204 q 639 637 714 559 q 433 715 565 715 q 295 686 360 715 q 183 592 231 656 l 183 56 q 269 39 221 45 q 365 33 317 33 z "},"þ":{"ha":853,"x_min":136,"x_max":764,"o":"m 136 1122 l 183 1122 l 183 658 l 188 658 q 298 734 233 707 q 439 761 362 761 q 607 723 535 761 q 722 602 680 685 q 764 389 764 519 q 664 87 764 187 q 363 -12 564 -12 q 183 4 283 -12 l 183 -306 l 136 -306 l 136 1122 m 365 33 q 628 119 542 33 q 714 383 714 204 q 640 637 714 559 q 436 715 565 715 q 297 686 363 715 q 183 593 231 656 l 183 56 q 269 39 221 45 q 365 33 317 33 z "},"q":{"ha":853,"x_min":89,"x_max":717,"o":"m 669 88 l 665 88 q 555 14 619 40 q 411 -12 490 -12 q 244 26 316 -12 q 130 147 172 64 q 89 360 89 230 q 481 761 89 761 q 717 728 600 761 l 717 -306 l 669 -306 l 669 88 m 414 33 q 555 61 488 33 q 669 149 622 90 l 669 692 q 475 715 585 715 q 223 630 307 715 q 139 365 139 544 q 213 112 139 190 q 414 33 287 33 z "},"r":{"ha":542,"x_min":136,"x_max":531,"o":"m 136 750 l 178 750 l 182 647 l 188 647 q 307 726 235 697 q 451 756 380 756 q 531 749 494 756 l 531 701 q 451 707 497 707 q 308 676 383 707 q 183 586 233 646 l 183 0 l 136 0 l 136 750 z "},"ŕ":{"ha":542,"x_min":136,"x_max":553,"o":"m 136 750 l 178 750 l 182 647 l 188 647 q 307 726 235 697 q 451 756 380 756 q 531 749 494 756 l 531 701 q 451 707 497 707 q 308 676 383 707 q 183 586 233 646 l 183 0 l 136 0 l 136 750 m 308 878 l 494 1122 l 553 1122 l 358 878 l 308 878 z "},"ř":{"ha":542,"x_min":121,"x_max":546,"o":"m 136 750 l 178 750 l 182 647 l 188 647 q 307 726 235 697 q 451 756 380 756 q 531 749 494 756 l 531 701 q 451 707 497 707 q 308 676 383 707 q 183 586 233 646 l 183 0 l 136 0 l 136 750 m 492 1122 l 546 1122 l 360 878 l 307 878 l 121 1122 l 175 1122 l 333 910 l 492 1122 z "},"ŗ":{"ha":542,"x_min":117,"x_max":531,"o":"m 136 750 l 178 750 l 182 647 l 188 647 q 307 726 235 697 q 451 756 380 756 q 531 749 494 756 l 531 701 q 451 707 497 707 q 308 676 383 707 q 183 586 233 646 l 183 0 l 136 0 l 136 750 m 157 -128 q 191 -143 178 -128 q 203 -187 203 -158 q 195 -247 203 -214 q 172 -311 188 -281 l 142 -311 q 165 -215 161 -262 l 160 -215 q 129 -203 141 -215 q 117 -171 117 -190 q 128 -140 117 -152 q 157 -128 140 -128 z "},"ȑ":{"ha":542,"x_min":63,"x_max":531,"o":"m 136 750 l 178 750 l 182 647 l 188 647 q 307 726 235 697 q 451 756 380 756 q 531 749 494 756 l 531 701 q 451 707 497 707 q 308 676 383 707 q 183 586 233 646 l 183 0 l 136 0 l 136 750 m 193 878 l 63 1122 l 114 1122 l 240 878 l 193 878 m 426 878 l 296 1122 l 347 1122 l 474 878 l 426 878 z "},"ṛ":{"ha":542,"x_min":117,"x_max":531,"o":"m 136 750 l 178 750 l 182 647 l 188 647 q 307 726 235 697 q 451 756 380 756 q 531 749 494 756 l 531 701 q 451 707 497 707 q 308 676 383 707 q 183 586 233 646 l 183 0 l 136 0 l 136 750 m 160 -215 q 129 -203 141 -215 q 117 -172 117 -192 q 129 -140 117 -153 q 160 -128 141 -128 q 191 -140 178 -128 q 203 -172 203 -153 q 191 -203 203 -192 q 160 -215 178 -215 z "},"ȓ":{"ha":542,"x_min":124,"x_max":543,"o":"m 136 750 l 178 750 l 182 647 l 188 647 q 307 726 235 697 q 451 756 380 756 q 531 749 494 756 l 531 701 q 451 707 497 707 q 308 676 383 707 q 183 586 233 646 l 183 0 l 136 0 l 136 750 m 124 897 q 181 1055 128 996 q 332 1114 234 1114 q 444 1086 397 1114 q 515 1010 490 1058 q 543 897 540 961 l 501 897 q 454 1025 496 978 q 332 1072 413 1072 q 211 1026 251 1072 q 165 897 171 979 l 124 897 z "},"ṟ":{"ha":542,"x_min":-35,"x_max":531,"o":"m 136 750 l 178 750 l 182 647 l 188 647 q 307 726 235 697 q 451 756 380 756 q 531 749 494 756 l 531 701 q 451 707 497 707 q 308 676 383 707 q 183 586 233 646 l 183 0 l 136 0 l 136 750 m -35 -194 l -35 -153 l 354 -153 l 354 -194 l -35 -194 z "},"s":{"ha":686,"x_min":92,"x_max":619,"o":"m 322 -12 q 206 -5 259 -12 q 101 18 153 2 l 101 65 q 215 40 163 47 q 326 33 267 33 q 512 73 454 33 q 569 190 569 113 q 555 261 569 233 q 505 308 540 289 q 408 338 469 326 l 293 358 q 140 426 188 378 q 92 556 92 475 q 164 705 92 649 q 385 761 236 761 q 576 735 483 761 l 576 688 q 478 709 522 703 q 385 715 435 715 q 199 673 256 715 q 142 557 142 631 q 176 461 142 499 q 296 408 210 424 l 411 388 q 570 322 522 368 q 619 196 619 276 q 545 43 619 98 q 322 -12 472 -12 z "},"ś":{"ha":686,"x_min":92,"x_max":619,"o":"m 322 -12 q 206 -5 259 -12 q 101 18 153 2 l 101 65 q 215 40 163 47 q 326 33 267 33 q 512 73 454 33 q 569 190 569 113 q 555 261 569 233 q 505 308 540 289 q 408 338 469 326 l 293 358 q 140 426 188 378 q 92 556 92 475 q 164 705 92 649 q 385 761 236 761 q 576 735 483 761 l 576 688 q 478 709 522 703 q 385 715 435 715 q 199 673 256 715 q 142 557 142 631 q 176 461 142 499 q 296 408 210 424 l 411 388 q 570 322 522 368 q 619 196 619 276 q 545 43 619 98 q 322 -12 472 -12 m 321 878 l 507 1122 l 565 1122 l 371 878 l 321 878 z "},"ṥ":{"ha":686,"x_min":92,"x_max":619,"o":"m 322 -12 q 206 -5 259 -12 q 101 18 153 2 l 101 65 q 215 40 163 47 q 326 33 267 33 q 512 73 454 33 q 569 190 569 113 q 555 261 569 233 q 505 308 540 289 q 408 338 469 326 l 293 358 q 140 426 188 378 q 92 556 92 475 q 164 705 92 649 q 385 761 236 761 q 576 735 483 761 l 576 688 q 478 709 522 703 q 385 715 435 715 q 199 673 256 715 q 142 557 142 631 q 176 461 142 499 q 296 408 210 424 l 411 388 q 570 322 522 368 q 619 196 619 276 q 545 43 619 98 q 322 -12 472 -12 m 318 1094 q 287 1106 299 1094 q 275 1138 275 1118 q 287 1169 275 1157 q 318 1182 299 1182 q 349 1169 337 1182 q 361 1138 361 1157 q 349 1106 361 1118 q 318 1094 337 1094 m 321 878 l 507 1122 l 565 1122 l 371 878 l 321 878 z "},"š":{"ha":686,"x_min":92,"x_max":619,"o":"m 322 -12 q 206 -5 259 -12 q 101 18 153 2 l 101 65 q 215 40 163 47 q 326 33 267 33 q 512 73 454 33 q 569 190 569 113 q 555 261 569 233 q 505 308 540 289 q 408 338 469 326 l 293 358 q 140 426 188 378 q 92 556 92 475 q 164 705 92 649 q 385 761 236 761 q 576 735 483 761 l 576 688 q 478 709 522 703 q 385 715 435 715 q 199 673 256 715 q 142 557 142 631 q 176 461 142 499 q 296 408 210 424 l 411 388 q 570 322 522 368 q 619 196 619 276 q 545 43 619 98 q 322 -12 472 -12 m 504 1122 l 558 1122 l 372 878 l 319 878 l 133 1122 l 188 1122 l 346 910 l 504 1122 z "},"ṧ":{"ha":686,"x_min":92,"x_max":619,"o":"m 322 -12 q 206 -5 259 -12 q 101 18 153 2 l 101 65 q 215 40 163 47 q 326 33 267 33 q 512 73 454 33 q 569 190 569 113 q 555 261 569 233 q 505 308 540 289 q 408 338 469 326 l 293 358 q 140 426 188 378 q 92 556 92 475 q 164 705 92 649 q 385 761 236 761 q 576 735 483 761 l 576 688 q 478 709 522 703 q 385 715 435 715 q 199 673 256 715 q 142 557 142 631 q 176 461 142 499 q 296 408 210 424 l 411 388 q 570 322 522 368 q 619 196 619 276 q 545 43 619 98 q 322 -12 472 -12 m 346 1121 q 315 1133 327 1121 q 303 1164 303 1144 q 315 1196 303 1183 q 346 1208 327 1208 q 377 1196 365 1208 q 389 1164 389 1183 q 377 1133 389 1144 q 346 1121 365 1121 m 504 1122 l 558 1122 l 372 878 l 319 878 l 133 1122 l 188 1122 l 346 910 l 504 1122 z "},"ş":{"ha":686,"x_min":92,"x_max":619,"o":"m 619 196 q 557 51 619 106 q 367 -11 494 -3 l 367 -78 q 454 -106 423 -81 q 485 -178 485 -131 q 451 -252 485 -226 q 356 -278 417 -278 q 287 -270 322 -278 q 229 -250 252 -263 l 229 -211 q 356 -242 290 -242 q 423 -226 401 -242 q 446 -178 446 -210 q 423 -130 446 -145 q 354 -114 401 -114 l 328 -114 l 328 -12 l 322 -12 q 206 -5 259 -12 q 101 18 153 2 l 101 65 q 215 40 163 47 q 326 33 267 33 q 512 73 454 33 q 569 190 569 113 q 555 261 569 233 q 505 308 540 289 q 408 338 469 326 l 293 358 q 140 426 188 378 q 92 556 92 475 q 164 705 92 649 q 385 761 236 761 q 576 735 483 761 l 576 688 q 478 709 522 703 q 385 715 435 715 q 199 673 256 715 q 142 557 142 631 q 176 461 142 499 q 296 408 210 424 l 411 388 q 570 322 522 368 q 619 196 619 276 z "},"ŝ":{"ha":686,"x_min":92,"x_max":619,"o":"m 322 -12 q 206 -5 259 -12 q 101 18 153 2 l 101 65 q 215 40 163 47 q 326 33 267 33 q 512 73 454 33 q 569 190 569 113 q 555 261 569 233 q 505 308 540 289 q 408 338 469 326 l 293 358 q 140 426 188 378 q 92 556 92 475 q 164 705 92 649 q 385 761 236 761 q 576 735 483 761 l 576 688 q 478 709 522 703 q 385 715 435 715 q 199 673 256 715 q 142 557 142 631 q 176 461 142 499 q 296 408 210 424 l 411 388 q 570 322 522 368 q 619 196 619 276 q 545 43 619 98 q 322 -12 472 -12 m 553 878 l 499 878 l 346 1088 l 193 878 l 139 878 l 319 1122 l 372 1122 l 553 878 z "},"ș":{"ha":686,"x_min":92,"x_max":619,"o":"m 322 -12 q 206 -5 259 -12 q 101 18 153 2 l 101 65 q 215 40 163 47 q 326 33 267 33 q 512 73 454 33 q 569 190 569 113 q 555 261 569 233 q 505 308 540 289 q 408 338 469 326 l 293 358 q 140 426 188 378 q 92 556 92 475 q 164 705 92 649 q 385 761 236 761 q 576 735 483 761 l 576 688 q 478 709 522 703 q 385 715 435 715 q 199 673 256 715 q 142 557 142 631 q 176 461 142 499 q 296 408 210 424 l 411 388 q 570 322 522 368 q 619 196 619 276 q 545 43 619 98 q 322 -12 472 -12 m 343 -128 q 377 -143 365 -128 q 389 -187 389 -158 q 381 -247 389 -214 q 358 -311 374 -281 l 328 -311 q 351 -215 347 -262 l 346 -215 q 315 -203 327 -215 q 303 -171 303 -190 q 314 -140 303 -152 q 343 -128 326 -128 z "},"ṡ":{"ha":686,"x_min":92,"x_max":619,"o":"m 322 -12 q 206 -5 259 -12 q 101 18 153 2 l 101 65 q 215 40 163 47 q 326 33 267 33 q 512 73 454 33 q 569 190 569 113 q 555 261 569 233 q 505 308 540 289 q 408 338 469 326 l 293 358 q 140 426 188 378 q 92 556 92 475 q 164 705 92 649 q 385 761 236 761 q 576 735 483 761 l 576 688 q 478 709 522 703 q 385 715 435 715 q 199 673 256 715 q 142 557 142 631 q 176 461 142 499 q 296 408 210 424 l 411 388 q 570 322 522 368 q 619 196 619 276 q 545 43 619 98 q 322 -12 472 -12 m 346 944 q 315 956 327 944 q 303 988 303 968 q 315 1019 303 1007 q 346 1032 327 1032 q 377 1019 365 1032 q 389 988 389 1007 q 377 956 389 968 q 346 944 365 944 z "},"ṣ":{"ha":686,"x_min":92,"x_max":619,"o":"m 322 -12 q 206 -5 259 -12 q 101 18 153 2 l 101 65 q 215 40 163 47 q 326 33 267 33 q 512 73 454 33 q 569 190 569 113 q 555 261 569 233 q 505 308 540 289 q 408 338 469 326 l 293 358 q 140 426 188 378 q 92 556 92 475 q 164 705 92 649 q 385 761 236 761 q 576 735 483 761 l 576 688 q 478 709 522 703 q 385 715 435 715 q 199 673 256 715 q 142 557 142 631 q 176 461 142 499 q 296 408 210 424 l 411 388 q 570 322 522 368 q 619 196 619 276 q 545 43 619 98 q 322 -12 472 -12 m 346 -215 q 315 -203 327 -215 q 303 -172 303 -192 q 315 -140 303 -153 q 346 -128 327 -128 q 377 -140 365 -128 q 389 -172 389 -153 q 377 -203 389 -192 q 346 -215 365 -215 z "},"ṩ":{"ha":686,"x_min":92,"x_max":619,"o":"m 322 -12 q 206 -5 259 -12 q 101 18 153 2 l 101 65 q 215 40 163 47 q 326 33 267 33 q 512 73 454 33 q 569 190 569 113 q 555 261 569 233 q 505 308 540 289 q 408 338 469 326 l 293 358 q 140 426 188 378 q 92 556 92 475 q 164 705 92 649 q 385 761 236 761 q 576 735 483 761 l 576 688 q 478 709 522 703 q 385 715 435 715 q 199 673 256 715 q 142 557 142 631 q 176 461 142 499 q 296 408 210 424 l 411 388 q 570 322 522 368 q 619 196 619 276 q 545 43 619 98 q 322 -12 472 -12 m 346 -215 q 315 -203 327 -215 q 303 -172 303 -192 q 315 -140 303 -153 q 346 -128 327 -128 q 377 -140 365 -128 q 389 -172 389 -153 q 377 -203 389 -192 q 346 -215 365 -215 m 346 944 q 315 956 327 944 q 303 988 303 968 q 315 1019 303 1007 q 346 1032 327 1032 q 377 1019 365 1032 q 389 988 389 1007 q 377 956 389 968 q 346 944 365 944 z "}}}
